<?xml version="1.0" encoding="utf-8"?>
<svg xmlns="http://www.w3.org/2000/svg" xmlns:xlink="http://www.w3.org/1999/xlink" xml:space="preserve" width="1063.75" height="1241.0416666667" viewBox="0 0 1063.75 1241.0416666667"><rect width="984.85520833333" height="984.85520833333" fill="#ffffff" x="44.322916666667" y="221.61458333333"/><g transform="scale(44.322916666667)" fill="#000000"><path d="M1.3,28L22.6,28c0.7,0,1.3-0.6,1.3-1.3L24,1.4c0-0.7-0.6-1.3-1.3-1.3L1.4,0C0.7,0,0.1,0.6,0,1.3L0,26.6 C-0.1,27.4,0.5,28,1.3,28z M1,6c0-0.6,0.5-1,1-1L22,5c0.6,0,1,0.5,1,1L23,26c0,0.6-0.5,1-1,1L2,27c-0.6,0-1-0.5-1-1L1,6z"/></g><g transform="translate(0,177.29166666667)" fill="#000000">
<g transform="translate(290.375,106.375) scale(3.9483333333333)"><rect width="6" height="6"/></g>
<g transform="translate(336.375,106.375) scale(3.9483333333333)"><rect width="6" height="6"/></g>
<g transform="translate(451.375,106.375) scale(3.9483333333333)"><rect width="6" height="6"/></g>
<g transform="translate(474.375,106.375) scale(3.9483333333333)"><rect width="6" height="6"/></g>
<g transform="translate(497.375,106.375) scale(3.9483333333333)"><rect width="6" height="6"/></g>
<g transform="translate(543.375,106.375) scale(3.9483333333333)"><rect width="6" height="6"/></g>
<g transform="translate(566.375,106.375) scale(3.9483333333333)"><rect width="6" height="6"/></g>
<g transform="translate(612.375,106.375) scale(3.9483333333333)"><rect width="6" height="6"/></g>
<g transform="translate(635.375,106.375) scale(3.9483333333333)"><rect width="6" height="6"/></g>
<g transform="translate(681.375,106.375) scale(3.9483333333333)"><rect width="6" height="6"/></g>
<g transform="translate(750.375,106.375) scale(3.9483333333333)"><rect width="6" height="6"/></g>
<g transform="translate(290.375,129.375) scale(3.9483333333333)"><rect width="6" height="6"/></g>
<g transform="translate(336.375,129.375) scale(3.9483333333333)"><rect width="6" height="6"/></g>
<g transform="translate(451.375,129.375) scale(3.9483333333333)"><rect width="6" height="6"/></g>
<g transform="translate(589.375,129.375) scale(3.9483333333333)"><rect width="6" height="6"/></g>
<g transform="translate(635.375,129.375) scale(3.9483333333333)"><rect width="6" height="6"/></g>
<g transform="translate(658.375,129.375) scale(3.9483333333333)"><rect width="6" height="6"/></g>
<g transform="translate(681.375,129.375) scale(3.9483333333333)"><rect width="6" height="6"/></g>
<g transform="translate(704.375,129.375) scale(3.9483333333333)"><rect width="6" height="6"/></g>
<g transform="translate(727.375,129.375) scale(3.9483333333333)"><rect width="6" height="6"/></g>
<g transform="translate(290.375,152.375) scale(3.9483333333333)"><rect width="6" height="6"/></g>
<g transform="translate(313.375,152.375) scale(3.9483333333333)"><rect width="6" height="6"/></g>
<g transform="translate(382.375,152.375) scale(3.9483333333333)"><rect width="6" height="6"/></g>
<g transform="translate(405.375,152.375) scale(3.9483333333333)"><rect width="6" height="6"/></g>
<g transform="translate(428.375,152.375) scale(3.9483333333333)"><rect width="6" height="6"/></g>
<g transform="translate(451.375,152.375) scale(3.9483333333333)"><rect width="6" height="6"/></g>
<g transform="translate(497.375,152.375) scale(3.9483333333333)"><rect width="6" height="6"/></g>
<g transform="translate(520.375,152.375) scale(3.9483333333333)"><rect width="6" height="6"/></g>
<g transform="translate(543.375,152.375) scale(3.9483333333333)"><rect width="6" height="6"/></g>
<g transform="translate(566.375,152.375) scale(3.9483333333333)"><rect width="6" height="6"/></g>
<g transform="translate(589.375,152.375) scale(3.9483333333333)"><rect width="6" height="6"/></g>
<g transform="translate(612.375,152.375) scale(3.9483333333333)"><rect width="6" height="6"/></g>
<g transform="translate(658.375,152.375) scale(3.9483333333333)"><rect width="6" height="6"/></g>
<g transform="translate(727.375,152.375) scale(3.9483333333333)"><rect width="6" height="6"/></g>
<g transform="translate(382.375,175.375) scale(3.9483333333333)"><rect width="6" height="6"/></g>
<g transform="translate(405.375,175.375) scale(3.9483333333333)"><rect width="6" height="6"/></g>
<g transform="translate(474.375,175.375) scale(3.9483333333333)"><rect width="6" height="6"/></g>
<g transform="translate(520.375,175.375) scale(3.9483333333333)"><rect width="6" height="6"/></g>
<g transform="translate(543.375,175.375) scale(3.9483333333333)"><rect width="6" height="6"/></g>
<g transform="translate(566.375,175.375) scale(3.9483333333333)"><rect width="6" height="6"/></g>
<g transform="translate(589.375,175.375) scale(3.9483333333333)"><rect width="6" height="6"/></g>
<g transform="translate(681.375,175.375) scale(3.9483333333333)"><rect width="6" height="6"/></g>
<g transform="translate(704.375,175.375) scale(3.9483333333333)"><rect width="6" height="6"/></g>
<g transform="translate(428.375,198.375) scale(3.9483333333333)"><rect width="6" height="6"/></g>
<g transform="translate(451.375,198.375) scale(3.9483333333333)"><rect width="6" height="6"/></g>
<g transform="translate(520.375,198.375) scale(3.9483333333333)"><rect width="6" height="6"/></g>
<g transform="translate(543.375,198.375) scale(3.9483333333333)"><rect width="6" height="6"/></g>
<g transform="translate(658.375,198.375) scale(3.9483333333333)"><rect width="6" height="6"/></g>
<g transform="translate(704.375,198.375) scale(3.9483333333333)"><rect width="6" height="6"/></g>
<g transform="translate(290.375,221.375) scale(3.9483333333333)"><rect width="6" height="6"/></g>
<g transform="translate(382.375,221.375) scale(3.9483333333333)"><rect width="6" height="6"/></g>
<g transform="translate(543.375,221.375) scale(3.9483333333333)"><rect width="6" height="6"/></g>
<g transform="translate(566.375,221.375) scale(3.9483333333333)"><rect width="6" height="6"/></g>
<g transform="translate(658.375,221.375) scale(3.9483333333333)"><rect width="6" height="6"/></g>
<g transform="translate(727.375,221.375) scale(3.9483333333333)"><rect width="6" height="6"/></g>
<g transform="translate(750.375,221.375) scale(3.9483333333333)"><rect width="6" height="6"/></g>
<g transform="translate(290.375,244.375) scale(3.9483333333333)"><rect width="6" height="6"/></g>
<g transform="translate(336.375,244.375) scale(3.9483333333333)"><rect width="6" height="6"/></g>
<g transform="translate(382.375,244.375) scale(3.9483333333333)"><rect width="6" height="6"/></g>
<g transform="translate(428.375,244.375) scale(3.9483333333333)"><rect width="6" height="6"/></g>
<g transform="translate(474.375,244.375) scale(3.9483333333333)"><rect width="6" height="6"/></g>
<g transform="translate(520.375,244.375) scale(3.9483333333333)"><rect width="6" height="6"/></g>
<g transform="translate(566.375,244.375) scale(3.9483333333333)"><rect width="6" height="6"/></g>
<g transform="translate(612.375,244.375) scale(3.9483333333333)"><rect width="6" height="6"/></g>
<g transform="translate(658.375,244.375) scale(3.9483333333333)"><rect width="6" height="6"/></g>
<g transform="translate(704.375,244.375) scale(3.9483333333333)"><rect width="6" height="6"/></g>
<g transform="translate(750.375,244.375) scale(3.9483333333333)"><rect width="6" height="6"/></g>
<g transform="translate(290.375,267.375) scale(3.9483333333333)"><rect width="6" height="6"/></g>
<g transform="translate(336.375,267.375) scale(3.9483333333333)"><rect width="6" height="6"/></g>
<g transform="translate(359.375,267.375) scale(3.9483333333333)"><rect width="6" height="6"/></g>
<g transform="translate(405.375,267.375) scale(3.9483333333333)"><rect width="6" height="6"/></g>
<g transform="translate(428.375,267.375) scale(3.9483333333333)"><rect width="6" height="6"/></g>
<g transform="translate(451.375,267.375) scale(3.9483333333333)"><rect width="6" height="6"/></g>
<g transform="translate(474.375,267.375) scale(3.9483333333333)"><rect width="6" height="6"/></g>
<g transform="translate(566.375,267.375) scale(3.9483333333333)"><rect width="6" height="6"/></g>
<g transform="translate(635.375,267.375) scale(3.9483333333333)"><rect width="6" height="6"/></g>
<g transform="translate(704.375,267.375) scale(3.9483333333333)"><rect width="6" height="6"/></g>
<g transform="translate(750.375,267.375) scale(3.9483333333333)"><rect width="6" height="6"/></g>
<g transform="translate(152.375,290.375) scale(3.9483333333333)"><rect width="6" height="6"/></g>
<g transform="translate(175.375,290.375) scale(3.9483333333333)"><rect width="6" height="6"/></g>
<g transform="translate(198.375,290.375) scale(3.9483333333333)"><rect width="6" height="6"/></g>
<g transform="translate(244.375,290.375) scale(3.9483333333333)"><rect width="6" height="6"/></g>
<g transform="translate(290.375,290.375) scale(3.9483333333333)"><rect width="6" height="6"/></g>
<g transform="translate(359.375,290.375) scale(3.9483333333333)"><rect width="6" height="6"/></g>
<g transform="translate(451.375,290.375) scale(3.9483333333333)"><rect width="6" height="6"/></g>
<g transform="translate(474.375,290.375) scale(3.9483333333333)"><rect width="6" height="6"/></g>
<g transform="translate(520.375,290.375) scale(3.9483333333333)"><rect width="6" height="6"/></g>
<g transform="translate(543.375,290.375) scale(3.9483333333333)"><rect width="6" height="6"/></g>
<g transform="translate(589.375,290.375) scale(3.9483333333333)"><rect width="6" height="6"/></g>
<g transform="translate(612.375,290.375) scale(3.9483333333333)"><rect width="6" height="6"/></g>
<g transform="translate(635.375,290.375) scale(3.9483333333333)"><rect width="6" height="6"/></g>
<g transform="translate(773.375,290.375) scale(3.9483333333333)"><rect width="6" height="6"/></g>
<g transform="translate(796.375,290.375) scale(3.9483333333333)"><rect width="6" height="6"/></g>
<g transform="translate(819.375,290.375) scale(3.9483333333333)"><rect width="6" height="6"/></g>
<g transform="translate(888.375,290.375) scale(3.9483333333333)"><rect width="6" height="6"/></g>
<g transform="translate(911.375,290.375) scale(3.9483333333333)"><rect width="6" height="6"/></g>
<g transform="translate(934.375,290.375) scale(3.9483333333333)"><rect width="6" height="6"/></g>
<g transform="translate(129.375,313.375) scale(3.9483333333333)"><rect width="6" height="6"/></g>
<g transform="translate(152.375,313.375) scale(3.9483333333333)"><rect width="6" height="6"/></g>
<g transform="translate(175.375,313.375) scale(3.9483333333333)"><rect width="6" height="6"/></g>
<g transform="translate(198.375,313.375) scale(3.9483333333333)"><rect width="6" height="6"/></g>
<g transform="translate(221.375,313.375) scale(3.9483333333333)"><rect width="6" height="6"/></g>
<g transform="translate(359.375,313.375) scale(3.9483333333333)"><rect width="6" height="6"/></g>
<g transform="translate(382.375,313.375) scale(3.9483333333333)"><rect width="6" height="6"/></g>
<g transform="translate(428.375,313.375) scale(3.9483333333333)"><rect width="6" height="6"/></g>
<g transform="translate(566.375,313.375) scale(3.9483333333333)"><rect width="6" height="6"/></g>
<g transform="translate(635.375,313.375) scale(3.9483333333333)"><rect width="6" height="6"/></g>
<g transform="translate(681.375,313.375) scale(3.9483333333333)"><rect width="6" height="6"/></g>
<g transform="translate(704.375,313.375) scale(3.9483333333333)"><rect width="6" height="6"/></g>
<g transform="translate(727.375,313.375) scale(3.9483333333333)"><rect width="6" height="6"/></g>
<g transform="translate(750.375,313.375) scale(3.9483333333333)"><rect width="6" height="6"/></g>
<g transform="translate(819.375,313.375) scale(3.9483333333333)"><rect width="6" height="6"/></g>
<g transform="translate(129.375,336.375) scale(3.9483333333333)"><rect width="6" height="6"/></g>
<g transform="translate(198.375,336.375) scale(3.9483333333333)"><rect width="6" height="6"/></g>
<g transform="translate(221.375,336.375) scale(3.9483333333333)"><rect width="6" height="6"/></g>
<g transform="translate(244.375,336.375) scale(3.9483333333333)"><rect width="6" height="6"/></g>
<g transform="translate(290.375,336.375) scale(3.9483333333333)"><rect width="6" height="6"/></g>
<g transform="translate(313.375,336.375) scale(3.9483333333333)"><rect width="6" height="6"/></g>
<g transform="translate(336.375,336.375) scale(3.9483333333333)"><rect width="6" height="6"/></g>
<g transform="translate(359.375,336.375) scale(3.9483333333333)"><rect width="6" height="6"/></g>
<g transform="translate(382.375,336.375) scale(3.9483333333333)"><rect width="6" height="6"/></g>
<g transform="translate(497.375,336.375) scale(3.9483333333333)"><rect width="6" height="6"/></g>
<g transform="translate(520.375,336.375) scale(3.9483333333333)"><rect width="6" height="6"/></g>
<g transform="translate(543.375,336.375) scale(3.9483333333333)"><rect width="6" height="6"/></g>
<g transform="translate(566.375,336.375) scale(3.9483333333333)"><rect width="6" height="6"/></g>
<g transform="translate(612.375,336.375) scale(3.9483333333333)"><rect width="6" height="6"/></g>
<g transform="translate(635.375,336.375) scale(3.9483333333333)"><rect width="6" height="6"/></g>
<g transform="translate(681.375,336.375) scale(3.9483333333333)"><rect width="6" height="6"/></g>
<g transform="translate(704.375,336.375) scale(3.9483333333333)"><rect width="6" height="6"/></g>
<g transform="translate(796.375,336.375) scale(3.9483333333333)"><rect width="6" height="6"/></g>
<g transform="translate(888.375,336.375) scale(3.9483333333333)"><rect width="6" height="6"/></g>
<g transform="translate(911.375,336.375) scale(3.9483333333333)"><rect width="6" height="6"/></g>
<g transform="translate(934.375,336.375) scale(3.9483333333333)"><rect width="6" height="6"/></g>
<g transform="translate(129.375,359.375) scale(3.9483333333333)"><rect width="6" height="6"/></g>
<g transform="translate(152.375,359.375) scale(3.9483333333333)"><rect width="6" height="6"/></g>
<g transform="translate(198.375,359.375) scale(3.9483333333333)"><rect width="6" height="6"/></g>
<g transform="translate(267.375,359.375) scale(3.9483333333333)"><rect width="6" height="6"/></g>
<g transform="translate(290.375,359.375) scale(3.9483333333333)"><rect width="6" height="6"/></g>
<g transform="translate(313.375,359.375) scale(3.9483333333333)"><rect width="6" height="6"/></g>
<g transform="translate(359.375,359.375) scale(3.9483333333333)"><rect width="6" height="6"/></g>
<g transform="translate(382.375,359.375) scale(3.9483333333333)"><rect width="6" height="6"/></g>
<g transform="translate(405.375,359.375) scale(3.9483333333333)"><rect width="6" height="6"/></g>
<g transform="translate(428.375,359.375) scale(3.9483333333333)"><rect width="6" height="6"/></g>
<g transform="translate(451.375,359.375) scale(3.9483333333333)"><rect width="6" height="6"/></g>
<g transform="translate(474.375,359.375) scale(3.9483333333333)"><rect width="6" height="6"/></g>
<g transform="translate(566.375,359.375) scale(3.9483333333333)"><rect width="6" height="6"/></g>
<g transform="translate(589.375,359.375) scale(3.9483333333333)"><rect width="6" height="6"/></g>
<g transform="translate(658.375,359.375) scale(3.9483333333333)"><rect width="6" height="6"/></g>
<g transform="translate(704.375,359.375) scale(3.9483333333333)"><rect width="6" height="6"/></g>
<g transform="translate(750.375,359.375) scale(3.9483333333333)"><rect width="6" height="6"/></g>
<g transform="translate(796.375,359.375) scale(3.9483333333333)"><rect width="6" height="6"/></g>
<g transform="translate(819.375,359.375) scale(3.9483333333333)"><rect width="6" height="6"/></g>
<g transform="translate(934.375,359.375) scale(3.9483333333333)"><rect width="6" height="6"/></g>
<g transform="translate(106.375,382.375) scale(3.9483333333333)"><rect width="6" height="6"/></g>
<g transform="translate(129.375,382.375) scale(3.9483333333333)"><rect width="6" height="6"/></g>
<g transform="translate(152.375,382.375) scale(3.9483333333333)"><rect width="6" height="6"/></g>
<g transform="translate(175.375,382.375) scale(3.9483333333333)"><rect width="6" height="6"/></g>
<g transform="translate(198.375,382.375) scale(3.9483333333333)"><rect width="6" height="6"/></g>
<g transform="translate(244.375,382.375) scale(3.9483333333333)"><rect width="6" height="6"/></g>
<g transform="translate(267.375,382.375) scale(3.9483333333333)"><rect width="6" height="6"/></g>
<g transform="translate(290.375,382.375) scale(3.9483333333333)"><rect width="6" height="6"/></g>
<g transform="translate(313.375,382.375) scale(3.9483333333333)"><rect width="6" height="6"/></g>
<g transform="translate(405.375,382.375) scale(3.9483333333333)"><rect width="6" height="6"/></g>
<g transform="translate(428.375,382.375) scale(3.9483333333333)"><rect width="6" height="6"/></g>
<g transform="translate(497.375,382.375) scale(3.9483333333333)"><rect width="6" height="6"/></g>
<g transform="translate(589.375,382.375) scale(3.9483333333333)"><rect width="6" height="6"/></g>
<g transform="translate(612.375,382.375) scale(3.9483333333333)"><rect width="6" height="6"/></g>
<g transform="translate(681.375,382.375) scale(3.9483333333333)"><rect width="6" height="6"/></g>
<g transform="translate(704.375,382.375) scale(3.9483333333333)"><rect width="6" height="6"/></g>
<g transform="translate(773.375,382.375) scale(3.9483333333333)"><rect width="6" height="6"/></g>
<g transform="translate(796.375,382.375) scale(3.9483333333333)"><rect width="6" height="6"/></g>
<g transform="translate(842.375,382.375) scale(3.9483333333333)"><rect width="6" height="6"/></g>
<g transform="translate(888.375,382.375) scale(3.9483333333333)"><rect width="6" height="6"/></g>
<g transform="translate(911.375,382.375) scale(3.9483333333333)"><rect width="6" height="6"/></g>
<g transform="translate(934.375,382.375) scale(3.9483333333333)"><rect width="6" height="6"/></g>
<g transform="translate(106.375,405.375) scale(3.9483333333333)"><rect width="6" height="6"/></g>
<g transform="translate(129.375,405.375) scale(3.9483333333333)"><rect width="6" height="6"/></g>
<g transform="translate(175.375,405.375) scale(3.9483333333333)"><rect width="6" height="6"/></g>
<g transform="translate(336.375,405.375) scale(3.9483333333333)"><rect width="6" height="6"/></g>
<g transform="translate(405.375,405.375) scale(3.9483333333333)"><rect width="6" height="6"/></g>
<g transform="translate(428.375,405.375) scale(3.9483333333333)"><rect width="6" height="6"/></g>
<g transform="translate(543.375,405.375) scale(3.9483333333333)"><rect width="6" height="6"/></g>
<g transform="translate(612.375,405.375) scale(3.9483333333333)"><rect width="6" height="6"/></g>
<g transform="translate(658.375,405.375) scale(3.9483333333333)"><rect width="6" height="6"/></g>
<g transform="translate(704.375,405.375) scale(3.9483333333333)"><rect width="6" height="6"/></g>
<g transform="translate(750.375,405.375) scale(3.9483333333333)"><rect width="6" height="6"/></g>
<g transform="translate(773.375,405.375) scale(3.9483333333333)"><rect width="6" height="6"/></g>
<g transform="translate(819.375,405.375) scale(3.9483333333333)"><rect width="6" height="6"/></g>
<g transform="translate(865.375,405.375) scale(3.9483333333333)"><rect width="6" height="6"/></g>
<g transform="translate(888.375,405.375) scale(3.9483333333333)"><rect width="6" height="6"/></g>
<g transform="translate(106.375,428.375) scale(3.9483333333333)"><rect width="6" height="6"/></g>
<g transform="translate(198.375,428.375) scale(3.9483333333333)"><rect width="6" height="6"/></g>
<g transform="translate(221.375,428.375) scale(3.9483333333333)"><rect width="6" height="6"/></g>
<g transform="translate(244.375,428.375) scale(3.9483333333333)"><rect width="6" height="6"/></g>
<g transform="translate(267.375,428.375) scale(3.9483333333333)"><rect width="6" height="6"/></g>
<g transform="translate(290.375,428.375) scale(3.9483333333333)"><rect width="6" height="6"/></g>
<g transform="translate(313.375,428.375) scale(3.9483333333333)"><rect width="6" height="6"/></g>
<g transform="translate(336.375,428.375) scale(3.9483333333333)"><rect width="6" height="6"/></g>
<g transform="translate(428.375,428.375) scale(3.9483333333333)"><rect width="6" height="6"/></g>
<g transform="translate(451.375,428.375) scale(3.9483333333333)"><rect width="6" height="6"/></g>
<g transform="translate(497.375,428.375) scale(3.9483333333333)"><rect width="6" height="6"/></g>
<g transform="translate(543.375,428.375) scale(3.9483333333333)"><rect width="6" height="6"/></g>
<g transform="translate(566.375,428.375) scale(3.9483333333333)"><rect width="6" height="6"/></g>
<g transform="translate(589.375,428.375) scale(3.9483333333333)"><rect width="6" height="6"/></g>
<g transform="translate(635.375,428.375) scale(3.9483333333333)"><rect width="6" height="6"/></g>
<g transform="translate(658.375,428.375) scale(3.9483333333333)"><rect width="6" height="6"/></g>
<g transform="translate(704.375,428.375) scale(3.9483333333333)"><rect width="6" height="6"/></g>
<g transform="translate(727.375,428.375) scale(3.9483333333333)"><rect width="6" height="6"/></g>
<g transform="translate(750.375,428.375) scale(3.9483333333333)"><rect width="6" height="6"/></g>
<g transform="translate(796.375,428.375) scale(3.9483333333333)"><rect width="6" height="6"/></g>
<g transform="translate(842.375,428.375) scale(3.9483333333333)"><rect width="6" height="6"/></g>
<g transform="translate(865.375,428.375) scale(3.9483333333333)"><rect width="6" height="6"/></g>
<g transform="translate(911.375,428.375) scale(3.9483333333333)"><rect width="6" height="6"/></g>
<g transform="translate(934.375,428.375) scale(3.9483333333333)"><rect width="6" height="6"/></g>
<g transform="translate(152.375,451.375) scale(3.9483333333333)"><rect width="6" height="6"/></g>
<g transform="translate(221.375,451.375) scale(3.9483333333333)"><rect width="6" height="6"/></g>
<g transform="translate(290.375,451.375) scale(3.9483333333333)"><rect width="6" height="6"/></g>
<g transform="translate(313.375,451.375) scale(3.9483333333333)"><rect width="6" height="6"/></g>
<g transform="translate(336.375,451.375) scale(3.9483333333333)"><rect width="6" height="6"/></g>
<g transform="translate(382.375,451.375) scale(3.9483333333333)"><rect width="6" height="6"/></g>
<g transform="translate(405.375,451.375) scale(3.9483333333333)"><rect width="6" height="6"/></g>
<g transform="translate(451.375,451.375) scale(3.9483333333333)"><rect width="6" height="6"/></g>
<g transform="translate(612.375,451.375) scale(3.9483333333333)"><rect width="6" height="6"/></g>
<g transform="translate(658.375,451.375) scale(3.9483333333333)"><rect width="6" height="6"/></g>
<g transform="translate(704.375,451.375) scale(3.9483333333333)"><rect width="6" height="6"/></g>
<g transform="translate(750.375,451.375) scale(3.9483333333333)"><rect width="6" height="6"/></g>
<g transform="translate(911.375,451.375) scale(3.9483333333333)"><rect width="6" height="6"/></g>
<g transform="translate(934.375,451.375) scale(3.9483333333333)"><rect width="6" height="6"/></g>
<g transform="translate(106.375,474.375) scale(3.9483333333333)"><rect width="6" height="6"/></g>
<g transform="translate(129.375,474.375) scale(3.9483333333333)"><rect width="6" height="6"/></g>
<g transform="translate(152.375,474.375) scale(3.9483333333333)"><rect width="6" height="6"/></g>
<g transform="translate(175.375,474.375) scale(3.9483333333333)"><rect width="6" height="6"/></g>
<g transform="translate(198.375,474.375) scale(3.9483333333333)"><rect width="6" height="6"/></g>
<g transform="translate(244.375,474.375) scale(3.9483333333333)"><rect width="6" height="6"/></g>
<g transform="translate(290.375,474.375) scale(3.9483333333333)"><rect width="6" height="6"/></g>
<g transform="translate(313.375,474.375) scale(3.9483333333333)"><rect width="6" height="6"/></g>
<g transform="translate(336.375,474.375) scale(3.9483333333333)"><rect width="6" height="6"/></g>
<g transform="translate(359.375,474.375) scale(3.9483333333333)"><rect width="6" height="6"/></g>
<g transform="translate(405.375,474.375) scale(3.9483333333333)"><rect width="6" height="6"/></g>
<g transform="translate(451.375,474.375) scale(3.9483333333333)"><rect width="6" height="6"/></g>
<g transform="translate(474.375,474.375) scale(3.9483333333333)"><rect width="6" height="6"/></g>
<g transform="translate(520.375,474.375) scale(3.9483333333333)"><rect width="6" height="6"/></g>
<g transform="translate(566.375,474.375) scale(3.9483333333333)"><rect width="6" height="6"/></g>
<g transform="translate(589.375,474.375) scale(3.9483333333333)"><rect width="6" height="6"/></g>
<g transform="translate(635.375,474.375) scale(3.9483333333333)"><rect width="6" height="6"/></g>
<g transform="translate(681.375,474.375) scale(3.9483333333333)"><rect width="6" height="6"/></g>
<g transform="translate(704.375,474.375) scale(3.9483333333333)"><rect width="6" height="6"/></g>
<g transform="translate(773.375,474.375) scale(3.9483333333333)"><rect width="6" height="6"/></g>
<g transform="translate(796.375,474.375) scale(3.9483333333333)"><rect width="6" height="6"/></g>
<g transform="translate(819.375,474.375) scale(3.9483333333333)"><rect width="6" height="6"/></g>
<g transform="translate(842.375,474.375) scale(3.9483333333333)"><rect width="6" height="6"/></g>
<g transform="translate(888.375,474.375) scale(3.9483333333333)"><rect width="6" height="6"/></g>
<g transform="translate(106.375,497.375) scale(3.9483333333333)"><rect width="6" height="6"/></g>
<g transform="translate(175.375,497.375) scale(3.9483333333333)"><rect width="6" height="6"/></g>
<g transform="translate(290.375,497.375) scale(3.9483333333333)"><rect width="6" height="6"/></g>
<g transform="translate(405.375,497.375) scale(3.9483333333333)"><rect width="6" height="6"/></g>
<g transform="translate(451.375,497.375) scale(3.9483333333333)"><rect width="6" height="6"/></g>
<g transform="translate(497.375,497.375) scale(3.9483333333333)"><rect width="6" height="6"/></g>
<g transform="translate(589.375,497.375) scale(3.9483333333333)"><rect width="6" height="6"/></g>
<g transform="translate(612.375,497.375) scale(3.9483333333333)"><rect width="6" height="6"/></g>
<g transform="translate(635.375,497.375) scale(3.9483333333333)"><rect width="6" height="6"/></g>
<g transform="translate(658.375,497.375) scale(3.9483333333333)"><rect width="6" height="6"/></g>
<g transform="translate(750.375,497.375) scale(3.9483333333333)"><rect width="6" height="6"/></g>
<g transform="translate(819.375,497.375) scale(3.9483333333333)"><rect width="6" height="6"/></g>
<g transform="translate(129.375,520.375) scale(3.9483333333333)"><rect width="6" height="6"/></g>
<g transform="translate(152.375,520.375) scale(3.9483333333333)"><rect width="6" height="6"/></g>
<g transform="translate(221.375,520.375) scale(3.9483333333333)"><rect width="6" height="6"/></g>
<g transform="translate(244.375,520.375) scale(3.9483333333333)"><rect width="6" height="6"/></g>
<g transform="translate(290.375,520.375) scale(3.9483333333333)"><rect width="6" height="6"/></g>
<g transform="translate(313.375,520.375) scale(3.9483333333333)"><rect width="6" height="6"/></g>
<g transform="translate(336.375,520.375) scale(3.9483333333333)"><rect width="6" height="6"/></g>
<g transform="translate(566.375,520.375) scale(3.9483333333333)"><rect width="6" height="6"/></g>
<g transform="translate(612.375,520.375) scale(3.9483333333333)"><rect width="6" height="6"/></g>
<g transform="translate(658.375,520.375) scale(3.9483333333333)"><rect width="6" height="6"/></g>
<g transform="translate(704.375,520.375) scale(3.9483333333333)"><rect width="6" height="6"/></g>
<g transform="translate(727.375,520.375) scale(3.9483333333333)"><rect width="6" height="6"/></g>
<g transform="translate(750.375,520.375) scale(3.9483333333333)"><rect width="6" height="6"/></g>
<g transform="translate(819.375,520.375) scale(3.9483333333333)"><rect width="6" height="6"/></g>
<g transform="translate(842.375,520.375) scale(3.9483333333333)"><rect width="6" height="6"/></g>
<g transform="translate(865.375,520.375) scale(3.9483333333333)"><rect width="6" height="6"/></g>
<g transform="translate(911.375,520.375) scale(3.9483333333333)"><rect width="6" height="6"/></g>
<g transform="translate(934.375,520.375) scale(3.9483333333333)"><rect width="6" height="6"/></g>
<g transform="translate(106.375,543.375) scale(3.9483333333333)"><rect width="6" height="6"/></g>
<g transform="translate(129.375,543.375) scale(3.9483333333333)"><rect width="6" height="6"/></g>
<g transform="translate(152.375,543.375) scale(3.9483333333333)"><rect width="6" height="6"/></g>
<g transform="translate(221.375,543.375) scale(3.9483333333333)"><rect width="6" height="6"/></g>
<g transform="translate(313.375,543.375) scale(3.9483333333333)"><rect width="6" height="6"/></g>
<g transform="translate(336.375,543.375) scale(3.9483333333333)"><rect width="6" height="6"/></g>
<g transform="translate(382.375,543.375) scale(3.9483333333333)"><rect width="6" height="6"/></g>
<g transform="translate(405.375,543.375) scale(3.9483333333333)"><rect width="6" height="6"/></g>
<g transform="translate(497.375,543.375) scale(3.9483333333333)"><rect width="6" height="6"/></g>
<g transform="translate(520.375,543.375) scale(3.9483333333333)"><rect width="6" height="6"/></g>
<g transform="translate(566.375,543.375) scale(3.9483333333333)"><rect width="6" height="6"/></g>
<g transform="translate(589.375,543.375) scale(3.9483333333333)"><rect width="6" height="6"/></g>
<g transform="translate(612.375,543.375) scale(3.9483333333333)"><rect width="6" height="6"/></g>
<g transform="translate(635.375,543.375) scale(3.9483333333333)"><rect width="6" height="6"/></g>
<g transform="translate(658.375,543.375) scale(3.9483333333333)"><rect width="6" height="6"/></g>
<g transform="translate(750.375,543.375) scale(3.9483333333333)"><rect width="6" height="6"/></g>
<g transform="translate(773.375,543.375) scale(3.9483333333333)"><rect width="6" height="6"/></g>
<g transform="translate(796.375,543.375) scale(3.9483333333333)"><rect width="6" height="6"/></g>
<g transform="translate(819.375,543.375) scale(3.9483333333333)"><rect width="6" height="6"/></g>
<g transform="translate(842.375,543.375) scale(3.9483333333333)"><rect width="6" height="6"/></g>
<g transform="translate(865.375,543.375) scale(3.9483333333333)"><rect width="6" height="6"/></g>
<g transform="translate(911.375,543.375) scale(3.9483333333333)"><rect width="6" height="6"/></g>
<g transform="translate(106.375,566.375) scale(3.9483333333333)"><rect width="6" height="6"/></g>
<g transform="translate(152.375,566.375) scale(3.9483333333333)"><rect width="6" height="6"/></g>
<g transform="translate(175.375,566.375) scale(3.9483333333333)"><rect width="6" height="6"/></g>
<g transform="translate(221.375,566.375) scale(3.9483333333333)"><rect width="6" height="6"/></g>
<g transform="translate(244.375,566.375) scale(3.9483333333333)"><rect width="6" height="6"/></g>
<g transform="translate(267.375,566.375) scale(3.9483333333333)"><rect width="6" height="6"/></g>
<g transform="translate(290.375,566.375) scale(3.9483333333333)"><rect width="6" height="6"/></g>
<g transform="translate(336.375,566.375) scale(3.9483333333333)"><rect width="6" height="6"/></g>
<g transform="translate(359.375,566.375) scale(3.9483333333333)"><rect width="6" height="6"/></g>
<g transform="translate(382.375,566.375) scale(3.9483333333333)"><rect width="6" height="6"/></g>
<g transform="translate(405.375,566.375) scale(3.9483333333333)"><rect width="6" height="6"/></g>
<g transform="translate(497.375,566.375) scale(3.9483333333333)"><rect width="6" height="6"/></g>
<g transform="translate(520.375,566.375) scale(3.9483333333333)"><rect width="6" height="6"/></g>
<g transform="translate(543.375,566.375) scale(3.9483333333333)"><rect width="6" height="6"/></g>
<g transform="translate(566.375,566.375) scale(3.9483333333333)"><rect width="6" height="6"/></g>
<g transform="translate(589.375,566.375) scale(3.9483333333333)"><rect width="6" height="6"/></g>
<g transform="translate(635.375,566.375) scale(3.9483333333333)"><rect width="6" height="6"/></g>
<g transform="translate(681.375,566.375) scale(3.9483333333333)"><rect width="6" height="6"/></g>
<g transform="translate(704.375,566.375) scale(3.9483333333333)"><rect width="6" height="6"/></g>
<g transform="translate(796.375,566.375) scale(3.9483333333333)"><rect width="6" height="6"/></g>
<g transform="translate(819.375,566.375) scale(3.9483333333333)"><rect width="6" height="6"/></g>
<g transform="translate(842.375,566.375) scale(3.9483333333333)"><rect width="6" height="6"/></g>
<g transform="translate(865.375,566.375) scale(3.9483333333333)"><rect width="6" height="6"/></g>
<g transform="translate(888.375,566.375) scale(3.9483333333333)"><rect width="6" height="6"/></g>
<g transform="translate(911.375,566.375) scale(3.9483333333333)"><rect width="6" height="6"/></g>
<g transform="translate(934.375,566.375) scale(3.9483333333333)"><rect width="6" height="6"/></g>
<g transform="translate(152.375,589.375) scale(3.9483333333333)"><rect width="6" height="6"/></g>
<g transform="translate(221.375,589.375) scale(3.9483333333333)"><rect width="6" height="6"/></g>
<g transform="translate(267.375,589.375) scale(3.9483333333333)"><rect width="6" height="6"/></g>
<g transform="translate(290.375,589.375) scale(3.9483333333333)"><rect width="6" height="6"/></g>
<g transform="translate(313.375,589.375) scale(3.9483333333333)"><rect width="6" height="6"/></g>
<g transform="translate(359.375,589.375) scale(3.9483333333333)"><rect width="6" height="6"/></g>
<g transform="translate(382.375,589.375) scale(3.9483333333333)"><rect width="6" height="6"/></g>
<g transform="translate(428.375,589.375) scale(3.9483333333333)"><rect width="6" height="6"/></g>
<g transform="translate(451.375,589.375) scale(3.9483333333333)"><rect width="6" height="6"/></g>
<g transform="translate(474.375,589.375) scale(3.9483333333333)"><rect width="6" height="6"/></g>
<g transform="translate(497.375,589.375) scale(3.9483333333333)"><rect width="6" height="6"/></g>
<g transform="translate(543.375,589.375) scale(3.9483333333333)"><rect width="6" height="6"/></g>
<g transform="translate(566.375,589.375) scale(3.9483333333333)"><rect width="6" height="6"/></g>
<g transform="translate(589.375,589.375) scale(3.9483333333333)"><rect width="6" height="6"/></g>
<g transform="translate(681.375,589.375) scale(3.9483333333333)"><rect width="6" height="6"/></g>
<g transform="translate(819.375,589.375) scale(3.9483333333333)"><rect width="6" height="6"/></g>
<g transform="translate(865.375,589.375) scale(3.9483333333333)"><rect width="6" height="6"/></g>
<g transform="translate(888.375,589.375) scale(3.9483333333333)"><rect width="6" height="6"/></g>
<g transform="translate(129.375,612.375) scale(3.9483333333333)"><rect width="6" height="6"/></g>
<g transform="translate(152.375,612.375) scale(3.9483333333333)"><rect width="6" height="6"/></g>
<g transform="translate(175.375,612.375) scale(3.9483333333333)"><rect width="6" height="6"/></g>
<g transform="translate(198.375,612.375) scale(3.9483333333333)"><rect width="6" height="6"/></g>
<g transform="translate(244.375,612.375) scale(3.9483333333333)"><rect width="6" height="6"/></g>
<g transform="translate(290.375,612.375) scale(3.9483333333333)"><rect width="6" height="6"/></g>
<g transform="translate(382.375,612.375) scale(3.9483333333333)"><rect width="6" height="6"/></g>
<g transform="translate(405.375,612.375) scale(3.9483333333333)"><rect width="6" height="6"/></g>
<g transform="translate(428.375,612.375) scale(3.9483333333333)"><rect width="6" height="6"/></g>
<g transform="translate(451.375,612.375) scale(3.9483333333333)"><rect width="6" height="6"/></g>
<g transform="translate(497.375,612.375) scale(3.9483333333333)"><rect width="6" height="6"/></g>
<g transform="translate(520.375,612.375) scale(3.9483333333333)"><rect width="6" height="6"/></g>
<g transform="translate(543.375,612.375) scale(3.9483333333333)"><rect width="6" height="6"/></g>
<g transform="translate(566.375,612.375) scale(3.9483333333333)"><rect width="6" height="6"/></g>
<g transform="translate(635.375,612.375) scale(3.9483333333333)"><rect width="6" height="6"/></g>
<g transform="translate(681.375,612.375) scale(3.9483333333333)"><rect width="6" height="6"/></g>
<g transform="translate(704.375,612.375) scale(3.9483333333333)"><rect width="6" height="6"/></g>
<g transform="translate(727.375,612.375) scale(3.9483333333333)"><rect width="6" height="6"/></g>
<g transform="translate(773.375,612.375) scale(3.9483333333333)"><rect width="6" height="6"/></g>
<g transform="translate(865.375,612.375) scale(3.9483333333333)"><rect width="6" height="6"/></g>
<g transform="translate(911.375,612.375) scale(3.9483333333333)"><rect width="6" height="6"/></g>
<g transform="translate(934.375,612.375) scale(3.9483333333333)"><rect width="6" height="6"/></g>
<g transform="translate(129.375,635.375) scale(3.9483333333333)"><rect width="6" height="6"/></g>
<g transform="translate(198.375,635.375) scale(3.9483333333333)"><rect width="6" height="6"/></g>
<g transform="translate(221.375,635.375) scale(3.9483333333333)"><rect width="6" height="6"/></g>
<g transform="translate(267.375,635.375) scale(3.9483333333333)"><rect width="6" height="6"/></g>
<g transform="translate(290.375,635.375) scale(3.9483333333333)"><rect width="6" height="6"/></g>
<g transform="translate(313.375,635.375) scale(3.9483333333333)"><rect width="6" height="6"/></g>
<g transform="translate(336.375,635.375) scale(3.9483333333333)"><rect width="6" height="6"/></g>
<g transform="translate(359.375,635.375) scale(3.9483333333333)"><rect width="6" height="6"/></g>
<g transform="translate(382.375,635.375) scale(3.9483333333333)"><rect width="6" height="6"/></g>
<g transform="translate(428.375,635.375) scale(3.9483333333333)"><rect width="6" height="6"/></g>
<g transform="translate(497.375,635.375) scale(3.9483333333333)"><rect width="6" height="6"/></g>
<g transform="translate(543.375,635.375) scale(3.9483333333333)"><rect width="6" height="6"/></g>
<g transform="translate(612.375,635.375) scale(3.9483333333333)"><rect width="6" height="6"/></g>
<g transform="translate(658.375,635.375) scale(3.9483333333333)"><rect width="6" height="6"/></g>
<g transform="translate(681.375,635.375) scale(3.9483333333333)"><rect width="6" height="6"/></g>
<g transform="translate(773.375,635.375) scale(3.9483333333333)"><rect width="6" height="6"/></g>
<g transform="translate(819.375,635.375) scale(3.9483333333333)"><rect width="6" height="6"/></g>
<g transform="translate(865.375,635.375) scale(3.9483333333333)"><rect width="6" height="6"/></g>
<g transform="translate(911.375,635.375) scale(3.9483333333333)"><rect width="6" height="6"/></g>
<g transform="translate(106.375,658.375) scale(3.9483333333333)"><rect width="6" height="6"/></g>
<g transform="translate(129.375,658.375) scale(3.9483333333333)"><rect width="6" height="6"/></g>
<g transform="translate(152.375,658.375) scale(3.9483333333333)"><rect width="6" height="6"/></g>
<g transform="translate(244.375,658.375) scale(3.9483333333333)"><rect width="6" height="6"/></g>
<g transform="translate(359.375,658.375) scale(3.9483333333333)"><rect width="6" height="6"/></g>
<g transform="translate(382.375,658.375) scale(3.9483333333333)"><rect width="6" height="6"/></g>
<g transform="translate(428.375,658.375) scale(3.9483333333333)"><rect width="6" height="6"/></g>
<g transform="translate(474.375,658.375) scale(3.9483333333333)"><rect width="6" height="6"/></g>
<g transform="translate(497.375,658.375) scale(3.9483333333333)"><rect width="6" height="6"/></g>
<g transform="translate(520.375,658.375) scale(3.9483333333333)"><rect width="6" height="6"/></g>
<g transform="translate(543.375,658.375) scale(3.9483333333333)"><rect width="6" height="6"/></g>
<g transform="translate(635.375,658.375) scale(3.9483333333333)"><rect width="6" height="6"/></g>
<g transform="translate(658.375,658.375) scale(3.9483333333333)"><rect width="6" height="6"/></g>
<g transform="translate(704.375,658.375) scale(3.9483333333333)"><rect width="6" height="6"/></g>
<g transform="translate(773.375,658.375) scale(3.9483333333333)"><rect width="6" height="6"/></g>
<g transform="translate(796.375,658.375) scale(3.9483333333333)"><rect width="6" height="6"/></g>
<g transform="translate(842.375,658.375) scale(3.9483333333333)"><rect width="6" height="6"/></g>
<g transform="translate(865.375,658.375) scale(3.9483333333333)"><rect width="6" height="6"/></g>
<g transform="translate(888.375,658.375) scale(3.9483333333333)"><rect width="6" height="6"/></g>
<g transform="translate(911.375,658.375) scale(3.9483333333333)"><rect width="6" height="6"/></g>
<g transform="translate(106.375,681.375) scale(3.9483333333333)"><rect width="6" height="6"/></g>
<g transform="translate(129.375,681.375) scale(3.9483333333333)"><rect width="6" height="6"/></g>
<g transform="translate(198.375,681.375) scale(3.9483333333333)"><rect width="6" height="6"/></g>
<g transform="translate(221.375,681.375) scale(3.9483333333333)"><rect width="6" height="6"/></g>
<g transform="translate(267.375,681.375) scale(3.9483333333333)"><rect width="6" height="6"/></g>
<g transform="translate(313.375,681.375) scale(3.9483333333333)"><rect width="6" height="6"/></g>
<g transform="translate(382.375,681.375) scale(3.9483333333333)"><rect width="6" height="6"/></g>
<g transform="translate(451.375,681.375) scale(3.9483333333333)"><rect width="6" height="6"/></g>
<g transform="translate(589.375,681.375) scale(3.9483333333333)"><rect width="6" height="6"/></g>
<g transform="translate(612.375,681.375) scale(3.9483333333333)"><rect width="6" height="6"/></g>
<g transform="translate(727.375,681.375) scale(3.9483333333333)"><rect width="6" height="6"/></g>
<g transform="translate(819.375,681.375) scale(3.9483333333333)"><rect width="6" height="6"/></g>
<g transform="translate(865.375,681.375) scale(3.9483333333333)"><rect width="6" height="6"/></g>
<g transform="translate(888.375,681.375) scale(3.9483333333333)"><rect width="6" height="6"/></g>
<g transform="translate(911.375,681.375) scale(3.9483333333333)"><rect width="6" height="6"/></g>
<g transform="translate(106.375,704.375) scale(3.9483333333333)"><rect width="6" height="6"/></g>
<g transform="translate(152.375,704.375) scale(3.9483333333333)"><rect width="6" height="6"/></g>
<g transform="translate(175.375,704.375) scale(3.9483333333333)"><rect width="6" height="6"/></g>
<g transform="translate(198.375,704.375) scale(3.9483333333333)"><rect width="6" height="6"/></g>
<g transform="translate(221.375,704.375) scale(3.9483333333333)"><rect width="6" height="6"/></g>
<g transform="translate(244.375,704.375) scale(3.9483333333333)"><rect width="6" height="6"/></g>
<g transform="translate(313.375,704.375) scale(3.9483333333333)"><rect width="6" height="6"/></g>
<g transform="translate(382.375,704.375) scale(3.9483333333333)"><rect width="6" height="6"/></g>
<g transform="translate(451.375,704.375) scale(3.9483333333333)"><rect width="6" height="6"/></g>
<g transform="translate(543.375,704.375) scale(3.9483333333333)"><rect width="6" height="6"/></g>
<g transform="translate(589.375,704.375) scale(3.9483333333333)"><rect width="6" height="6"/></g>
<g transform="translate(612.375,704.375) scale(3.9483333333333)"><rect width="6" height="6"/></g>
<g transform="translate(635.375,704.375) scale(3.9483333333333)"><rect width="6" height="6"/></g>
<g transform="translate(658.375,704.375) scale(3.9483333333333)"><rect width="6" height="6"/></g>
<g transform="translate(681.375,704.375) scale(3.9483333333333)"><rect width="6" height="6"/></g>
<g transform="translate(704.375,704.375) scale(3.9483333333333)"><rect width="6" height="6"/></g>
<g transform="translate(727.375,704.375) scale(3.9483333333333)"><rect width="6" height="6"/></g>
<g transform="translate(750.375,704.375) scale(3.9483333333333)"><rect width="6" height="6"/></g>
<g transform="translate(796.375,704.375) scale(3.9483333333333)"><rect width="6" height="6"/></g>
<g transform="translate(819.375,704.375) scale(3.9483333333333)"><rect width="6" height="6"/></g>
<g transform="translate(842.375,704.375) scale(3.9483333333333)"><rect width="6" height="6"/></g>
<g transform="translate(911.375,704.375) scale(3.9483333333333)"><rect width="6" height="6"/></g>
<g transform="translate(934.375,704.375) scale(3.9483333333333)"><rect width="6" height="6"/></g>
<g transform="translate(106.375,727.375) scale(3.9483333333333)"><rect width="6" height="6"/></g>
<g transform="translate(175.375,727.375) scale(3.9483333333333)"><rect width="6" height="6"/></g>
<g transform="translate(198.375,727.375) scale(3.9483333333333)"><rect width="6" height="6"/></g>
<g transform="translate(221.375,727.375) scale(3.9483333333333)"><rect width="6" height="6"/></g>
<g transform="translate(290.375,727.375) scale(3.9483333333333)"><rect width="6" height="6"/></g>
<g transform="translate(359.375,727.375) scale(3.9483333333333)"><rect width="6" height="6"/></g>
<g transform="translate(382.375,727.375) scale(3.9483333333333)"><rect width="6" height="6"/></g>
<g transform="translate(428.375,727.375) scale(3.9483333333333)"><rect width="6" height="6"/></g>
<g transform="translate(497.375,727.375) scale(3.9483333333333)"><rect width="6" height="6"/></g>
<g transform="translate(543.375,727.375) scale(3.9483333333333)"><rect width="6" height="6"/></g>
<g transform="translate(566.375,727.375) scale(3.9483333333333)"><rect width="6" height="6"/></g>
<g transform="translate(612.375,727.375) scale(3.9483333333333)"><rect width="6" height="6"/></g>
<g transform="translate(635.375,727.375) scale(3.9483333333333)"><rect width="6" height="6"/></g>
<g transform="translate(704.375,727.375) scale(3.9483333333333)"><rect width="6" height="6"/></g>
<g transform="translate(773.375,727.375) scale(3.9483333333333)"><rect width="6" height="6"/></g>
<g transform="translate(819.375,727.375) scale(3.9483333333333)"><rect width="6" height="6"/></g>
<g transform="translate(842.375,727.375) scale(3.9483333333333)"><rect width="6" height="6"/></g>
<g transform="translate(865.375,727.375) scale(3.9483333333333)"><rect width="6" height="6"/></g>
<g transform="translate(934.375,727.375) scale(3.9483333333333)"><rect width="6" height="6"/></g>
<g transform="translate(106.375,750.375) scale(3.9483333333333)"><rect width="6" height="6"/></g>
<g transform="translate(175.375,750.375) scale(3.9483333333333)"><rect width="6" height="6"/></g>
<g transform="translate(244.375,750.375) scale(3.9483333333333)"><rect width="6" height="6"/></g>
<g transform="translate(267.375,750.375) scale(3.9483333333333)"><rect width="6" height="6"/></g>
<g transform="translate(313.375,750.375) scale(3.9483333333333)"><rect width="6" height="6"/></g>
<g transform="translate(405.375,750.375) scale(3.9483333333333)"><rect width="6" height="6"/></g>
<g transform="translate(428.375,750.375) scale(3.9483333333333)"><rect width="6" height="6"/></g>
<g transform="translate(451.375,750.375) scale(3.9483333333333)"><rect width="6" height="6"/></g>
<g transform="translate(497.375,750.375) scale(3.9483333333333)"><rect width="6" height="6"/></g>
<g transform="translate(520.375,750.375) scale(3.9483333333333)"><rect width="6" height="6"/></g>
<g transform="translate(543.375,750.375) scale(3.9483333333333)"><rect width="6" height="6"/></g>
<g transform="translate(566.375,750.375) scale(3.9483333333333)"><rect width="6" height="6"/></g>
<g transform="translate(635.375,750.375) scale(3.9483333333333)"><rect width="6" height="6"/></g>
<g transform="translate(658.375,750.375) scale(3.9483333333333)"><rect width="6" height="6"/></g>
<g transform="translate(681.375,750.375) scale(3.9483333333333)"><rect width="6" height="6"/></g>
<g transform="translate(727.375,750.375) scale(3.9483333333333)"><rect width="6" height="6"/></g>
<g transform="translate(750.375,750.375) scale(3.9483333333333)"><rect width="6" height="6"/></g>
<g transform="translate(773.375,750.375) scale(3.9483333333333)"><rect width="6" height="6"/></g>
<g transform="translate(796.375,750.375) scale(3.9483333333333)"><rect width="6" height="6"/></g>
<g transform="translate(819.375,750.375) scale(3.9483333333333)"><rect width="6" height="6"/></g>
<g transform="translate(842.375,750.375) scale(3.9483333333333)"><rect width="6" height="6"/></g>
<g transform="translate(865.375,750.375) scale(3.9483333333333)"><rect width="6" height="6"/></g>
<g transform="translate(888.375,750.375) scale(3.9483333333333)"><rect width="6" height="6"/></g>
<g transform="translate(911.375,750.375) scale(3.9483333333333)"><rect width="6" height="6"/></g>
<g transform="translate(290.375,773.375) scale(3.9483333333333)"><rect width="6" height="6"/></g>
<g transform="translate(313.375,773.375) scale(3.9483333333333)"><rect width="6" height="6"/></g>
<g transform="translate(359.375,773.375) scale(3.9483333333333)"><rect width="6" height="6"/></g>
<g transform="translate(428.375,773.375) scale(3.9483333333333)"><rect width="6" height="6"/></g>
<g transform="translate(451.375,773.375) scale(3.9483333333333)"><rect width="6" height="6"/></g>
<g transform="translate(589.375,773.375) scale(3.9483333333333)"><rect width="6" height="6"/></g>
<g transform="translate(612.375,773.375) scale(3.9483333333333)"><rect width="6" height="6"/></g>
<g transform="translate(635.375,773.375) scale(3.9483333333333)"><rect width="6" height="6"/></g>
<g transform="translate(704.375,773.375) scale(3.9483333333333)"><rect width="6" height="6"/></g>
<g transform="translate(727.375,773.375) scale(3.9483333333333)"><rect width="6" height="6"/></g>
<g transform="translate(750.375,773.375) scale(3.9483333333333)"><rect width="6" height="6"/></g>
<g transform="translate(842.375,773.375) scale(3.9483333333333)"><rect width="6" height="6"/></g>
<g transform="translate(336.375,796.375) scale(3.9483333333333)"><rect width="6" height="6"/></g>
<g transform="translate(359.375,796.375) scale(3.9483333333333)"><rect width="6" height="6"/></g>
<g transform="translate(382.375,796.375) scale(3.9483333333333)"><rect width="6" height="6"/></g>
<g transform="translate(405.375,796.375) scale(3.9483333333333)"><rect width="6" height="6"/></g>
<g transform="translate(520.375,796.375) scale(3.9483333333333)"><rect width="6" height="6"/></g>
<g transform="translate(566.375,796.375) scale(3.9483333333333)"><rect width="6" height="6"/></g>
<g transform="translate(658.375,796.375) scale(3.9483333333333)"><rect width="6" height="6"/></g>
<g transform="translate(750.375,796.375) scale(3.9483333333333)"><rect width="6" height="6"/></g>
<g transform="translate(796.375,796.375) scale(3.9483333333333)"><rect width="6" height="6"/></g>
<g transform="translate(842.375,796.375) scale(3.9483333333333)"><rect width="6" height="6"/></g>
<g transform="translate(865.375,796.375) scale(3.9483333333333)"><rect width="6" height="6"/></g>
<g transform="translate(911.375,796.375) scale(3.9483333333333)"><rect width="6" height="6"/></g>
<g transform="translate(934.375,796.375) scale(3.9483333333333)"><rect width="6" height="6"/></g>
<g transform="translate(313.375,819.375) scale(3.9483333333333)"><rect width="6" height="6"/></g>
<g transform="translate(382.375,819.375) scale(3.9483333333333)"><rect width="6" height="6"/></g>
<g transform="translate(405.375,819.375) scale(3.9483333333333)"><rect width="6" height="6"/></g>
<g transform="translate(428.375,819.375) scale(3.9483333333333)"><rect width="6" height="6"/></g>
<g transform="translate(474.375,819.375) scale(3.9483333333333)"><rect width="6" height="6"/></g>
<g transform="translate(497.375,819.375) scale(3.9483333333333)"><rect width="6" height="6"/></g>
<g transform="translate(520.375,819.375) scale(3.9483333333333)"><rect width="6" height="6"/></g>
<g transform="translate(566.375,819.375) scale(3.9483333333333)"><rect width="6" height="6"/></g>
<g transform="translate(589.375,819.375) scale(3.9483333333333)"><rect width="6" height="6"/></g>
<g transform="translate(704.375,819.375) scale(3.9483333333333)"><rect width="6" height="6"/></g>
<g transform="translate(750.375,819.375) scale(3.9483333333333)"><rect width="6" height="6"/></g>
<g transform="translate(842.375,819.375) scale(3.9483333333333)"><rect width="6" height="6"/></g>
<g transform="translate(911.375,819.375) scale(3.9483333333333)"><rect width="6" height="6"/></g>
<g transform="translate(290.375,842.375) scale(3.9483333333333)"><rect width="6" height="6"/></g>
<g transform="translate(336.375,842.375) scale(3.9483333333333)"><rect width="6" height="6"/></g>
<g transform="translate(359.375,842.375) scale(3.9483333333333)"><rect width="6" height="6"/></g>
<g transform="translate(428.375,842.375) scale(3.9483333333333)"><rect width="6" height="6"/></g>
<g transform="translate(451.375,842.375) scale(3.9483333333333)"><rect width="6" height="6"/></g>
<g transform="translate(497.375,842.375) scale(3.9483333333333)"><rect width="6" height="6"/></g>
<g transform="translate(543.375,842.375) scale(3.9483333333333)"><rect width="6" height="6"/></g>
<g transform="translate(589.375,842.375) scale(3.9483333333333)"><rect width="6" height="6"/></g>
<g transform="translate(612.375,842.375) scale(3.9483333333333)"><rect width="6" height="6"/></g>
<g transform="translate(635.375,842.375) scale(3.9483333333333)"><rect width="6" height="6"/></g>
<g transform="translate(681.375,842.375) scale(3.9483333333333)"><rect width="6" height="6"/></g>
<g transform="translate(704.375,842.375) scale(3.9483333333333)"><rect width="6" height="6"/></g>
<g transform="translate(727.375,842.375) scale(3.9483333333333)"><rect width="6" height="6"/></g>
<g transform="translate(750.375,842.375) scale(3.9483333333333)"><rect width="6" height="6"/></g>
<g transform="translate(773.375,842.375) scale(3.9483333333333)"><rect width="6" height="6"/></g>
<g transform="translate(796.375,842.375) scale(3.9483333333333)"><rect width="6" height="6"/></g>
<g transform="translate(819.375,842.375) scale(3.9483333333333)"><rect width="6" height="6"/></g>
<g transform="translate(842.375,842.375) scale(3.9483333333333)"><rect width="6" height="6"/></g>
<g transform="translate(888.375,842.375) scale(3.9483333333333)"><rect width="6" height="6"/></g>
<g transform="translate(934.375,842.375) scale(3.9483333333333)"><rect width="6" height="6"/></g>
<g transform="translate(290.375,865.375) scale(3.9483333333333)"><rect width="6" height="6"/></g>
<g transform="translate(336.375,865.375) scale(3.9483333333333)"><rect width="6" height="6"/></g>
<g transform="translate(405.375,865.375) scale(3.9483333333333)"><rect width="6" height="6"/></g>
<g transform="translate(428.375,865.375) scale(3.9483333333333)"><rect width="6" height="6"/></g>
<g transform="translate(474.375,865.375) scale(3.9483333333333)"><rect width="6" height="6"/></g>
<g transform="translate(566.375,865.375) scale(3.9483333333333)"><rect width="6" height="6"/></g>
<g transform="translate(612.375,865.375) scale(3.9483333333333)"><rect width="6" height="6"/></g>
<g transform="translate(658.375,865.375) scale(3.9483333333333)"><rect width="6" height="6"/></g>
<g transform="translate(681.375,865.375) scale(3.9483333333333)"><rect width="6" height="6"/></g>
<g transform="translate(750.375,865.375) scale(3.9483333333333)"><rect width="6" height="6"/></g>
<g transform="translate(796.375,865.375) scale(3.9483333333333)"><rect width="6" height="6"/></g>
<g transform="translate(819.375,865.375) scale(3.9483333333333)"><rect width="6" height="6"/></g>
<g transform="translate(842.375,865.375) scale(3.9483333333333)"><rect width="6" height="6"/></g>
<g transform="translate(888.375,865.375) scale(3.9483333333333)"><rect width="6" height="6"/></g>
<g transform="translate(290.375,888.375) scale(3.9483333333333)"><rect width="6" height="6"/></g>
<g transform="translate(313.375,888.375) scale(3.9483333333333)"><rect width="6" height="6"/></g>
<g transform="translate(359.375,888.375) scale(3.9483333333333)"><rect width="6" height="6"/></g>
<g transform="translate(382.375,888.375) scale(3.9483333333333)"><rect width="6" height="6"/></g>
<g transform="translate(405.375,888.375) scale(3.9483333333333)"><rect width="6" height="6"/></g>
<g transform="translate(428.375,888.375) scale(3.9483333333333)"><rect width="6" height="6"/></g>
<g transform="translate(474.375,888.375) scale(3.9483333333333)"><rect width="6" height="6"/></g>
<g transform="translate(497.375,888.375) scale(3.9483333333333)"><rect width="6" height="6"/></g>
<g transform="translate(520.375,888.375) scale(3.9483333333333)"><rect width="6" height="6"/></g>
<g transform="translate(566.375,888.375) scale(3.9483333333333)"><rect width="6" height="6"/></g>
<g transform="translate(612.375,888.375) scale(3.9483333333333)"><rect width="6" height="6"/></g>
<g transform="translate(681.375,888.375) scale(3.9483333333333)"><rect width="6" height="6"/></g>
<g transform="translate(704.375,888.375) scale(3.9483333333333)"><rect width="6" height="6"/></g>
<g transform="translate(750.375,888.375) scale(3.9483333333333)"><rect width="6" height="6"/></g>
<g transform="translate(773.375,888.375) scale(3.9483333333333)"><rect width="6" height="6"/></g>
<g transform="translate(819.375,888.375) scale(3.9483333333333)"><rect width="6" height="6"/></g>
<g transform="translate(865.375,888.375) scale(3.9483333333333)"><rect width="6" height="6"/></g>
<g transform="translate(888.375,888.375) scale(3.9483333333333)"><rect width="6" height="6"/></g>
<g transform="translate(934.375,888.375) scale(3.9483333333333)"><rect width="6" height="6"/></g>
<g transform="translate(313.375,911.375) scale(3.9483333333333)"><rect width="6" height="6"/></g>
<g transform="translate(336.375,911.375) scale(3.9483333333333)"><rect width="6" height="6"/></g>
<g transform="translate(359.375,911.375) scale(3.9483333333333)"><rect width="6" height="6"/></g>
<g transform="translate(405.375,911.375) scale(3.9483333333333)"><rect width="6" height="6"/></g>
<g transform="translate(428.375,911.375) scale(3.9483333333333)"><rect width="6" height="6"/></g>
<g transform="translate(474.375,911.375) scale(3.9483333333333)"><rect width="6" height="6"/></g>
<g transform="translate(497.375,911.375) scale(3.9483333333333)"><rect width="6" height="6"/></g>
<g transform="translate(543.375,911.375) scale(3.9483333333333)"><rect width="6" height="6"/></g>
<g transform="translate(566.375,911.375) scale(3.9483333333333)"><rect width="6" height="6"/></g>
<g transform="translate(612.375,911.375) scale(3.9483333333333)"><rect width="6" height="6"/></g>
<g transform="translate(658.375,911.375) scale(3.9483333333333)"><rect width="6" height="6"/></g>
<g transform="translate(704.375,911.375) scale(3.9483333333333)"><rect width="6" height="6"/></g>
<g transform="translate(727.375,911.375) scale(3.9483333333333)"><rect width="6" height="6"/></g>
<g transform="translate(750.375,911.375) scale(3.9483333333333)"><rect width="6" height="6"/></g>
<g transform="translate(773.375,911.375) scale(3.9483333333333)"><rect width="6" height="6"/></g>
<g transform="translate(796.375,911.375) scale(3.9483333333333)"><rect width="6" height="6"/></g>
<g transform="translate(819.375,911.375) scale(3.9483333333333)"><rect width="6" height="6"/></g>
<g transform="translate(934.375,911.375) scale(3.9483333333333)"><rect width="6" height="6"/></g>
<g transform="translate(313.375,934.375) scale(3.9483333333333)"><rect width="6" height="6"/></g>
<g transform="translate(359.375,934.375) scale(3.9483333333333)"><rect width="6" height="6"/></g>
<g transform="translate(405.375,934.375) scale(3.9483333333333)"><rect width="6" height="6"/></g>
<g transform="translate(428.375,934.375) scale(3.9483333333333)"><rect width="6" height="6"/></g>
<g transform="translate(451.375,934.375) scale(3.9483333333333)"><rect width="6" height="6"/></g>
<g transform="translate(474.375,934.375) scale(3.9483333333333)"><rect width="6" height="6"/></g>
<g transform="translate(543.375,934.375) scale(3.9483333333333)"><rect width="6" height="6"/></g>
<g transform="translate(566.375,934.375) scale(3.9483333333333)"><rect width="6" height="6"/></g>
<g transform="translate(612.375,934.375) scale(3.9483333333333)"><rect width="6" height="6"/></g>
<g transform="translate(658.375,934.375) scale(3.9483333333333)"><rect width="6" height="6"/></g>
<g transform="translate(681.375,934.375) scale(3.9483333333333)"><rect width="6" height="6"/></g>
<g transform="translate(704.375,934.375) scale(3.9483333333333)"><rect width="6" height="6"/></g>
<g transform="translate(727.375,934.375) scale(3.9483333333333)"><rect width="6" height="6"/></g>
<g transform="translate(773.375,934.375) scale(3.9483333333333)"><rect width="6" height="6"/></g>
<g transform="translate(819.375,934.375) scale(3.9483333333333)"><rect width="6" height="6"/></g>
<g transform="translate(842.375,934.375) scale(3.9483333333333)"><rect width="6" height="6"/></g>
<g transform="translate(865.375,934.375) scale(3.9483333333333)"><rect width="6" height="6"/></g>
<g transform="translate(888.375,934.375) scale(3.9483333333333)"><rect width="6" height="6"/></g>
<g transform="translate(911.375,934.375) scale(3.9483333333333)"><rect width="6" height="6"/></g>
<g transform="translate(934.375,934.375) scale(3.9483333333333)"><rect width="6" height="6"/></g>
<g transform="translate(106.375,106.375)"><g transform="scale(11.5)"><path d="M0,0v14h14V0H0z M12,12H2V2h10V12z"/></g></g>
<g transform="translate(796.375,106.375)"><g transform="scale(11.5)"><path d="M0,0v14h14V0H0z M12,12H2V2h10V12z"/></g></g>
<g transform="translate(106.375,796.375)"><g transform="scale(11.5)"><path d="M0,0v14h14V0H0z M12,12H2V2h10V12z"/></g></g>
<g transform="translate(152.375,152.375)"><g transform="scale(11.5)"><rect width="6" height="6"/></g></g>
<g transform="translate(842.375,152.375)"><g transform="scale(11.5)"><rect width="6" height="6"/></g></g>
<g transform="translate(152.375,842.375)"><g transform="scale(11.5)"><rect width="6" height="6"/></g></g>
</g><g transform="translate(106.375,81.96220129252) scale(0.42633134612494)"><path fill="#FFFFFF" d="M33.2,67.5q10,0,16.65,7.6t6.65,18.6l0,17.6q0,2.3-0.15,3.45t-0.95,2.65q-1.3,2.6-7.7,2.6q-6.1,0-7.6-2.6q-0.8-1.5-0.95-2.7t-0.15-3.6l0-17.5q0-4.1-2.3-6.4t-5.85-2.3t-6.25,2.15t-3.1,4.85l0,19.4q0,2.3-0.15,3.45t-0.95,2.65q-1.3,2.6-7.7,2.6q-6.3,0-7.7-2.7q-0.7-1.5-0.85-2.6t-0.15-3.5l0-59.8q0-2.3,0.15-3.45t0.85-2.55q1.4-2.7,7.8-2.7q6.3,0,7.6,2.7q0.8,1.5,0.95,2.65t0.15,3.45l0,22.1q5-6.1,11.7-6.1z M95.1,85l-6.5-0.4l0,13.8q0,2.7,0.85,3.9t3.2,1.2t3.6,0.15t2.65,0.95q2.3,1.3,2.3,6.7q0,6.3-2.8,7.7q-1.5,0.7-2.65,0.85t-3.35,0.15q-10.4,0-15.8-4.7t-5.4-15.9l0-14.8q-1.9,0.3-4.1,0.3t-3.65-1.7t-1.45-5.8t0.5-5.95t1.4-2.65q1.6-1.3,4-1.3l3.3,0.4l0-10.3q0-2.3,0.15-3.4t0.95-2.4q1.3-2.5,7.7-2.5q6.8,0,8.1,3.7q0.5,1.6,0.5,5.1l0,9.8q4.4-0.4,6.65-0.4t3.4,0.15t2.65,0.95q2.6,1.3,2.6,7.7q0,6.3-2.7,7.7q-1.5,0.7-2.65,0.85t-3.45,0.15z M140,85l-6.5-0.4l0,13.8q0,2.7,0.85,3.9t3.2,1.2t3.6,0.15t2.65,0.95q2.3,1.3,2.3,6.7q0,6.3-2.8,7.7q-1.5,0.7-2.65,0.85t-3.35,0.15q-10.4,0-15.8-4.7t-5.4-15.9l0-14.8q-1.9,0.3-4.1,0.3t-3.65-1.7t-1.45-5.8t0.5-5.95t1.4-2.65q1.6-1.3,4-1.3l3.3,0.4l0-10.3q0-2.3,0.15-3.4t0.95-2.4q1.3-2.5,7.7-2.5q6.8,0,8.1,3.7q0.5,1.6,0.5,5.1l0,9.8q4.4-0.4,6.65-0.4t3.4,0.15t2.65,0.95q2.6,1.3,2.6,7.7q0,6.3-2.7,7.7q-1.5,0.7-2.65,0.85t-3.45,0.15z M154.3,134.3l0-58.4q0-2.3,0.15-3.4t0.85-2.5q1.4-2.7,6.7-2.7t7.15,1.35t2.15,3.95q3.8-5.2,11.95-5.2t15.45,7.7t7.3,17.9t-7.25,17.9t-15.45,7.7t-11.9-4.6l0,20.2q0,2.3-0.15,3.4t-0.9,2.55t-2.55,2.05t-4.9,0.6t-4.95-0.6t-2.6-2t-0.9-2.5t-0.15-3.4z M171.8,93.1q0,3.2,2.35,5.85t6,2.65t6.2-2.6t2.55-5.9t-2.4-5.95t-6.25-2.65t-6.15,2.7t-2.3,5.9z M212.9,115.3q-1.9-1.2-1.9-3.8t3.8-7.9q1.1-1.7,3.55-1.7t6.65,2.45t7.6,2.45q6.1,0,6.1-2.4q0-1.9-6.7-2.8q-6.3-0.9-12.5-4.7q-2.9-1.8-4.8-5.65t-1.9-9.15q0-15.8,21.7-15.8q7.1,0,14.6,3.4q3.5,1.6,3.5,4t-2.2,5.9t-4.5,3.5q-1.2,0-4.45-1.5t-7.05-1.5q-5.9,0-5.9,2.2q0,3,6.8,3.9q6.6,0.7,12.8,3.8q2.9,1.4,4.85,4.85t1.95,8.65t-1.95,8.85t-5.45,5.45q-6.4,3.1-16.05,3.1t-18.55-5.6z M276.75,71.5q1.95,2,1.95,7.5q-0.1,2.4-0.25,3.55t-1.05,2.75q-1.5,2.9-7.55,2.9t-8-1.95t-1.95-7.55q0-5.8,2.1-7.4q2.5-1.8,7.65-1.8t7.1,2z M276.75,103.35q1.95,1.95,1.95,7.55q-0.1,2.4-0.25,3.55t-1.05,2.75q-1.5,2.9-7.55,2.9t-8-1.95t-1.95-7.55q0-5.8,2.1-7.4q2.5-1.8,7.65-1.8t7.1,1.95z M298.8,120.8q-0.8,1.7-1.25,2.5t-1.5,1.55t-2.75,0.75t-5-1.5t-4.45-2.65t-1.15-2.55t1.2-5l32.2-67.3q1.9-3.8,3.4-4.4q0.8-0.4,2.35-0.4t5.05,1.6q5.4,2.6,5.4,5.7q0,1.3-1.4,5z M351.4,120.8q-0.8,1.7-1.25,2.5t-1.5,1.55t-2.75,0.75t-5-1.5t-4.45-2.65t-1.15-2.55t1.2-5l32.2-67.3q1.9-3.8,3.4-4.4q0.8-0.4,2.35-0.4t5.05,1.6q5.4,2.6,5.4,5.7q0,1.3-1.4,5z M457.8,67.7q6.4,2.8,6.4,6.9q0,1.7-1.6,5.45t-2.7,6.55l-11,26.8q-1.5,4.4-5,6.2q-1.5,0.7-3.8,0.7t-4.45-1.75t-2.85-3.55l-0.8-1.7q-0.8-2-5.9-15.6q-1,2.4-2.95,7.85t-2.5,6.8t-0.7,1.8t-0.85,1.65t-1.6,2.1q-2.4,2.4-5.5,2.4t-5.2-1.75t-2.8-3.55l-15.1-36.8q-1-3-1-3.9q0-4,5.7-6.3q3.2-1.3,5.2-1.3t3.25,0.85t1.75,1.7t0.8,1.75q1.7,4,7.1,18.8l5.9-16.2q0.6-2,2.2-3.5q2.9-2.9,5.9-2.9t5.15,1.6t2.95,3.2l0.8,1.7q5,14,5.9,16l6.1-16.6q2.4-6.4,7.2-6.4q1.9,0,4,1z M515.3,52.6q7.1,7,7.1,15.75t-7.8,12.65l0,0.7q1,0.5,2.95,2.15t3.15,3.25q3.3,4.2,3.3,9.6q0,10.7-8,17.65t-20.1,6.95q-12,0-20-7q-3-2.7-5.3-7.1q-0.8-1.6-1.1-2.6l-0.2-1q-1.1-3.3-1.1-5.4q0-5.8,9.8-5.8q4,0,5.3,1q1.7,1.3,3,5.2q1,3.2,5.5,4.8q1.9,0.6,4.2,0.6q5.3,0,7.8-2.15t2.5-4.85t-2.45-4.75t-5.8-2.05t-4.55-0.2t-2.6-1q-2.7-1.3-2.7-7.7q0-7,3.7-8.3q1.7-0.5,5.2-0.5q7.6,0,7.6-3.9q0-2.1-2-4t-5.55-1.9t-5.65,1.2t-2.6,2.4l-0.6,1.2q-2.3,5-6.6,5q-2.5,0-5.5-1.8q-5-2.9-5-6.7q0-1.6,2.3-6.8q0.4-0.9,2.2-3.15t4.15-3.95t6.6-3.1t9.45-1.4q12.3,0,19.4,7z M530.5,76.1q0-2.3,0.15-3.45t0.85-2.65q1.4-2.6,7.8-2.6q4.8,0,6.8,1.7q1.7,1.4,1.8,4.3q0.1,1,0.1,2.9l0,35q0,2.3-0.15,3.45t-0.95,2.65q-1.3,2.6-7.7,2.6q-6.3,0-7.7-2.7q-0.7-1.5-0.85-2.6t-0.15-3.5l0-35.1z M544.3,59.6q-1.9,0.6-5.05,0.6t-5.05-0.6t-2.65-2.1t-0.9-2.65t-0.15-3.45t0.15-3.45t0.85-2.55q1.4-2.7,7.8-2.7q6.3,0,7.6,2.7q0.8,1.5,0.95,2.65t0.15,3.45t-0.15,3.45t-0.9,2.6t-2.65,2.05z M594,43.3q1.9-0.6,5.05-0.6t5.05,0.6t2.65,2.1t0.9,2.65t0.15,3.45l0,59.7q0,2.3-0.15,3.45t-0.95,2.55q-1.5,2.7-8.45,2.7t-7.75-4.9q-4.2,4.8-11.7,4.8q-9,0-16.4-7.85t-7.4-18.3t7.45-18.35t16.35-7.9q7.4,0,11.5,5l0-21q0-2.3,0.15-3.45t0.9-2.6t2.65-2.05z M581.4,102.4q3.7,0,6.15-2.7t2.45-5.95t-2.35-6.05t-6.35-2.8t-6.4,2.75t-2.4,6.05t2.6,6t6.3,2.7z M631.3,103.5q1.7,1.7,1.7,7l0,0.4q0,2.4-0.15,3.55t-1.05,2.75q-1.5,2.9-7.55,2.9t-8-1.9t-1.95-7.2l0-0.4q0-2.3,0.15-3.5t0.95-2.7q1.5-3,7.55-3t8.35,2.1z M646.4,73.9q8.4-7.8,19.2-7.8t19.1,7.75t8.3,19.75q0,8.3-4.3,14.75t-10.45,9.5t-12.75,3.05t-12.8-3.25t-10.45-9.6t-4.25-14.35q0-12,8.4-19.8z M665.4,103.3q3.3,0,6.6-2.5t3.3-7.4t-3.1-7.3t-6.7-2.4t-6.7,2.5t-3.1,7.35t3.2,7.3t6.5,2.45z M738.45,69.95q1.25,1.45,1.25,4.65t-1.9,7t-5.5,3.8q-1.8,0-3.45-0.8t-4.35-0.8t-5.05,1.9t-2.35,4.6l0,21q0,2.3-0.15,3.45t-0.95,2.65q-1.5,2.6-7.8,2.6q-4.8,0-6.9-1.7q-1.6-1.4-1.8-4.3l0-2.9l0-35.1q0-2.3,0.15-3.45t0.85-2.55q1.4-2.7,7.8-2.7q6,0,7.5,2.3q1.1,1.6,1.1,3.3q0.5-0.7,1.45-1.7t4.05-2.7t5.45-1.7t3.95,0.25t3.5,0.85t3.15,2.05z M778.6,113.4q-3.8,5-12.1,5t-15.55-7.65t-7.25-17.85t7.3-17.9t16-7.7q3.4,0,6.2,1.25t3.85,2.3t1.65,1.95q0.3-2.8,2.05-4.25t5.65-1.45t5.7,0.6t2.55,2.05t0.9,2.55t0.15,3.4l0,41.4q0,11.5-8,18.55t-18,7.05q-7.6,0-14.5-3.7t-6.9-6.7q0-3.9,3-6.9q1.9-2.1,2.95-2.9t2.45-0.8t2.9,1.2q4.8,3.7,10.4,3.7q3.8,0,6.2-3t2.4-7.2l0-3z M763.35,98.8q2.55,2.6,6.2,2.6t6.05-2.65t2.4-5.8t-2.3-5.9t-6.2-2.75t-6.3,2.7t-2.4,5.95t2.55,5.85z M817.3,120.8q-0.8,1.7-1.25,2.5t-1.5,1.55t-2.75,0.75t-5-1.5t-4.45-2.65t-1.15-2.55t1.2-5l32.2-67.3q1.9-3.8,3.4-4.4q0.8-0.4,2.35-0.4t5.05,1.6q5.4,2.6,5.4,5.7q0,1.3-1.4,5z M885.5,67.5q10,0,16.65,7.6t6.65,18.6l0,17.6q0,2.3-0.15,3.45t-0.95,2.65q-1.3,2.6-7.7,2.6q-6.1,0-7.6-2.6q-0.8-1.5-0.95-2.7t-0.15-3.6l0-17.5q0-4.1-2.3-6.4t-5.85-2.3t-6.25,2.15t-3.1,4.85l0,19.4q0,2.3-0.15,3.45t-0.95,2.65q-1.3,2.6-7.7,2.6q-6.3,0-7.7-2.7q-0.7-1.5-0.85-2.6t-0.15-3.5l0-59.8q0-2.3,0.15-3.45t0.85-2.55q1.4-2.7,7.8-2.7q6.3,0,7.6,2.7q0.8,1.5,0.95,2.65t0.15,3.45l0,22.1q5-6.1,11.7-6.1z M964.55,96.45q-3.05,2.95-6.75,2.95l-23.7,0q0,2.8,3.3,4.7t6.6,1.9q5.8,0,9.1-1.2l1.1-0.4q2.4-1.1,4-1.1q3.2,0,5.5,4.5q1.3,2.7,1.3,4.6q0,8.9-21.3,8.9q-7.4,0-13.15-2.55t-8.95-6.75q-6.3-8.1-6.3-18.1q0-12.6,8.15-20.15t20.35-7.55q13.9,0,20.4,9.8q3.4,5.2,3.4,11.35t-3.05,9.1z M946.5,90.3q3.8,0,3.8-3.2q0-2.3-1.75-3.7t-5-1.4t-6.45,2.65t-3.2,5.65l12.6,0z M1008.3,72.9q0.6-5.6,7.9-5.6q3.9,0,5.8,0.6t2.65,2.1t0.9,2.65t0.15,3.45l0,35q0,2.3-0.15,3.45t-0.85,2.65q-1.4,2.6-6.85,2.6t-7.3-1.35t-2.15-3.95q-3.7,5.3-12.35,5.3t-16.05-7.9t-7.4-18.35t7.45-18.3t16.35-7.85q3.4,0,6.2,1.2t3.9,2.25t1.8,2.05z M992.7,99.65q2.6,2.65,6.3,2.65t6.15-2.7t2.45-5.95t-2.35-6.05t-6.3-2.8t-6.4,2.8t-2.45,6.1t2.6,5.95z M1033.7,51.3q0-2.3,0.15-3.45t0.85-2.65q1.4-2.7,7.8-2.7q6.1,0,7.6,2.7q0.8,1.5,0.95,2.7t0.15,3.5l0,46.3q0,3.6,0.6,4.55t2.65,0.95t2.75,0.15t1.7,0.85q2,1.3,2,7.1q0,6.3-2,7.7q-2.6,1.8-12.4,0.6q-7.7-1-10-5.1q-2.8-4.9-2.8-15.6l0-47.6z M1097,85l-6.5-0.4l0,13.8q0,2.7,0.85,3.9t3.2,1.2t3.6,0.15t2.65,0.95q2.3,1.3,2.3,6.7q0,6.3-2.8,7.7q-1.5,0.7-2.65,0.85t-3.35,0.15q-10.4,0-15.8-4.7t-5.4-15.9l0-14.8q-1.9,0.3-4.1,0.3t-3.65-1.7t-1.45-5.8t0.5-5.95t1.4-2.65q1.6-1.3,4-1.3l3.3,0.4l0-10.3q0-2.3,0.15-3.4t0.95-2.4q1.3-2.5,7.7-2.5q6.8,0,8.1,3.7q0.5,1.6,0.5,5.1l0,9.8q4.4-0.4,6.65-0.4t3.4,0.15t2.65,0.95q2.6,1.3,2.6,7.7q0,6.3-2.7,7.7q-1.5,0.7-2.65,0.85t-3.45,0.15z M1140.5,67.5q10,0,16.65,7.6t6.65,18.6l0,17.6q0,2.3-0.15,3.45t-0.95,2.65q-1.3,2.6-7.7,2.6q-6.1,0-7.6-2.6q-0.8-1.5-0.95-2.7t-0.15-3.6l0-17.5q0-4.1-2.3-6.4t-5.85-2.3t-6.25,2.15t-3.1,4.85l0,19.4q0,2.3-0.15,3.45t-0.95,2.65q-1.3,2.6-7.7,2.6q-6.3,0-7.7-2.7q-0.7-1.5-0.85-2.6t-0.15-3.5l0-59.8q0-2.3,0.15-3.45t0.85-2.55q1.4-2.7,7.8-2.7q6.3,0,7.6,2.7q0.8,1.5,0.95,2.65t0.15,3.45l0,22.1q5-6.1,11.7-6.1z M1201.3,106.1l-23.8,0q-5.6,0-6.7-3.4q-0.5-1.8-0.5-4.6t0.6-4.5t1.9-2.4q1.8-0.9,4.8-0.9l23.8,0q5.6,0,6.6,3.3q0.6,1.8,0.6,4.6t-0.55,4.55t-1.75,2.45q-1.8,0.9-5,0.9z M1254.05,69.95q1.25,1.45,1.25,4.65t-1.9,7t-5.5,3.8q-1.8,0-3.45-0.8t-4.35-0.8t-5.05,1.9t-2.35,4.6l0,21q0,2.3-0.15,3.45t-0.95,2.65q-1.5,2.6-7.8,2.6q-4.8,0-6.9-1.7q-1.6-1.4-1.8-4.3l0-2.9l0-35.1q0-2.3,0.15-3.45t0.85-2.55q1.4-2.7,7.8-2.7q6,0,7.5,2.3q1.1,1.6,1.1,3.3q0.5-0.7,1.45-1.7t4.05-2.7t5.45-1.7t3.95,0.25t3.5,0.85t3.15,2.05z M1260.8,76.1q0-2.3,0.15-3.45t0.85-2.65q1.4-2.6,7.8-2.6q4.8,0,6.8,1.7q1.7,1.4,1.8,4.3q0.1,1,0.1,2.9l0,35q0,2.3-0.15,3.45t-0.95,2.65q-1.3,2.6-7.7,2.6q-6.3,0-7.7-2.7q-0.7-1.5-0.85-2.6t-0.15-3.5l0-35.1z M1274.6,59.6q-1.9,0.6-5.05,0.6t-5.05-0.6t-2.65-2.1t-0.9-2.65t-0.15-3.45t0.15-3.45t0.85-2.55q1.4-2.7,7.8-2.7q6.3,0,7.6,2.7q0.8,1.5,0.95,2.65t0.15,3.45t-0.15,3.45t-0.9,2.6t-2.65,2.05z M1299.9,120.8q-0.8,1.7-1.25,2.5t-1.5,1.55t-2.75,0.75t-5-1.5t-4.45-2.65t-1.15-2.55t1.2-5l32.2-67.3q1.9-3.8,3.4-4.4q0.8-0.4,2.35-0.4t5.05,1.6q5.4,2.6,5.4,5.7q0,1.3-1.4,5z M1345.8,73.9q8.4-7.8,19.2-7.8t19.1,7.75t8.3,19.75q0,8.3-4.3,14.75t-10.45,9.5t-12.75,3.05t-12.8-3.25t-10.45-9.6t-4.25-14.35q0-12,8.4-19.8z M1364.8,103.3q3.3,0,6.6-2.5t3.3-7.4t-3.1-7.3t-6.7-2.4t-6.7,2.5t-3.1,7.35t3.2,7.3t6.5,2.45z M1428.2,67.3q10,0,16.65,7.65t6.65,18.65l0,17.6q0,2.3-0.15,3.45t-0.85,2.55q-1.4,2.7-7.8,2.7q-7.1,0-8.2-3.7q-0.6-1.7-0.6-5.1l0-17.6q0-4.1-2.35-6.4t-6.3-2.3t-6.4,2.4t-2.45,6.3l0,17.7q0,2.3-0.15,3.45t-0.95,2.55q-1.3,2.7-7.7,2.7q-6.3,0-7.7-2.7q-0.7-1.5-0.85-2.65t-0.15-3.45l0-35.4q0-2.2,0.15-3.35t0.95-2.55q1.4-2.5,7.7-2.5q6.1,0,7.5,2.3q1,1.7,1,4.1q0.4-0.7,1.8-2t2.7-2.1q3.4-2.3,7.5-2.3z M1490.1,85l-6.5-0.4l0,13.8q0,2.7,0.85,3.9t3.2,1.2t3.6,0.15t2.65,0.95q2.3,1.3,2.3,6.7q0,6.3-2.8,7.7q-1.5,0.7-2.65,0.85t-3.35,0.15q-10.4,0-15.8-4.7t-5.4-15.9l0-14.8q-1.9,0.3-4.1,0.3t-3.65-1.7t-1.45-5.8t0.5-5.95t1.4-2.65q1.6-1.3,4-1.3l3.3,0.4l0-10.3q0-2.3,0.15-3.4t0.95-2.4q1.3-2.5,7.7-2.5q6.8,0,8.1,3.7q0.5,1.6,0.5,5.1l0,9.8q4.4-0.4,6.65-0.4t3.4,0.15t2.65,0.95q2.6,1.3,2.6,7.7q0,6.3-2.7,7.7q-1.5,0.7-2.65,0.85t-3.45,0.15z M1511.3,73.9q8.4-7.8,19.2-7.8t19.1,7.75t8.3,19.75q0,8.3-4.3,14.75t-10.45,9.5t-12.75,3.05t-12.8-3.25t-10.45-9.6t-4.25-14.35q0-12,8.4-19.8z M1530.3,103.3q3.3,0,6.6-2.5t3.3-7.4t-3.1-7.3t-6.7-2.4t-6.7,2.5t-3.1,7.35t3.2,7.3t6.5,2.45z M1564.4,51.3q0-2.3,0.15-3.45t0.85-2.65q1.4-2.7,7.8-2.7q6.1,0,7.6,2.7q0.8,1.5,0.95,2.7t0.15,3.5l0,46.3q0,3.6,0.6,4.55t2.65,0.95t2.75,0.15t1.7,0.85q2,1.3,2,7.1q0,6.3-2,7.7q-2.6,1.8-12.4,0.6q-7.7-1-10-5.1q-2.8-4.9-2.8-15.6l0-47.6z M1604,73.9q8.4-7.8,19.2-7.8t19.1,7.75t8.3,19.75q0,8.3-4.3,14.75t-10.45,9.5t-12.75,3.05t-12.8-3.25t-10.45-9.6t-4.25-14.35q0-12,8.4-19.8z M1623,103.3q3.3,0,6.6-2.5t3.3-7.4t-3.1-7.3t-6.7-2.4t-6.7,2.5t-3.1,7.35t3.2,7.3t6.5,2.45z M1690.5,113.4q-3.8,5-12.1,5t-15.55-7.65t-7.25-17.85t7.3-17.9t16-7.7q3.4,0,6.2,1.25t3.85,2.3t1.65,1.95q0.3-2.8,2.05-4.25t5.65-1.45t5.7,0.6t2.55,2.05t0.9,2.55t0.15,3.4l0,41.4q0,11.5-8,18.55t-18,7.05q-7.6,0-14.5-3.7t-6.9-6.7q0-3.9,3-6.9q1.9-2.1,2.95-2.9t2.45-0.8t2.9,1.2q4.8,3.7,10.4,3.7q3.8,0,6.2-3t2.4-7.2l0-3z M1675.25,98.8q2.55,2.6,6.2,2.6t6.05-2.65t2.4-5.8t-2.3-5.9t-6.2-2.75t-6.3,2.7t-2.4,5.95t2.55,5.85z M1764.6,67.9q5.9,2.6,5.9,6.3q0,1.8-0.8,3.4t-0.8,1.7l-26.2,58.6q-0.8,1.9-1.35,2.9t-1.75,1.9t-3,0.9t-5.3-1.5q-5.9-2.6-5.9-6.2q0-2.4,9.6-22.9l-19.9-33.5q-2-3.3-2-4.9q0-3.2,5.4-6.4q3.4-2,5.3-2t3.1,0.8t1.75,1.65t5.5,9.3t9.45,15.75q0.5-1.6,5.4-12.35t5.25-11.45t1.15-1.7q1.3-1.7,3.65-1.7t5.55,1.4z M1789.6,120.8q-0.8,1.7-1.25,2.5t-1.5,1.55t-2.75,0.75t-5-1.5t-4.45-2.65t-1.15-2.55t1.2-5l32.2-67.3q1.9-3.8,3.4-4.4q0.8-0.4,2.35-0.4t5.05,1.6q5.4,2.6,5.4,5.7q0,1.3-1.4,5z M1866.6,43.3q1.9-0.6,5.05-0.6t5.05,0.6t2.65,2.1t0.9,2.65t0.15,3.45l0,59.7q0,2.3-0.15,3.45t-0.95,2.55q-1.5,2.7-8.45,2.7t-7.75-4.9q-4.2,4.8-11.7,4.8q-9,0-16.4-7.85t-7.4-18.3t7.45-18.35t16.35-7.9q7.4,0,11.5,5l0-21q0-2.3,0.15-3.45t0.9-2.6t2.65-2.05z M1854,102.4q3.7,0,6.15-2.7t2.45-5.95t-2.35-6.05t-6.35-2.8t-6.4,2.75t-2.4,6.05t2.6,6t6.3,2.7z M1895.3,73.9q8.4-7.8,19.2-7.8t19.1,7.75t8.3,19.75q0,8.3-4.3,14.75t-10.45,9.5t-12.75,3.05t-12.8-3.25t-10.45-9.6t-4.25-14.35q0-12,8.4-19.8z M1914.3,103.3q3.3,0,6.6-2.5t3.3-7.4t-3.1-7.3t-6.7-2.4t-6.7,2.5t-3.1,7.35t3.2,7.3t6.5,2.45z M1967.7,100.25q2.8,2.35,5.95,2.35t5.9-1.85t4.45-1.85q3,0,7.3,5.3q2.3,2.9,2.3,5.2q0,3.8-5.5,7.1q-5.7,4-14,4q-9.3,0-17.9-6.7q-4.1-3.2-6.7-8.55t-2.6-11.8t2.6-11.7t6.7-8.45q8.3-6.6,17.7-6.6q3.8,0,7.4,1.05t5.3,2.05l1.6,1q1.8,1.2,2.8,1.9q2.6,2,2.6,4.55t-2.1,5.75q-3.6,5.5-6.9,5.5q-1.9,0-5.4-2.2q-1.8-1.7-5.15-1.7t-6.25,2.4t-2.9,6.65t2.8,6.6z"/></g></svg>
