<?xml version="1.0" encoding="utf-8"?>
<svg xmlns="http://www.w3.org/2000/svg" xmlns:xlink="http://www.w3.org/1999/xlink" xml:space="preserve" width="1063.75" height="1241.0416666667" viewBox="0 0 1063.75 1241.0416666667"><rect width="984.85520833333" height="984.85520833333" fill="#ffffff" x="44.322916666667" y="221.61458333333"/><g transform="scale(44.322916666667)" fill="#000000"><path d="M1.3,28L22.6,28c0.7,0,1.3-0.6,1.3-1.3L24,1.4c0-0.7-0.6-1.3-1.3-1.3L1.4,0C0.7,0,0.1,0.6,0,1.3L0,26.6 C-0.1,27.4,0.5,28,1.3,28z M1,6c0-0.6,0.5-1,1-1L22,5c0.6,0,1,0.5,1,1L23,26c0,0.6-0.5,1-1,1L2,27c-0.6,0-1-0.5-1-1L1,6z"/></g><g transform="translate(0,177.29166666667)" fill="#000000">
<g transform="translate(290.375,106.375) scale(3.9483333333333)"><rect width="6" height="6"/></g>
<g transform="translate(382.375,106.375) scale(3.9483333333333)"><rect width="6" height="6"/></g>
<g transform="translate(451.375,106.375) scale(3.9483333333333)"><rect width="6" height="6"/></g>
<g transform="translate(474.375,106.375) scale(3.9483333333333)"><rect width="6" height="6"/></g>
<g transform="translate(497.375,106.375) scale(3.9483333333333)"><rect width="6" height="6"/></g>
<g transform="translate(520.375,106.375) scale(3.9483333333333)"><rect width="6" height="6"/></g>
<g transform="translate(543.375,106.375) scale(3.9483333333333)"><rect width="6" height="6"/></g>
<g transform="translate(566.375,106.375) scale(3.9483333333333)"><rect width="6" height="6"/></g>
<g transform="translate(612.375,106.375) scale(3.9483333333333)"><rect width="6" height="6"/></g>
<g transform="translate(635.375,106.375) scale(3.9483333333333)"><rect width="6" height="6"/></g>
<g transform="translate(681.375,106.375) scale(3.9483333333333)"><rect width="6" height="6"/></g>
<g transform="translate(750.375,106.375) scale(3.9483333333333)"><rect width="6" height="6"/></g>
<g transform="translate(290.375,129.375) scale(3.9483333333333)"><rect width="6" height="6"/></g>
<g transform="translate(382.375,129.375) scale(3.9483333333333)"><rect width="6" height="6"/></g>
<g transform="translate(451.375,129.375) scale(3.9483333333333)"><rect width="6" height="6"/></g>
<g transform="translate(497.375,129.375) scale(3.9483333333333)"><rect width="6" height="6"/></g>
<g transform="translate(520.375,129.375) scale(3.9483333333333)"><rect width="6" height="6"/></g>
<g transform="translate(589.375,129.375) scale(3.9483333333333)"><rect width="6" height="6"/></g>
<g transform="translate(635.375,129.375) scale(3.9483333333333)"><rect width="6" height="6"/></g>
<g transform="translate(658.375,129.375) scale(3.9483333333333)"><rect width="6" height="6"/></g>
<g transform="translate(681.375,129.375) scale(3.9483333333333)"><rect width="6" height="6"/></g>
<g transform="translate(704.375,129.375) scale(3.9483333333333)"><rect width="6" height="6"/></g>
<g transform="translate(727.375,129.375) scale(3.9483333333333)"><rect width="6" height="6"/></g>
<g transform="translate(290.375,152.375) scale(3.9483333333333)"><rect width="6" height="6"/></g>
<g transform="translate(313.375,152.375) scale(3.9483333333333)"><rect width="6" height="6"/></g>
<g transform="translate(336.375,152.375) scale(3.9483333333333)"><rect width="6" height="6"/></g>
<g transform="translate(359.375,152.375) scale(3.9483333333333)"><rect width="6" height="6"/></g>
<g transform="translate(405.375,152.375) scale(3.9483333333333)"><rect width="6" height="6"/></g>
<g transform="translate(428.375,152.375) scale(3.9483333333333)"><rect width="6" height="6"/></g>
<g transform="translate(451.375,152.375) scale(3.9483333333333)"><rect width="6" height="6"/></g>
<g transform="translate(497.375,152.375) scale(3.9483333333333)"><rect width="6" height="6"/></g>
<g transform="translate(520.375,152.375) scale(3.9483333333333)"><rect width="6" height="6"/></g>
<g transform="translate(566.375,152.375) scale(3.9483333333333)"><rect width="6" height="6"/></g>
<g transform="translate(589.375,152.375) scale(3.9483333333333)"><rect width="6" height="6"/></g>
<g transform="translate(612.375,152.375) scale(3.9483333333333)"><rect width="6" height="6"/></g>
<g transform="translate(658.375,152.375) scale(3.9483333333333)"><rect width="6" height="6"/></g>
<g transform="translate(727.375,152.375) scale(3.9483333333333)"><rect width="6" height="6"/></g>
<g transform="translate(382.375,175.375) scale(3.9483333333333)"><rect width="6" height="6"/></g>
<g transform="translate(405.375,175.375) scale(3.9483333333333)"><rect width="6" height="6"/></g>
<g transform="translate(520.375,175.375) scale(3.9483333333333)"><rect width="6" height="6"/></g>
<g transform="translate(543.375,175.375) scale(3.9483333333333)"><rect width="6" height="6"/></g>
<g transform="translate(566.375,175.375) scale(3.9483333333333)"><rect width="6" height="6"/></g>
<g transform="translate(589.375,175.375) scale(3.9483333333333)"><rect width="6" height="6"/></g>
<g transform="translate(658.375,175.375) scale(3.9483333333333)"><rect width="6" height="6"/></g>
<g transform="translate(681.375,175.375) scale(3.9483333333333)"><rect width="6" height="6"/></g>
<g transform="translate(704.375,175.375) scale(3.9483333333333)"><rect width="6" height="6"/></g>
<g transform="translate(428.375,198.375) scale(3.9483333333333)"><rect width="6" height="6"/></g>
<g transform="translate(543.375,198.375) scale(3.9483333333333)"><rect width="6" height="6"/></g>
<g transform="translate(635.375,198.375) scale(3.9483333333333)"><rect width="6" height="6"/></g>
<g transform="translate(704.375,198.375) scale(3.9483333333333)"><rect width="6" height="6"/></g>
<g transform="translate(290.375,221.375) scale(3.9483333333333)"><rect width="6" height="6"/></g>
<g transform="translate(382.375,221.375) scale(3.9483333333333)"><rect width="6" height="6"/></g>
<g transform="translate(474.375,221.375) scale(3.9483333333333)"><rect width="6" height="6"/></g>
<g transform="translate(543.375,221.375) scale(3.9483333333333)"><rect width="6" height="6"/></g>
<g transform="translate(566.375,221.375) scale(3.9483333333333)"><rect width="6" height="6"/></g>
<g transform="translate(589.375,221.375) scale(3.9483333333333)"><rect width="6" height="6"/></g>
<g transform="translate(612.375,221.375) scale(3.9483333333333)"><rect width="6" height="6"/></g>
<g transform="translate(635.375,221.375) scale(3.9483333333333)"><rect width="6" height="6"/></g>
<g transform="translate(658.375,221.375) scale(3.9483333333333)"><rect width="6" height="6"/></g>
<g transform="translate(727.375,221.375) scale(3.9483333333333)"><rect width="6" height="6"/></g>
<g transform="translate(750.375,221.375) scale(3.9483333333333)"><rect width="6" height="6"/></g>
<g transform="translate(290.375,244.375) scale(3.9483333333333)"><rect width="6" height="6"/></g>
<g transform="translate(336.375,244.375) scale(3.9483333333333)"><rect width="6" height="6"/></g>
<g transform="translate(382.375,244.375) scale(3.9483333333333)"><rect width="6" height="6"/></g>
<g transform="translate(428.375,244.375) scale(3.9483333333333)"><rect width="6" height="6"/></g>
<g transform="translate(474.375,244.375) scale(3.9483333333333)"><rect width="6" height="6"/></g>
<g transform="translate(520.375,244.375) scale(3.9483333333333)"><rect width="6" height="6"/></g>
<g transform="translate(566.375,244.375) scale(3.9483333333333)"><rect width="6" height="6"/></g>
<g transform="translate(612.375,244.375) scale(3.9483333333333)"><rect width="6" height="6"/></g>
<g transform="translate(658.375,244.375) scale(3.9483333333333)"><rect width="6" height="6"/></g>
<g transform="translate(704.375,244.375) scale(3.9483333333333)"><rect width="6" height="6"/></g>
<g transform="translate(750.375,244.375) scale(3.9483333333333)"><rect width="6" height="6"/></g>
<g transform="translate(290.375,267.375) scale(3.9483333333333)"><rect width="6" height="6"/></g>
<g transform="translate(336.375,267.375) scale(3.9483333333333)"><rect width="6" height="6"/></g>
<g transform="translate(359.375,267.375) scale(3.9483333333333)"><rect width="6" height="6"/></g>
<g transform="translate(428.375,267.375) scale(3.9483333333333)"><rect width="6" height="6"/></g>
<g transform="translate(566.375,267.375) scale(3.9483333333333)"><rect width="6" height="6"/></g>
<g transform="translate(658.375,267.375) scale(3.9483333333333)"><rect width="6" height="6"/></g>
<g transform="translate(704.375,267.375) scale(3.9483333333333)"><rect width="6" height="6"/></g>
<g transform="translate(750.375,267.375) scale(3.9483333333333)"><rect width="6" height="6"/></g>
<g transform="translate(152.375,290.375) scale(3.9483333333333)"><rect width="6" height="6"/></g>
<g transform="translate(175.375,290.375) scale(3.9483333333333)"><rect width="6" height="6"/></g>
<g transform="translate(198.375,290.375) scale(3.9483333333333)"><rect width="6" height="6"/></g>
<g transform="translate(244.375,290.375) scale(3.9483333333333)"><rect width="6" height="6"/></g>
<g transform="translate(290.375,290.375) scale(3.9483333333333)"><rect width="6" height="6"/></g>
<g transform="translate(359.375,290.375) scale(3.9483333333333)"><rect width="6" height="6"/></g>
<g transform="translate(405.375,290.375) scale(3.9483333333333)"><rect width="6" height="6"/></g>
<g transform="translate(428.375,290.375) scale(3.9483333333333)"><rect width="6" height="6"/></g>
<g transform="translate(520.375,290.375) scale(3.9483333333333)"><rect width="6" height="6"/></g>
<g transform="translate(543.375,290.375) scale(3.9483333333333)"><rect width="6" height="6"/></g>
<g transform="translate(589.375,290.375) scale(3.9483333333333)"><rect width="6" height="6"/></g>
<g transform="translate(635.375,290.375) scale(3.9483333333333)"><rect width="6" height="6"/></g>
<g transform="translate(773.375,290.375) scale(3.9483333333333)"><rect width="6" height="6"/></g>
<g transform="translate(796.375,290.375) scale(3.9483333333333)"><rect width="6" height="6"/></g>
<g transform="translate(819.375,290.375) scale(3.9483333333333)"><rect width="6" height="6"/></g>
<g transform="translate(888.375,290.375) scale(3.9483333333333)"><rect width="6" height="6"/></g>
<g transform="translate(911.375,290.375) scale(3.9483333333333)"><rect width="6" height="6"/></g>
<g transform="translate(934.375,290.375) scale(3.9483333333333)"><rect width="6" height="6"/></g>
<g transform="translate(106.375,313.375) scale(3.9483333333333)"><rect width="6" height="6"/></g>
<g transform="translate(152.375,313.375) scale(3.9483333333333)"><rect width="6" height="6"/></g>
<g transform="translate(198.375,313.375) scale(3.9483333333333)"><rect width="6" height="6"/></g>
<g transform="translate(221.375,313.375) scale(3.9483333333333)"><rect width="6" height="6"/></g>
<g transform="translate(359.375,313.375) scale(3.9483333333333)"><rect width="6" height="6"/></g>
<g transform="translate(382.375,313.375) scale(3.9483333333333)"><rect width="6" height="6"/></g>
<g transform="translate(428.375,313.375) scale(3.9483333333333)"><rect width="6" height="6"/></g>
<g transform="translate(451.375,313.375) scale(3.9483333333333)"><rect width="6" height="6"/></g>
<g transform="translate(474.375,313.375) scale(3.9483333333333)"><rect width="6" height="6"/></g>
<g transform="translate(566.375,313.375) scale(3.9483333333333)"><rect width="6" height="6"/></g>
<g transform="translate(589.375,313.375) scale(3.9483333333333)"><rect width="6" height="6"/></g>
<g transform="translate(635.375,313.375) scale(3.9483333333333)"><rect width="6" height="6"/></g>
<g transform="translate(681.375,313.375) scale(3.9483333333333)"><rect width="6" height="6"/></g>
<g transform="translate(704.375,313.375) scale(3.9483333333333)"><rect width="6" height="6"/></g>
<g transform="translate(727.375,313.375) scale(3.9483333333333)"><rect width="6" height="6"/></g>
<g transform="translate(750.375,313.375) scale(3.9483333333333)"><rect width="6" height="6"/></g>
<g transform="translate(773.375,313.375) scale(3.9483333333333)"><rect width="6" height="6"/></g>
<g transform="translate(796.375,313.375) scale(3.9483333333333)"><rect width="6" height="6"/></g>
<g transform="translate(175.375,336.375) scale(3.9483333333333)"><rect width="6" height="6"/></g>
<g transform="translate(198.375,336.375) scale(3.9483333333333)"><rect width="6" height="6"/></g>
<g transform="translate(221.375,336.375) scale(3.9483333333333)"><rect width="6" height="6"/></g>
<g transform="translate(244.375,336.375) scale(3.9483333333333)"><rect width="6" height="6"/></g>
<g transform="translate(290.375,336.375) scale(3.9483333333333)"><rect width="6" height="6"/></g>
<g transform="translate(313.375,336.375) scale(3.9483333333333)"><rect width="6" height="6"/></g>
<g transform="translate(336.375,336.375) scale(3.9483333333333)"><rect width="6" height="6"/></g>
<g transform="translate(359.375,336.375) scale(3.9483333333333)"><rect width="6" height="6"/></g>
<g transform="translate(382.375,336.375) scale(3.9483333333333)"><rect width="6" height="6"/></g>
<g transform="translate(405.375,336.375) scale(3.9483333333333)"><rect width="6" height="6"/></g>
<g transform="translate(428.375,336.375) scale(3.9483333333333)"><rect width="6" height="6"/></g>
<g transform="translate(497.375,336.375) scale(3.9483333333333)"><rect width="6" height="6"/></g>
<g transform="translate(520.375,336.375) scale(3.9483333333333)"><rect width="6" height="6"/></g>
<g transform="translate(543.375,336.375) scale(3.9483333333333)"><rect width="6" height="6"/></g>
<g transform="translate(566.375,336.375) scale(3.9483333333333)"><rect width="6" height="6"/></g>
<g transform="translate(589.375,336.375) scale(3.9483333333333)"><rect width="6" height="6"/></g>
<g transform="translate(681.375,336.375) scale(3.9483333333333)"><rect width="6" height="6"/></g>
<g transform="translate(704.375,336.375) scale(3.9483333333333)"><rect width="6" height="6"/></g>
<g transform="translate(796.375,336.375) scale(3.9483333333333)"><rect width="6" height="6"/></g>
<g transform="translate(819.375,336.375) scale(3.9483333333333)"><rect width="6" height="6"/></g>
<g transform="translate(888.375,336.375) scale(3.9483333333333)"><rect width="6" height="6"/></g>
<g transform="translate(911.375,336.375) scale(3.9483333333333)"><rect width="6" height="6"/></g>
<g transform="translate(934.375,336.375) scale(3.9483333333333)"><rect width="6" height="6"/></g>
<g transform="translate(106.375,359.375) scale(3.9483333333333)"><rect width="6" height="6"/></g>
<g transform="translate(175.375,359.375) scale(3.9483333333333)"><rect width="6" height="6"/></g>
<g transform="translate(198.375,359.375) scale(3.9483333333333)"><rect width="6" height="6"/></g>
<g transform="translate(267.375,359.375) scale(3.9483333333333)"><rect width="6" height="6"/></g>
<g transform="translate(290.375,359.375) scale(3.9483333333333)"><rect width="6" height="6"/></g>
<g transform="translate(313.375,359.375) scale(3.9483333333333)"><rect width="6" height="6"/></g>
<g transform="translate(359.375,359.375) scale(3.9483333333333)"><rect width="6" height="6"/></g>
<g transform="translate(382.375,359.375) scale(3.9483333333333)"><rect width="6" height="6"/></g>
<g transform="translate(405.375,359.375) scale(3.9483333333333)"><rect width="6" height="6"/></g>
<g transform="translate(451.375,359.375) scale(3.9483333333333)"><rect width="6" height="6"/></g>
<g transform="translate(474.375,359.375) scale(3.9483333333333)"><rect width="6" height="6"/></g>
<g transform="translate(566.375,359.375) scale(3.9483333333333)"><rect width="6" height="6"/></g>
<g transform="translate(589.375,359.375) scale(3.9483333333333)"><rect width="6" height="6"/></g>
<g transform="translate(612.375,359.375) scale(3.9483333333333)"><rect width="6" height="6"/></g>
<g transform="translate(658.375,359.375) scale(3.9483333333333)"><rect width="6" height="6"/></g>
<g transform="translate(704.375,359.375) scale(3.9483333333333)"><rect width="6" height="6"/></g>
<g transform="translate(750.375,359.375) scale(3.9483333333333)"><rect width="6" height="6"/></g>
<g transform="translate(796.375,359.375) scale(3.9483333333333)"><rect width="6" height="6"/></g>
<g transform="translate(934.375,359.375) scale(3.9483333333333)"><rect width="6" height="6"/></g>
<g transform="translate(106.375,382.375) scale(3.9483333333333)"><rect width="6" height="6"/></g>
<g transform="translate(129.375,382.375) scale(3.9483333333333)"><rect width="6" height="6"/></g>
<g transform="translate(152.375,382.375) scale(3.9483333333333)"><rect width="6" height="6"/></g>
<g transform="translate(175.375,382.375) scale(3.9483333333333)"><rect width="6" height="6"/></g>
<g transform="translate(198.375,382.375) scale(3.9483333333333)"><rect width="6" height="6"/></g>
<g transform="translate(244.375,382.375) scale(3.9483333333333)"><rect width="6" height="6"/></g>
<g transform="translate(267.375,382.375) scale(3.9483333333333)"><rect width="6" height="6"/></g>
<g transform="translate(290.375,382.375) scale(3.9483333333333)"><rect width="6" height="6"/></g>
<g transform="translate(313.375,382.375) scale(3.9483333333333)"><rect width="6" height="6"/></g>
<g transform="translate(382.375,382.375) scale(3.9483333333333)"><rect width="6" height="6"/></g>
<g transform="translate(405.375,382.375) scale(3.9483333333333)"><rect width="6" height="6"/></g>
<g transform="translate(497.375,382.375) scale(3.9483333333333)"><rect width="6" height="6"/></g>
<g transform="translate(566.375,382.375) scale(3.9483333333333)"><rect width="6" height="6"/></g>
<g transform="translate(635.375,382.375) scale(3.9483333333333)"><rect width="6" height="6"/></g>
<g transform="translate(681.375,382.375) scale(3.9483333333333)"><rect width="6" height="6"/></g>
<g transform="translate(704.375,382.375) scale(3.9483333333333)"><rect width="6" height="6"/></g>
<g transform="translate(773.375,382.375) scale(3.9483333333333)"><rect width="6" height="6"/></g>
<g transform="translate(796.375,382.375) scale(3.9483333333333)"><rect width="6" height="6"/></g>
<g transform="translate(842.375,382.375) scale(3.9483333333333)"><rect width="6" height="6"/></g>
<g transform="translate(888.375,382.375) scale(3.9483333333333)"><rect width="6" height="6"/></g>
<g transform="translate(911.375,382.375) scale(3.9483333333333)"><rect width="6" height="6"/></g>
<g transform="translate(934.375,382.375) scale(3.9483333333333)"><rect width="6" height="6"/></g>
<g transform="translate(106.375,405.375) scale(3.9483333333333)"><rect width="6" height="6"/></g>
<g transform="translate(129.375,405.375) scale(3.9483333333333)"><rect width="6" height="6"/></g>
<g transform="translate(175.375,405.375) scale(3.9483333333333)"><rect width="6" height="6"/></g>
<g transform="translate(198.375,405.375) scale(3.9483333333333)"><rect width="6" height="6"/></g>
<g transform="translate(313.375,405.375) scale(3.9483333333333)"><rect width="6" height="6"/></g>
<g transform="translate(336.375,405.375) scale(3.9483333333333)"><rect width="6" height="6"/></g>
<g transform="translate(359.375,405.375) scale(3.9483333333333)"><rect width="6" height="6"/></g>
<g transform="translate(405.375,405.375) scale(3.9483333333333)"><rect width="6" height="6"/></g>
<g transform="translate(612.375,405.375) scale(3.9483333333333)"><rect width="6" height="6"/></g>
<g transform="translate(658.375,405.375) scale(3.9483333333333)"><rect width="6" height="6"/></g>
<g transform="translate(704.375,405.375) scale(3.9483333333333)"><rect width="6" height="6"/></g>
<g transform="translate(750.375,405.375) scale(3.9483333333333)"><rect width="6" height="6"/></g>
<g transform="translate(773.375,405.375) scale(3.9483333333333)"><rect width="6" height="6"/></g>
<g transform="translate(819.375,405.375) scale(3.9483333333333)"><rect width="6" height="6"/></g>
<g transform="translate(865.375,405.375) scale(3.9483333333333)"><rect width="6" height="6"/></g>
<g transform="translate(888.375,405.375) scale(3.9483333333333)"><rect width="6" height="6"/></g>
<g transform="translate(106.375,428.375) scale(3.9483333333333)"><rect width="6" height="6"/></g>
<g transform="translate(198.375,428.375) scale(3.9483333333333)"><rect width="6" height="6"/></g>
<g transform="translate(221.375,428.375) scale(3.9483333333333)"><rect width="6" height="6"/></g>
<g transform="translate(244.375,428.375) scale(3.9483333333333)"><rect width="6" height="6"/></g>
<g transform="translate(290.375,428.375) scale(3.9483333333333)"><rect width="6" height="6"/></g>
<g transform="translate(313.375,428.375) scale(3.9483333333333)"><rect width="6" height="6"/></g>
<g transform="translate(359.375,428.375) scale(3.9483333333333)"><rect width="6" height="6"/></g>
<g transform="translate(382.375,428.375) scale(3.9483333333333)"><rect width="6" height="6"/></g>
<g transform="translate(428.375,428.375) scale(3.9483333333333)"><rect width="6" height="6"/></g>
<g transform="translate(451.375,428.375) scale(3.9483333333333)"><rect width="6" height="6"/></g>
<g transform="translate(497.375,428.375) scale(3.9483333333333)"><rect width="6" height="6"/></g>
<g transform="translate(566.375,428.375) scale(3.9483333333333)"><rect width="6" height="6"/></g>
<g transform="translate(589.375,428.375) scale(3.9483333333333)"><rect width="6" height="6"/></g>
<g transform="translate(635.375,428.375) scale(3.9483333333333)"><rect width="6" height="6"/></g>
<g transform="translate(658.375,428.375) scale(3.9483333333333)"><rect width="6" height="6"/></g>
<g transform="translate(704.375,428.375) scale(3.9483333333333)"><rect width="6" height="6"/></g>
<g transform="translate(727.375,428.375) scale(3.9483333333333)"><rect width="6" height="6"/></g>
<g transform="translate(750.375,428.375) scale(3.9483333333333)"><rect width="6" height="6"/></g>
<g transform="translate(796.375,428.375) scale(3.9483333333333)"><rect width="6" height="6"/></g>
<g transform="translate(842.375,428.375) scale(3.9483333333333)"><rect width="6" height="6"/></g>
<g transform="translate(865.375,428.375) scale(3.9483333333333)"><rect width="6" height="6"/></g>
<g transform="translate(911.375,428.375) scale(3.9483333333333)"><rect width="6" height="6"/></g>
<g transform="translate(934.375,428.375) scale(3.9483333333333)"><rect width="6" height="6"/></g>
<g transform="translate(152.375,451.375) scale(3.9483333333333)"><rect width="6" height="6"/></g>
<g transform="translate(221.375,451.375) scale(3.9483333333333)"><rect width="6" height="6"/></g>
<g transform="translate(267.375,451.375) scale(3.9483333333333)"><rect width="6" height="6"/></g>
<g transform="translate(290.375,451.375) scale(3.9483333333333)"><rect width="6" height="6"/></g>
<g transform="translate(336.375,451.375) scale(3.9483333333333)"><rect width="6" height="6"/></g>
<g transform="translate(382.375,451.375) scale(3.9483333333333)"><rect width="6" height="6"/></g>
<g transform="translate(405.375,451.375) scale(3.9483333333333)"><rect width="6" height="6"/></g>
<g transform="translate(451.375,451.375) scale(3.9483333333333)"><rect width="6" height="6"/></g>
<g transform="translate(497.375,451.375) scale(3.9483333333333)"><rect width="6" height="6"/></g>
<g transform="translate(543.375,451.375) scale(3.9483333333333)"><rect width="6" height="6"/></g>
<g transform="translate(612.375,451.375) scale(3.9483333333333)"><rect width="6" height="6"/></g>
<g transform="translate(658.375,451.375) scale(3.9483333333333)"><rect width="6" height="6"/></g>
<g transform="translate(704.375,451.375) scale(3.9483333333333)"><rect width="6" height="6"/></g>
<g transform="translate(750.375,451.375) scale(3.9483333333333)"><rect width="6" height="6"/></g>
<g transform="translate(911.375,451.375) scale(3.9483333333333)"><rect width="6" height="6"/></g>
<g transform="translate(934.375,451.375) scale(3.9483333333333)"><rect width="6" height="6"/></g>
<g transform="translate(106.375,474.375) scale(3.9483333333333)"><rect width="6" height="6"/></g>
<g transform="translate(129.375,474.375) scale(3.9483333333333)"><rect width="6" height="6"/></g>
<g transform="translate(152.375,474.375) scale(3.9483333333333)"><rect width="6" height="6"/></g>
<g transform="translate(175.375,474.375) scale(3.9483333333333)"><rect width="6" height="6"/></g>
<g transform="translate(244.375,474.375) scale(3.9483333333333)"><rect width="6" height="6"/></g>
<g transform="translate(267.375,474.375) scale(3.9483333333333)"><rect width="6" height="6"/></g>
<g transform="translate(290.375,474.375) scale(3.9483333333333)"><rect width="6" height="6"/></g>
<g transform="translate(336.375,474.375) scale(3.9483333333333)"><rect width="6" height="6"/></g>
<g transform="translate(382.375,474.375) scale(3.9483333333333)"><rect width="6" height="6"/></g>
<g transform="translate(405.375,474.375) scale(3.9483333333333)"><rect width="6" height="6"/></g>
<g transform="translate(451.375,474.375) scale(3.9483333333333)"><rect width="6" height="6"/></g>
<g transform="translate(474.375,474.375) scale(3.9483333333333)"><rect width="6" height="6"/></g>
<g transform="translate(520.375,474.375) scale(3.9483333333333)"><rect width="6" height="6"/></g>
<g transform="translate(566.375,474.375) scale(3.9483333333333)"><rect width="6" height="6"/></g>
<g transform="translate(589.375,474.375) scale(3.9483333333333)"><rect width="6" height="6"/></g>
<g transform="translate(635.375,474.375) scale(3.9483333333333)"><rect width="6" height="6"/></g>
<g transform="translate(681.375,474.375) scale(3.9483333333333)"><rect width="6" height="6"/></g>
<g transform="translate(704.375,474.375) scale(3.9483333333333)"><rect width="6" height="6"/></g>
<g transform="translate(773.375,474.375) scale(3.9483333333333)"><rect width="6" height="6"/></g>
<g transform="translate(796.375,474.375) scale(3.9483333333333)"><rect width="6" height="6"/></g>
<g transform="translate(819.375,474.375) scale(3.9483333333333)"><rect width="6" height="6"/></g>
<g transform="translate(842.375,474.375) scale(3.9483333333333)"><rect width="6" height="6"/></g>
<g transform="translate(888.375,474.375) scale(3.9483333333333)"><rect width="6" height="6"/></g>
<g transform="translate(106.375,497.375) scale(3.9483333333333)"><rect width="6" height="6"/></g>
<g transform="translate(175.375,497.375) scale(3.9483333333333)"><rect width="6" height="6"/></g>
<g transform="translate(221.375,497.375) scale(3.9483333333333)"><rect width="6" height="6"/></g>
<g transform="translate(313.375,497.375) scale(3.9483333333333)"><rect width="6" height="6"/></g>
<g transform="translate(336.375,497.375) scale(3.9483333333333)"><rect width="6" height="6"/></g>
<g transform="translate(405.375,497.375) scale(3.9483333333333)"><rect width="6" height="6"/></g>
<g transform="translate(451.375,497.375) scale(3.9483333333333)"><rect width="6" height="6"/></g>
<g transform="translate(566.375,497.375) scale(3.9483333333333)"><rect width="6" height="6"/></g>
<g transform="translate(589.375,497.375) scale(3.9483333333333)"><rect width="6" height="6"/></g>
<g transform="translate(612.375,497.375) scale(3.9483333333333)"><rect width="6" height="6"/></g>
<g transform="translate(635.375,497.375) scale(3.9483333333333)"><rect width="6" height="6"/></g>
<g transform="translate(658.375,497.375) scale(3.9483333333333)"><rect width="6" height="6"/></g>
<g transform="translate(750.375,497.375) scale(3.9483333333333)"><rect width="6" height="6"/></g>
<g transform="translate(819.375,497.375) scale(3.9483333333333)"><rect width="6" height="6"/></g>
<g transform="translate(129.375,520.375) scale(3.9483333333333)"><rect width="6" height="6"/></g>
<g transform="translate(152.375,520.375) scale(3.9483333333333)"><rect width="6" height="6"/></g>
<g transform="translate(221.375,520.375) scale(3.9483333333333)"><rect width="6" height="6"/></g>
<g transform="translate(244.375,520.375) scale(3.9483333333333)"><rect width="6" height="6"/></g>
<g transform="translate(267.375,520.375) scale(3.9483333333333)"><rect width="6" height="6"/></g>
<g transform="translate(359.375,520.375) scale(3.9483333333333)"><rect width="6" height="6"/></g>
<g transform="translate(497.375,520.375) scale(3.9483333333333)"><rect width="6" height="6"/></g>
<g transform="translate(543.375,520.375) scale(3.9483333333333)"><rect width="6" height="6"/></g>
<g transform="translate(566.375,520.375) scale(3.9483333333333)"><rect width="6" height="6"/></g>
<g transform="translate(612.375,520.375) scale(3.9483333333333)"><rect width="6" height="6"/></g>
<g transform="translate(658.375,520.375) scale(3.9483333333333)"><rect width="6" height="6"/></g>
<g transform="translate(704.375,520.375) scale(3.9483333333333)"><rect width="6" height="6"/></g>
<g transform="translate(727.375,520.375) scale(3.9483333333333)"><rect width="6" height="6"/></g>
<g transform="translate(750.375,520.375) scale(3.9483333333333)"><rect width="6" height="6"/></g>
<g transform="translate(819.375,520.375) scale(3.9483333333333)"><rect width="6" height="6"/></g>
<g transform="translate(842.375,520.375) scale(3.9483333333333)"><rect width="6" height="6"/></g>
<g transform="translate(865.375,520.375) scale(3.9483333333333)"><rect width="6" height="6"/></g>
<g transform="translate(911.375,520.375) scale(3.9483333333333)"><rect width="6" height="6"/></g>
<g transform="translate(934.375,520.375) scale(3.9483333333333)"><rect width="6" height="6"/></g>
<g transform="translate(106.375,543.375) scale(3.9483333333333)"><rect width="6" height="6"/></g>
<g transform="translate(129.375,543.375) scale(3.9483333333333)"><rect width="6" height="6"/></g>
<g transform="translate(152.375,543.375) scale(3.9483333333333)"><rect width="6" height="6"/></g>
<g transform="translate(198.375,543.375) scale(3.9483333333333)"><rect width="6" height="6"/></g>
<g transform="translate(221.375,543.375) scale(3.9483333333333)"><rect width="6" height="6"/></g>
<g transform="translate(267.375,543.375) scale(3.9483333333333)"><rect width="6" height="6"/></g>
<g transform="translate(313.375,543.375) scale(3.9483333333333)"><rect width="6" height="6"/></g>
<g transform="translate(382.375,543.375) scale(3.9483333333333)"><rect width="6" height="6"/></g>
<g transform="translate(405.375,543.375) scale(3.9483333333333)"><rect width="6" height="6"/></g>
<g transform="translate(566.375,543.375) scale(3.9483333333333)"><rect width="6" height="6"/></g>
<g transform="translate(589.375,543.375) scale(3.9483333333333)"><rect width="6" height="6"/></g>
<g transform="translate(612.375,543.375) scale(3.9483333333333)"><rect width="6" height="6"/></g>
<g transform="translate(635.375,543.375) scale(3.9483333333333)"><rect width="6" height="6"/></g>
<g transform="translate(658.375,543.375) scale(3.9483333333333)"><rect width="6" height="6"/></g>
<g transform="translate(750.375,543.375) scale(3.9483333333333)"><rect width="6" height="6"/></g>
<g transform="translate(773.375,543.375) scale(3.9483333333333)"><rect width="6" height="6"/></g>
<g transform="translate(796.375,543.375) scale(3.9483333333333)"><rect width="6" height="6"/></g>
<g transform="translate(819.375,543.375) scale(3.9483333333333)"><rect width="6" height="6"/></g>
<g transform="translate(842.375,543.375) scale(3.9483333333333)"><rect width="6" height="6"/></g>
<g transform="translate(865.375,543.375) scale(3.9483333333333)"><rect width="6" height="6"/></g>
<g transform="translate(911.375,543.375) scale(3.9483333333333)"><rect width="6" height="6"/></g>
<g transform="translate(106.375,566.375) scale(3.9483333333333)"><rect width="6" height="6"/></g>
<g transform="translate(152.375,566.375) scale(3.9483333333333)"><rect width="6" height="6"/></g>
<g transform="translate(175.375,566.375) scale(3.9483333333333)"><rect width="6" height="6"/></g>
<g transform="translate(198.375,566.375) scale(3.9483333333333)"><rect width="6" height="6"/></g>
<g transform="translate(221.375,566.375) scale(3.9483333333333)"><rect width="6" height="6"/></g>
<g transform="translate(244.375,566.375) scale(3.9483333333333)"><rect width="6" height="6"/></g>
<g transform="translate(267.375,566.375) scale(3.9483333333333)"><rect width="6" height="6"/></g>
<g transform="translate(290.375,566.375) scale(3.9483333333333)"><rect width="6" height="6"/></g>
<g transform="translate(336.375,566.375) scale(3.9483333333333)"><rect width="6" height="6"/></g>
<g transform="translate(382.375,566.375) scale(3.9483333333333)"><rect width="6" height="6"/></g>
<g transform="translate(405.375,566.375) scale(3.9483333333333)"><rect width="6" height="6"/></g>
<g transform="translate(497.375,566.375) scale(3.9483333333333)"><rect width="6" height="6"/></g>
<g transform="translate(566.375,566.375) scale(3.9483333333333)"><rect width="6" height="6"/></g>
<g transform="translate(589.375,566.375) scale(3.9483333333333)"><rect width="6" height="6"/></g>
<g transform="translate(635.375,566.375) scale(3.9483333333333)"><rect width="6" height="6"/></g>
<g transform="translate(681.375,566.375) scale(3.9483333333333)"><rect width="6" height="6"/></g>
<g transform="translate(704.375,566.375) scale(3.9483333333333)"><rect width="6" height="6"/></g>
<g transform="translate(796.375,566.375) scale(3.9483333333333)"><rect width="6" height="6"/></g>
<g transform="translate(819.375,566.375) scale(3.9483333333333)"><rect width="6" height="6"/></g>
<g transform="translate(842.375,566.375) scale(3.9483333333333)"><rect width="6" height="6"/></g>
<g transform="translate(865.375,566.375) scale(3.9483333333333)"><rect width="6" height="6"/></g>
<g transform="translate(888.375,566.375) scale(3.9483333333333)"><rect width="6" height="6"/></g>
<g transform="translate(934.375,566.375) scale(3.9483333333333)"><rect width="6" height="6"/></g>
<g transform="translate(221.375,589.375) scale(3.9483333333333)"><rect width="6" height="6"/></g>
<g transform="translate(267.375,589.375) scale(3.9483333333333)"><rect width="6" height="6"/></g>
<g transform="translate(290.375,589.375) scale(3.9483333333333)"><rect width="6" height="6"/></g>
<g transform="translate(313.375,589.375) scale(3.9483333333333)"><rect width="6" height="6"/></g>
<g transform="translate(336.375,589.375) scale(3.9483333333333)"><rect width="6" height="6"/></g>
<g transform="translate(359.375,589.375) scale(3.9483333333333)"><rect width="6" height="6"/></g>
<g transform="translate(382.375,589.375) scale(3.9483333333333)"><rect width="6" height="6"/></g>
<g transform="translate(405.375,589.375) scale(3.9483333333333)"><rect width="6" height="6"/></g>
<g transform="translate(428.375,589.375) scale(3.9483333333333)"><rect width="6" height="6"/></g>
<g transform="translate(474.375,589.375) scale(3.9483333333333)"><rect width="6" height="6"/></g>
<g transform="translate(497.375,589.375) scale(3.9483333333333)"><rect width="6" height="6"/></g>
<g transform="translate(543.375,589.375) scale(3.9483333333333)"><rect width="6" height="6"/></g>
<g transform="translate(566.375,589.375) scale(3.9483333333333)"><rect width="6" height="6"/></g>
<g transform="translate(635.375,589.375) scale(3.9483333333333)"><rect width="6" height="6"/></g>
<g transform="translate(658.375,589.375) scale(3.9483333333333)"><rect width="6" height="6"/></g>
<g transform="translate(681.375,589.375) scale(3.9483333333333)"><rect width="6" height="6"/></g>
<g transform="translate(819.375,589.375) scale(3.9483333333333)"><rect width="6" height="6"/></g>
<g transform="translate(865.375,589.375) scale(3.9483333333333)"><rect width="6" height="6"/></g>
<g transform="translate(888.375,589.375) scale(3.9483333333333)"><rect width="6" height="6"/></g>
<g transform="translate(129.375,612.375) scale(3.9483333333333)"><rect width="6" height="6"/></g>
<g transform="translate(152.375,612.375) scale(3.9483333333333)"><rect width="6" height="6"/></g>
<g transform="translate(198.375,612.375) scale(3.9483333333333)"><rect width="6" height="6"/></g>
<g transform="translate(244.375,612.375) scale(3.9483333333333)"><rect width="6" height="6"/></g>
<g transform="translate(290.375,612.375) scale(3.9483333333333)"><rect width="6" height="6"/></g>
<g transform="translate(382.375,612.375) scale(3.9483333333333)"><rect width="6" height="6"/></g>
<g transform="translate(428.375,612.375) scale(3.9483333333333)"><rect width="6" height="6"/></g>
<g transform="translate(451.375,612.375) scale(3.9483333333333)"><rect width="6" height="6"/></g>
<g transform="translate(497.375,612.375) scale(3.9483333333333)"><rect width="6" height="6"/></g>
<g transform="translate(520.375,612.375) scale(3.9483333333333)"><rect width="6" height="6"/></g>
<g transform="translate(543.375,612.375) scale(3.9483333333333)"><rect width="6" height="6"/></g>
<g transform="translate(566.375,612.375) scale(3.9483333333333)"><rect width="6" height="6"/></g>
<g transform="translate(589.375,612.375) scale(3.9483333333333)"><rect width="6" height="6"/></g>
<g transform="translate(612.375,612.375) scale(3.9483333333333)"><rect width="6" height="6"/></g>
<g transform="translate(681.375,612.375) scale(3.9483333333333)"><rect width="6" height="6"/></g>
<g transform="translate(704.375,612.375) scale(3.9483333333333)"><rect width="6" height="6"/></g>
<g transform="translate(727.375,612.375) scale(3.9483333333333)"><rect width="6" height="6"/></g>
<g transform="translate(773.375,612.375) scale(3.9483333333333)"><rect width="6" height="6"/></g>
<g transform="translate(865.375,612.375) scale(3.9483333333333)"><rect width="6" height="6"/></g>
<g transform="translate(911.375,612.375) scale(3.9483333333333)"><rect width="6" height="6"/></g>
<g transform="translate(934.375,612.375) scale(3.9483333333333)"><rect width="6" height="6"/></g>
<g transform="translate(106.375,635.375) scale(3.9483333333333)"><rect width="6" height="6"/></g>
<g transform="translate(152.375,635.375) scale(3.9483333333333)"><rect width="6" height="6"/></g>
<g transform="translate(198.375,635.375) scale(3.9483333333333)"><rect width="6" height="6"/></g>
<g transform="translate(221.375,635.375) scale(3.9483333333333)"><rect width="6" height="6"/></g>
<g transform="translate(267.375,635.375) scale(3.9483333333333)"><rect width="6" height="6"/></g>
<g transform="translate(290.375,635.375) scale(3.9483333333333)"><rect width="6" height="6"/></g>
<g transform="translate(313.375,635.375) scale(3.9483333333333)"><rect width="6" height="6"/></g>
<g transform="translate(336.375,635.375) scale(3.9483333333333)"><rect width="6" height="6"/></g>
<g transform="translate(359.375,635.375) scale(3.9483333333333)"><rect width="6" height="6"/></g>
<g transform="translate(382.375,635.375) scale(3.9483333333333)"><rect width="6" height="6"/></g>
<g transform="translate(428.375,635.375) scale(3.9483333333333)"><rect width="6" height="6"/></g>
<g transform="translate(474.375,635.375) scale(3.9483333333333)"><rect width="6" height="6"/></g>
<g transform="translate(497.375,635.375) scale(3.9483333333333)"><rect width="6" height="6"/></g>
<g transform="translate(543.375,635.375) scale(3.9483333333333)"><rect width="6" height="6"/></g>
<g transform="translate(589.375,635.375) scale(3.9483333333333)"><rect width="6" height="6"/></g>
<g transform="translate(612.375,635.375) scale(3.9483333333333)"><rect width="6" height="6"/></g>
<g transform="translate(635.375,635.375) scale(3.9483333333333)"><rect width="6" height="6"/></g>
<g transform="translate(681.375,635.375) scale(3.9483333333333)"><rect width="6" height="6"/></g>
<g transform="translate(819.375,635.375) scale(3.9483333333333)"><rect width="6" height="6"/></g>
<g transform="translate(865.375,635.375) scale(3.9483333333333)"><rect width="6" height="6"/></g>
<g transform="translate(911.375,635.375) scale(3.9483333333333)"><rect width="6" height="6"/></g>
<g transform="translate(152.375,658.375) scale(3.9483333333333)"><rect width="6" height="6"/></g>
<g transform="translate(175.375,658.375) scale(3.9483333333333)"><rect width="6" height="6"/></g>
<g transform="translate(244.375,658.375) scale(3.9483333333333)"><rect width="6" height="6"/></g>
<g transform="translate(359.375,658.375) scale(3.9483333333333)"><rect width="6" height="6"/></g>
<g transform="translate(382.375,658.375) scale(3.9483333333333)"><rect width="6" height="6"/></g>
<g transform="translate(405.375,658.375) scale(3.9483333333333)"><rect width="6" height="6"/></g>
<g transform="translate(428.375,658.375) scale(3.9483333333333)"><rect width="6" height="6"/></g>
<g transform="translate(451.375,658.375) scale(3.9483333333333)"><rect width="6" height="6"/></g>
<g transform="translate(497.375,658.375) scale(3.9483333333333)"><rect width="6" height="6"/></g>
<g transform="translate(520.375,658.375) scale(3.9483333333333)"><rect width="6" height="6"/></g>
<g transform="translate(543.375,658.375) scale(3.9483333333333)"><rect width="6" height="6"/></g>
<g transform="translate(612.375,658.375) scale(3.9483333333333)"><rect width="6" height="6"/></g>
<g transform="translate(658.375,658.375) scale(3.9483333333333)"><rect width="6" height="6"/></g>
<g transform="translate(704.375,658.375) scale(3.9483333333333)"><rect width="6" height="6"/></g>
<g transform="translate(750.375,658.375) scale(3.9483333333333)"><rect width="6" height="6"/></g>
<g transform="translate(773.375,658.375) scale(3.9483333333333)"><rect width="6" height="6"/></g>
<g transform="translate(865.375,658.375) scale(3.9483333333333)"><rect width="6" height="6"/></g>
<g transform="translate(888.375,658.375) scale(3.9483333333333)"><rect width="6" height="6"/></g>
<g transform="translate(911.375,658.375) scale(3.9483333333333)"><rect width="6" height="6"/></g>
<g transform="translate(106.375,681.375) scale(3.9483333333333)"><rect width="6" height="6"/></g>
<g transform="translate(152.375,681.375) scale(3.9483333333333)"><rect width="6" height="6"/></g>
<g transform="translate(198.375,681.375) scale(3.9483333333333)"><rect width="6" height="6"/></g>
<g transform="translate(221.375,681.375) scale(3.9483333333333)"><rect width="6" height="6"/></g>
<g transform="translate(267.375,681.375) scale(3.9483333333333)"><rect width="6" height="6"/></g>
<g transform="translate(313.375,681.375) scale(3.9483333333333)"><rect width="6" height="6"/></g>
<g transform="translate(382.375,681.375) scale(3.9483333333333)"><rect width="6" height="6"/></g>
<g transform="translate(474.375,681.375) scale(3.9483333333333)"><rect width="6" height="6"/></g>
<g transform="translate(727.375,681.375) scale(3.9483333333333)"><rect width="6" height="6"/></g>
<g transform="translate(796.375,681.375) scale(3.9483333333333)"><rect width="6" height="6"/></g>
<g transform="translate(819.375,681.375) scale(3.9483333333333)"><rect width="6" height="6"/></g>
<g transform="translate(842.375,681.375) scale(3.9483333333333)"><rect width="6" height="6"/></g>
<g transform="translate(865.375,681.375) scale(3.9483333333333)"><rect width="6" height="6"/></g>
<g transform="translate(888.375,681.375) scale(3.9483333333333)"><rect width="6" height="6"/></g>
<g transform="translate(911.375,681.375) scale(3.9483333333333)"><rect width="6" height="6"/></g>
<g transform="translate(106.375,704.375) scale(3.9483333333333)"><rect width="6" height="6"/></g>
<g transform="translate(198.375,704.375) scale(3.9483333333333)"><rect width="6" height="6"/></g>
<g transform="translate(221.375,704.375) scale(3.9483333333333)"><rect width="6" height="6"/></g>
<g transform="translate(244.375,704.375) scale(3.9483333333333)"><rect width="6" height="6"/></g>
<g transform="translate(313.375,704.375) scale(3.9483333333333)"><rect width="6" height="6"/></g>
<g transform="translate(382.375,704.375) scale(3.9483333333333)"><rect width="6" height="6"/></g>
<g transform="translate(405.375,704.375) scale(3.9483333333333)"><rect width="6" height="6"/></g>
<g transform="translate(428.375,704.375) scale(3.9483333333333)"><rect width="6" height="6"/></g>
<g transform="translate(543.375,704.375) scale(3.9483333333333)"><rect width="6" height="6"/></g>
<g transform="translate(589.375,704.375) scale(3.9483333333333)"><rect width="6" height="6"/></g>
<g transform="translate(635.375,704.375) scale(3.9483333333333)"><rect width="6" height="6"/></g>
<g transform="translate(658.375,704.375) scale(3.9483333333333)"><rect width="6" height="6"/></g>
<g transform="translate(681.375,704.375) scale(3.9483333333333)"><rect width="6" height="6"/></g>
<g transform="translate(704.375,704.375) scale(3.9483333333333)"><rect width="6" height="6"/></g>
<g transform="translate(727.375,704.375) scale(3.9483333333333)"><rect width="6" height="6"/></g>
<g transform="translate(750.375,704.375) scale(3.9483333333333)"><rect width="6" height="6"/></g>
<g transform="translate(796.375,704.375) scale(3.9483333333333)"><rect width="6" height="6"/></g>
<g transform="translate(842.375,704.375) scale(3.9483333333333)"><rect width="6" height="6"/></g>
<g transform="translate(911.375,704.375) scale(3.9483333333333)"><rect width="6" height="6"/></g>
<g transform="translate(934.375,704.375) scale(3.9483333333333)"><rect width="6" height="6"/></g>
<g transform="translate(106.375,727.375) scale(3.9483333333333)"><rect width="6" height="6"/></g>
<g transform="translate(152.375,727.375) scale(3.9483333333333)"><rect width="6" height="6"/></g>
<g transform="translate(198.375,727.375) scale(3.9483333333333)"><rect width="6" height="6"/></g>
<g transform="translate(221.375,727.375) scale(3.9483333333333)"><rect width="6" height="6"/></g>
<g transform="translate(290.375,727.375) scale(3.9483333333333)"><rect width="6" height="6"/></g>
<g transform="translate(359.375,727.375) scale(3.9483333333333)"><rect width="6" height="6"/></g>
<g transform="translate(382.375,727.375) scale(3.9483333333333)"><rect width="6" height="6"/></g>
<g transform="translate(405.375,727.375) scale(3.9483333333333)"><rect width="6" height="6"/></g>
<g transform="translate(474.375,727.375) scale(3.9483333333333)"><rect width="6" height="6"/></g>
<g transform="translate(497.375,727.375) scale(3.9483333333333)"><rect width="6" height="6"/></g>
<g transform="translate(543.375,727.375) scale(3.9483333333333)"><rect width="6" height="6"/></g>
<g transform="translate(566.375,727.375) scale(3.9483333333333)"><rect width="6" height="6"/></g>
<g transform="translate(589.375,727.375) scale(3.9483333333333)"><rect width="6" height="6"/></g>
<g transform="translate(612.375,727.375) scale(3.9483333333333)"><rect width="6" height="6"/></g>
<g transform="translate(635.375,727.375) scale(3.9483333333333)"><rect width="6" height="6"/></g>
<g transform="translate(704.375,727.375) scale(3.9483333333333)"><rect width="6" height="6"/></g>
<g transform="translate(727.375,727.375) scale(3.9483333333333)"><rect width="6" height="6"/></g>
<g transform="translate(773.375,727.375) scale(3.9483333333333)"><rect width="6" height="6"/></g>
<g transform="translate(819.375,727.375) scale(3.9483333333333)"><rect width="6" height="6"/></g>
<g transform="translate(842.375,727.375) scale(3.9483333333333)"><rect width="6" height="6"/></g>
<g transform="translate(865.375,727.375) scale(3.9483333333333)"><rect width="6" height="6"/></g>
<g transform="translate(934.375,727.375) scale(3.9483333333333)"><rect width="6" height="6"/></g>
<g transform="translate(106.375,750.375) scale(3.9483333333333)"><rect width="6" height="6"/></g>
<g transform="translate(152.375,750.375) scale(3.9483333333333)"><rect width="6" height="6"/></g>
<g transform="translate(175.375,750.375) scale(3.9483333333333)"><rect width="6" height="6"/></g>
<g transform="translate(244.375,750.375) scale(3.9483333333333)"><rect width="6" height="6"/></g>
<g transform="translate(267.375,750.375) scale(3.9483333333333)"><rect width="6" height="6"/></g>
<g transform="translate(290.375,750.375) scale(3.9483333333333)"><rect width="6" height="6"/></g>
<g transform="translate(313.375,750.375) scale(3.9483333333333)"><rect width="6" height="6"/></g>
<g transform="translate(405.375,750.375) scale(3.9483333333333)"><rect width="6" height="6"/></g>
<g transform="translate(428.375,750.375) scale(3.9483333333333)"><rect width="6" height="6"/></g>
<g transform="translate(497.375,750.375) scale(3.9483333333333)"><rect width="6" height="6"/></g>
<g transform="translate(520.375,750.375) scale(3.9483333333333)"><rect width="6" height="6"/></g>
<g transform="translate(543.375,750.375) scale(3.9483333333333)"><rect width="6" height="6"/></g>
<g transform="translate(589.375,750.375) scale(3.9483333333333)"><rect width="6" height="6"/></g>
<g transform="translate(635.375,750.375) scale(3.9483333333333)"><rect width="6" height="6"/></g>
<g transform="translate(658.375,750.375) scale(3.9483333333333)"><rect width="6" height="6"/></g>
<g transform="translate(681.375,750.375) scale(3.9483333333333)"><rect width="6" height="6"/></g>
<g transform="translate(727.375,750.375) scale(3.9483333333333)"><rect width="6" height="6"/></g>
<g transform="translate(750.375,750.375) scale(3.9483333333333)"><rect width="6" height="6"/></g>
<g transform="translate(773.375,750.375) scale(3.9483333333333)"><rect width="6" height="6"/></g>
<g transform="translate(796.375,750.375) scale(3.9483333333333)"><rect width="6" height="6"/></g>
<g transform="translate(819.375,750.375) scale(3.9483333333333)"><rect width="6" height="6"/></g>
<g transform="translate(842.375,750.375) scale(3.9483333333333)"><rect width="6" height="6"/></g>
<g transform="translate(865.375,750.375) scale(3.9483333333333)"><rect width="6" height="6"/></g>
<g transform="translate(911.375,750.375) scale(3.9483333333333)"><rect width="6" height="6"/></g>
<g transform="translate(290.375,773.375) scale(3.9483333333333)"><rect width="6" height="6"/></g>
<g transform="translate(359.375,773.375) scale(3.9483333333333)"><rect width="6" height="6"/></g>
<g transform="translate(451.375,773.375) scale(3.9483333333333)"><rect width="6" height="6"/></g>
<g transform="translate(543.375,773.375) scale(3.9483333333333)"><rect width="6" height="6"/></g>
<g transform="translate(589.375,773.375) scale(3.9483333333333)"><rect width="6" height="6"/></g>
<g transform="translate(612.375,773.375) scale(3.9483333333333)"><rect width="6" height="6"/></g>
<g transform="translate(635.375,773.375) scale(3.9483333333333)"><rect width="6" height="6"/></g>
<g transform="translate(704.375,773.375) scale(3.9483333333333)"><rect width="6" height="6"/></g>
<g transform="translate(727.375,773.375) scale(3.9483333333333)"><rect width="6" height="6"/></g>
<g transform="translate(750.375,773.375) scale(3.9483333333333)"><rect width="6" height="6"/></g>
<g transform="translate(842.375,773.375) scale(3.9483333333333)"><rect width="6" height="6"/></g>
<g transform="translate(359.375,796.375) scale(3.9483333333333)"><rect width="6" height="6"/></g>
<g transform="translate(382.375,796.375) scale(3.9483333333333)"><rect width="6" height="6"/></g>
<g transform="translate(405.375,796.375) scale(3.9483333333333)"><rect width="6" height="6"/></g>
<g transform="translate(497.375,796.375) scale(3.9483333333333)"><rect width="6" height="6"/></g>
<g transform="translate(543.375,796.375) scale(3.9483333333333)"><rect width="6" height="6"/></g>
<g transform="translate(658.375,796.375) scale(3.9483333333333)"><rect width="6" height="6"/></g>
<g transform="translate(750.375,796.375) scale(3.9483333333333)"><rect width="6" height="6"/></g>
<g transform="translate(796.375,796.375) scale(3.9483333333333)"><rect width="6" height="6"/></g>
<g transform="translate(842.375,796.375) scale(3.9483333333333)"><rect width="6" height="6"/></g>
<g transform="translate(865.375,796.375) scale(3.9483333333333)"><rect width="6" height="6"/></g>
<g transform="translate(911.375,796.375) scale(3.9483333333333)"><rect width="6" height="6"/></g>
<g transform="translate(934.375,796.375) scale(3.9483333333333)"><rect width="6" height="6"/></g>
<g transform="translate(313.375,819.375) scale(3.9483333333333)"><rect width="6" height="6"/></g>
<g transform="translate(336.375,819.375) scale(3.9483333333333)"><rect width="6" height="6"/></g>
<g transform="translate(359.375,819.375) scale(3.9483333333333)"><rect width="6" height="6"/></g>
<g transform="translate(405.375,819.375) scale(3.9483333333333)"><rect width="6" height="6"/></g>
<g transform="translate(428.375,819.375) scale(3.9483333333333)"><rect width="6" height="6"/></g>
<g transform="translate(474.375,819.375) scale(3.9483333333333)"><rect width="6" height="6"/></g>
<g transform="translate(589.375,819.375) scale(3.9483333333333)"><rect width="6" height="6"/></g>
<g transform="translate(704.375,819.375) scale(3.9483333333333)"><rect width="6" height="6"/></g>
<g transform="translate(750.375,819.375) scale(3.9483333333333)"><rect width="6" height="6"/></g>
<g transform="translate(842.375,819.375) scale(3.9483333333333)"><rect width="6" height="6"/></g>
<g transform="translate(911.375,819.375) scale(3.9483333333333)"><rect width="6" height="6"/></g>
<g transform="translate(290.375,842.375) scale(3.9483333333333)"><rect width="6" height="6"/></g>
<g transform="translate(313.375,842.375) scale(3.9483333333333)"><rect width="6" height="6"/></g>
<g transform="translate(359.375,842.375) scale(3.9483333333333)"><rect width="6" height="6"/></g>
<g transform="translate(428.375,842.375) scale(3.9483333333333)"><rect width="6" height="6"/></g>
<g transform="translate(451.375,842.375) scale(3.9483333333333)"><rect width="6" height="6"/></g>
<g transform="translate(497.375,842.375) scale(3.9483333333333)"><rect width="6" height="6"/></g>
<g transform="translate(543.375,842.375) scale(3.9483333333333)"><rect width="6" height="6"/></g>
<g transform="translate(566.375,842.375) scale(3.9483333333333)"><rect width="6" height="6"/></g>
<g transform="translate(589.375,842.375) scale(3.9483333333333)"><rect width="6" height="6"/></g>
<g transform="translate(612.375,842.375) scale(3.9483333333333)"><rect width="6" height="6"/></g>
<g transform="translate(635.375,842.375) scale(3.9483333333333)"><rect width="6" height="6"/></g>
<g transform="translate(681.375,842.375) scale(3.9483333333333)"><rect width="6" height="6"/></g>
<g transform="translate(704.375,842.375) scale(3.9483333333333)"><rect width="6" height="6"/></g>
<g transform="translate(727.375,842.375) scale(3.9483333333333)"><rect width="6" height="6"/></g>
<g transform="translate(750.375,842.375) scale(3.9483333333333)"><rect width="6" height="6"/></g>
<g transform="translate(773.375,842.375) scale(3.9483333333333)"><rect width="6" height="6"/></g>
<g transform="translate(796.375,842.375) scale(3.9483333333333)"><rect width="6" height="6"/></g>
<g transform="translate(819.375,842.375) scale(3.9483333333333)"><rect width="6" height="6"/></g>
<g transform="translate(842.375,842.375) scale(3.9483333333333)"><rect width="6" height="6"/></g>
<g transform="translate(888.375,842.375) scale(3.9483333333333)"><rect width="6" height="6"/></g>
<g transform="translate(934.375,842.375) scale(3.9483333333333)"><rect width="6" height="6"/></g>
<g transform="translate(290.375,865.375) scale(3.9483333333333)"><rect width="6" height="6"/></g>
<g transform="translate(405.375,865.375) scale(3.9483333333333)"><rect width="6" height="6"/></g>
<g transform="translate(428.375,865.375) scale(3.9483333333333)"><rect width="6" height="6"/></g>
<g transform="translate(474.375,865.375) scale(3.9483333333333)"><rect width="6" height="6"/></g>
<g transform="translate(520.375,865.375) scale(3.9483333333333)"><rect width="6" height="6"/></g>
<g transform="translate(543.375,865.375) scale(3.9483333333333)"><rect width="6" height="6"/></g>
<g transform="translate(566.375,865.375) scale(3.9483333333333)"><rect width="6" height="6"/></g>
<g transform="translate(612.375,865.375) scale(3.9483333333333)"><rect width="6" height="6"/></g>
<g transform="translate(658.375,865.375) scale(3.9483333333333)"><rect width="6" height="6"/></g>
<g transform="translate(681.375,865.375) scale(3.9483333333333)"><rect width="6" height="6"/></g>
<g transform="translate(750.375,865.375) scale(3.9483333333333)"><rect width="6" height="6"/></g>
<g transform="translate(796.375,865.375) scale(3.9483333333333)"><rect width="6" height="6"/></g>
<g transform="translate(819.375,865.375) scale(3.9483333333333)"><rect width="6" height="6"/></g>
<g transform="translate(842.375,865.375) scale(3.9483333333333)"><rect width="6" height="6"/></g>
<g transform="translate(888.375,865.375) scale(3.9483333333333)"><rect width="6" height="6"/></g>
<g transform="translate(290.375,888.375) scale(3.9483333333333)"><rect width="6" height="6"/></g>
<g transform="translate(313.375,888.375) scale(3.9483333333333)"><rect width="6" height="6"/></g>
<g transform="translate(405.375,888.375) scale(3.9483333333333)"><rect width="6" height="6"/></g>
<g transform="translate(428.375,888.375) scale(3.9483333333333)"><rect width="6" height="6"/></g>
<g transform="translate(474.375,888.375) scale(3.9483333333333)"><rect width="6" height="6"/></g>
<g transform="translate(543.375,888.375) scale(3.9483333333333)"><rect width="6" height="6"/></g>
<g transform="translate(612.375,888.375) scale(3.9483333333333)"><rect width="6" height="6"/></g>
<g transform="translate(681.375,888.375) scale(3.9483333333333)"><rect width="6" height="6"/></g>
<g transform="translate(704.375,888.375) scale(3.9483333333333)"><rect width="6" height="6"/></g>
<g transform="translate(750.375,888.375) scale(3.9483333333333)"><rect width="6" height="6"/></g>
<g transform="translate(773.375,888.375) scale(3.9483333333333)"><rect width="6" height="6"/></g>
<g transform="translate(819.375,888.375) scale(3.9483333333333)"><rect width="6" height="6"/></g>
<g transform="translate(865.375,888.375) scale(3.9483333333333)"><rect width="6" height="6"/></g>
<g transform="translate(888.375,888.375) scale(3.9483333333333)"><rect width="6" height="6"/></g>
<g transform="translate(934.375,888.375) scale(3.9483333333333)"><rect width="6" height="6"/></g>
<g transform="translate(313.375,911.375) scale(3.9483333333333)"><rect width="6" height="6"/></g>
<g transform="translate(382.375,911.375) scale(3.9483333333333)"><rect width="6" height="6"/></g>
<g transform="translate(405.375,911.375) scale(3.9483333333333)"><rect width="6" height="6"/></g>
<g transform="translate(428.375,911.375) scale(3.9483333333333)"><rect width="6" height="6"/></g>
<g transform="translate(474.375,911.375) scale(3.9483333333333)"><rect width="6" height="6"/></g>
<g transform="translate(612.375,911.375) scale(3.9483333333333)"><rect width="6" height="6"/></g>
<g transform="translate(658.375,911.375) scale(3.9483333333333)"><rect width="6" height="6"/></g>
<g transform="translate(704.375,911.375) scale(3.9483333333333)"><rect width="6" height="6"/></g>
<g transform="translate(727.375,911.375) scale(3.9483333333333)"><rect width="6" height="6"/></g>
<g transform="translate(750.375,911.375) scale(3.9483333333333)"><rect width="6" height="6"/></g>
<g transform="translate(773.375,911.375) scale(3.9483333333333)"><rect width="6" height="6"/></g>
<g transform="translate(796.375,911.375) scale(3.9483333333333)"><rect width="6" height="6"/></g>
<g transform="translate(819.375,911.375) scale(3.9483333333333)"><rect width="6" height="6"/></g>
<g transform="translate(934.375,911.375) scale(3.9483333333333)"><rect width="6" height="6"/></g>
<g transform="translate(313.375,934.375) scale(3.9483333333333)"><rect width="6" height="6"/></g>
<g transform="translate(405.375,934.375) scale(3.9483333333333)"><rect width="6" height="6"/></g>
<g transform="translate(428.375,934.375) scale(3.9483333333333)"><rect width="6" height="6"/></g>
<g transform="translate(451.375,934.375) scale(3.9483333333333)"><rect width="6" height="6"/></g>
<g transform="translate(474.375,934.375) scale(3.9483333333333)"><rect width="6" height="6"/></g>
<g transform="translate(497.375,934.375) scale(3.9483333333333)"><rect width="6" height="6"/></g>
<g transform="translate(520.375,934.375) scale(3.9483333333333)"><rect width="6" height="6"/></g>
<g transform="translate(566.375,934.375) scale(3.9483333333333)"><rect width="6" height="6"/></g>
<g transform="translate(612.375,934.375) scale(3.9483333333333)"><rect width="6" height="6"/></g>
<g transform="translate(658.375,934.375) scale(3.9483333333333)"><rect width="6" height="6"/></g>
<g transform="translate(681.375,934.375) scale(3.9483333333333)"><rect width="6" height="6"/></g>
<g transform="translate(704.375,934.375) scale(3.9483333333333)"><rect width="6" height="6"/></g>
<g transform="translate(727.375,934.375) scale(3.9483333333333)"><rect width="6" height="6"/></g>
<g transform="translate(773.375,934.375) scale(3.9483333333333)"><rect width="6" height="6"/></g>
<g transform="translate(819.375,934.375) scale(3.9483333333333)"><rect width="6" height="6"/></g>
<g transform="translate(842.375,934.375) scale(3.9483333333333)"><rect width="6" height="6"/></g>
<g transform="translate(865.375,934.375) scale(3.9483333333333)"><rect width="6" height="6"/></g>
<g transform="translate(888.375,934.375) scale(3.9483333333333)"><rect width="6" height="6"/></g>
<g transform="translate(911.375,934.375) scale(3.9483333333333)"><rect width="6" height="6"/></g>
<g transform="translate(934.375,934.375) scale(3.9483333333333)"><rect width="6" height="6"/></g>
<g transform="translate(106.375,106.375)"><g transform="scale(11.5)"><path d="M0,0v14h14V0H0z M12,12H2V2h10V12z"/></g></g>
<g transform="translate(796.375,106.375)"><g transform="scale(11.5)"><path d="M0,0v14h14V0H0z M12,12H2V2h10V12z"/></g></g>
<g transform="translate(106.375,796.375)"><g transform="scale(11.5)"><path d="M0,0v14h14V0H0z M12,12H2V2h10V12z"/></g></g>
<g transform="translate(152.375,152.375)"><g transform="scale(11.5)"><rect width="6" height="6"/></g></g>
<g transform="translate(842.375,152.375)"><g transform="scale(11.5)"><rect width="6" height="6"/></g></g>
<g transform="translate(152.375,842.375)"><g transform="scale(11.5)"><rect width="6" height="6"/></g></g>
</g><g transform="translate(106.375,34.146954050592) scale(0.90831465471235)"><path fill="#FFFFFF" d="M52,47.3q1.9-0.6,4.8-0.6t4.6,0.5t2.6,1.2t1.4,2q0.5,1.7,0.5,5.2l0,55.5q0,2.3-0.15,3.45t-0.95,2.65q-1.4,2.7-7.8,2.7q-7,0-8.2-3.7q-0.6-1.7-0.6-5.2l0-20.3l-26.5,0l0,20.4q0,2.3-0.15,3.45t-0.95,2.65q-1.4,2.7-7.8,2.7q-7,0-8.2-3.7q-0.6-1.7-0.6-5.2l0-55.5q0-2.3,0.15-3.45t0.95-2.65q1.4-2.7,7.8-2.7q7,0,8.3,3.7q0.5,1.7,0.5,5.2l0,20.4l26.5,0l0-20.5q0-2.3,0.15-3.45t0.95-2.65t2.7-2.1z M121.65,96.45q-3.05,2.95-6.75,2.95l-23.7,0q0,2.8,3.3,4.7t6.6,1.9q5.8,0,9.1-1.2l1.1-0.4q2.4-1.1,4-1.1q3.2,0,5.5,4.5q1.3,2.7,1.3,4.6q0,8.9-21.3,8.9q-7.4,0-13.15-2.55t-8.95-6.75q-6.3-8.1-6.3-18.1q0-12.6,8.15-20.15t20.35-7.55q13.9,0,20.4,9.8q3.4,5.2,3.4,11.35t-3.05,9.1z M103.6,90.3q3.8,0,3.8-3.2q0-2.3-1.75-3.7t-5-1.4t-6.45,2.65t-3.2,5.65l12.6,0z M165.4,72.9q0.6-5.6,7.9-5.6q3.9,0,5.8,0.6t2.65,2.1t0.9,2.65t0.15,3.45l0,35q0,2.3-0.15,3.45t-0.85,2.65q-1.4,2.6-6.85,2.6t-7.3-1.35t-2.15-3.95q-3.7,5.3-12.35,5.3t-16.05-7.9t-7.4-18.35t7.45-18.3t16.35-7.85q3.4,0,6.2,1.2t3.9,2.25t1.8,2.05z M149.8,99.65q2.6,2.65,6.3,2.65t6.15-2.7t2.45-5.95t-2.35-6.05t-6.3-2.8t-6.4,2.8t-2.45,6.1t2.6,5.95z M190.8,51.3q0-2.3,0.15-3.45t0.85-2.65q1.4-2.7,7.8-2.7q6.1,0,7.6,2.7q0.8,1.5,0.95,2.7t0.15,3.5l0,46.3q0,3.6,0.6,4.55t2.65,0.95t2.75,0.15t1.7,0.85q2,1.3,2,7.1q0,6.3-2,7.7q-2.6,1.8-12.4,0.6q-7.7-1-10-5.1q-2.8-4.9-2.8-15.6l0-47.6z M254.1,85l-6.5-0.4l0,13.8q0,2.7,0.85,3.9t3.2,1.2t3.6,0.15t2.65,0.95q2.3,1.3,2.3,6.7q0,6.3-2.8,7.7q-1.5,0.7-2.65,0.85t-3.35,0.15q-10.4,0-15.8-4.7t-5.4-15.9l0-14.8q-1.9,0.3-4.1,0.3t-3.65-1.7t-1.45-5.8t0.5-5.95t1.4-2.65q1.6-1.3,4-1.3l3.3,0.4l0-10.3q0-2.3,0.15-3.4t0.95-2.4q1.3-2.5,7.7-2.5q6.8,0,8.1,3.7q0.5,1.6,0.5,5.1l0,9.8q4.4-0.4,6.65-0.4t3.4,0.15t2.65,0.95q2.6,1.3,2.6,7.7q0,6.3-2.7,7.7q-1.5,0.7-2.65,0.85t-3.45,0.15z M297.6,67.5q10,0,16.65,7.6t6.65,18.6l0,17.6q0,2.3-0.15,3.45t-0.95,2.65q-1.3,2.6-7.7,2.6q-6.1,0-7.6-2.6q-0.8-1.5-0.95-2.7t-0.15-3.6l0-17.5q0-4.1-2.3-6.4t-5.85-2.3t-6.25,2.15t-3.1,4.85l0,19.4q0,2.3-0.15,3.45t-0.95,2.65q-1.3,2.6-7.7,2.6q-6.3,0-7.7-2.7q-0.7-1.5-0.85-2.6t-0.15-3.5l0-59.8q0-2.3,0.15-3.45t0.85-2.55q1.4-2.7,7.8-2.7q6.3,0,7.6,2.7q0.8,1.5,0.95,2.65t0.15,3.45l0,22.1q5-6.1,11.7-6.1z M358.4,106.1l-23.8,0q-5.6,0-6.7-3.4q-0.5-1.8-0.5-4.6t0.6-4.5t1.9-2.4q1.8-0.9,4.8-0.9l23.8,0q5.6,0,6.6,3.3q0.6,1.8,0.6,4.6t-0.55,4.55t-1.75,2.45q-1.8,0.9-5,0.9z M428.3,107.6q1.5,3.6,1.5,5.2q0,3.8-6.2,6.4q-3.2,1.4-5.15,1.4t-3.2-0.95t-1.85-1.95q-1-1.9-7.8-18.1l-3.1,0.2l-12.6,0l0,11.3q0,2.3-0.15,3.45t-0.95,2.65q-1.4,2.7-7.8,2.7q-7,0-8.2-3.7q-0.6-1.7-0.6-5.2l0-55.5q0-2.3,0.15-3.45t0.95-2.65q1.4-2.7,7.8-2.7l21.6,0q8.8,0,17.1,6.4q4,3.1,6.6,8.4t2.6,11.8q0,11.3-7.5,18.6q2.2,5.3,6.8,15.7z M389.9,82.1l12.8,0q2.9,0,5.8-2.2t2.9-6.6t-2.9-6.65t-6-2.25l-12.6,0l0,17.7z M435.3,55.5q0-2.3,0.15-3.45t0.95-2.65q1.4-2.7,7.8-2.7q7,0,8.3,3.7q0.5,1.7,0.5,5.2l0,55.6q0,2.4-0.15,3.5t-0.95,2.6q-1.4,2.7-7.8,2.7q-7,0-8.2-3.8q-0.6-1.6-0.6-5.1l0-55.6z  M520.7,45.8q14.8,0,25.7,10.7t10.9,26.55t-10.4,27t-25.6,11.15t-25.85-11t-10.65-26.2q0-8.3,3-15.55t8-12.15t11.5-7.7t13.4-2.8z M508.25,97.95q5.75,5.55,12.85,5.55t12.8-5.4t5.7-14.5t-5.75-14.6t-12.85-5.5t-12.8,5.55t-5.7,14.45t5.75,14.45z M593.1,67.3q10,0,16.65,7.65t6.65,18.65l0,17.6q0,2.3-0.15,3.45t-0.85,2.55q-1.4,2.7-7.8,2.7q-7.1,0-8.2-3.7q-0.6-1.7-0.6-5.1l0-17.6q0-4.1-2.35-6.4t-6.3-2.3t-6.4,2.4t-2.45,6.3l0,17.7q0,2.3-0.15,3.45t-0.95,2.55q-1.3,2.7-7.7,2.7q-6.3,0-7.7-2.7q-0.7-1.5-0.85-2.65t-0.15-3.45l0-35.4q0-2.2,0.15-3.35t0.95-2.55q1.4-2.5,7.7-2.5q6.1,0,7.5,2.3q1,1.7,1,4.1q0.4-0.7,1.8-2t2.7-2.1q3.4-2.3,7.5-2.3z M655,85l-6.5-0.4l0,13.8q0,2.7,0.85,3.9t3.2,1.2t3.6,0.15t2.65,0.95q2.3,1.3,2.3,6.7q0,6.3-2.8,7.7q-1.5,0.7-2.65,0.85t-3.35,0.15q-10.4,0-15.8-4.7t-5.4-15.9l0-14.8q-1.9,0.3-4.1,0.3t-3.65-1.7t-1.45-5.8t0.5-5.95t1.4-2.65q1.6-1.3,4-1.3l3.3,0.4l0-10.3q0-2.3,0.15-3.4t0.95-2.4q1.3-2.5,7.7-2.5q6.8,0,8.1,3.7q0.5,1.6,0.5,5.1l0,9.8q4.4-0.4,6.65-0.4t3.4,0.15t2.65,0.95q2.6,1.3,2.6,7.7q0,6.3-2.7,7.7q-1.5,0.7-2.65,0.85t-3.45,0.15z M676.2,73.9q8.4-7.8,19.2-7.8t19.1,7.75t8.3,19.75q0,8.3-4.3,14.75t-10.45,9.5t-12.75,3.05t-12.8-3.25t-10.45-9.6t-4.25-14.35q0-12,8.4-19.8z M695.2,103.3q3.3,0,6.6-2.5t3.3-7.4t-3.1-7.3t-6.7-2.4t-6.7,2.5t-3.1,7.35t3.2,7.3t6.5,2.45z M729.3,51.3q0-2.3,0.15-3.45t0.85-2.65q1.4-2.7,7.8-2.7q6.1,0,7.6,2.7q0.8,1.5,0.95,2.7t0.15,3.5l0,46.3q0,3.6,0.6,4.55t2.65,0.95t2.75,0.15t1.7,0.85q2,1.3,2,7.1q0,6.3-2,7.7q-2.6,1.8-12.4,0.6q-7.7-1-10-5.1q-2.8-4.9-2.8-15.6l0-47.6z M768.9,73.9q8.4-7.8,19.2-7.8t19.1,7.75t8.3,19.75q0,8.3-4.3,14.75t-10.45,9.5t-12.75,3.05t-12.8-3.25t-10.45-9.6t-4.25-14.35q0-12,8.4-19.8z M787.9,103.3q3.3,0,6.6-2.5t3.3-7.4t-3.1-7.3t-6.7-2.4t-6.7,2.5t-3.1,7.35t3.2,7.3t6.5,2.45z M855.4,113.4q-3.8,5-12.1,5t-15.55-7.65t-7.25-17.85t7.3-17.9t16-7.7q3.4,0,6.2,1.25t3.85,2.3t1.65,1.95q0.3-2.8,2.05-4.25t5.65-1.45t5.7,0.6t2.55,2.05t0.9,2.55t0.15,3.4l0,41.4q0,11.5-8,18.55t-18,7.05q-7.6,0-14.5-3.7t-6.9-6.7q0-3.9,3-6.9q1.9-2.1,2.95-2.9t2.45-0.8t2.9,1.2q4.8,3.7,10.4,3.7q3.8,0,6.2-3t2.4-7.2l0-3z M840.15,98.8q2.55,2.6,6.2,2.6t6.05-2.65t2.4-5.8t-2.3-5.9t-6.2-2.75t-6.3,2.7t-2.4,5.95t2.55,5.85z M929.5,67.9q5.9,2.6,5.9,6.3q0,1.8-0.8,3.4t-0.8,1.7l-26.2,58.6q-0.8,1.9-1.35,2.9t-1.75,1.9t-3,0.9t-5.3-1.5q-5.9-2.6-5.9-6.2q0-2.4,9.6-22.9l-19.9-33.5q-2-3.3-2-4.9q0-3.2,5.4-6.4q3.4-2,5.3-2t3.1,0.8t1.75,1.65t5.5,9.3t9.45,15.75q0.5-1.6,5.4-12.35t5.25-11.45t1.15-1.7q1.3-1.7,3.65-1.7t5.55,1.4z"/></g></svg>
