<?xml version="1.0" encoding="utf-8"?>
<svg xmlns="http://www.w3.org/2000/svg" xmlns:xlink="http://www.w3.org/1999/xlink" xml:space="preserve" width="1076.25" height="1255.625" viewBox="0 0 1076.25 1255.625"><rect width="996.428125" height="996.428125" fill="#ffffff" x="44.84375" y="224.21875"/><g transform="scale(44.84375)" fill="#000000"><path d="M1.3,28L22.6,28c0.7,0,1.3-0.6,1.3-1.3L24,1.4c0-0.7-0.6-1.3-1.3-1.3L1.4,0C0.7,0,0.1,0.6,0,1.3L0,26.6 C-0.1,27.4,0.5,28,1.3,28z M1,6c0-0.6,0.5-1,1-1L22,5c0.6,0,1,0.5,1,1L23,26c0,0.6-0.5,1-1,1L2,27c-0.6,0-1-0.5-1-1L1,6z"/></g><g transform="translate(0,179.375)" fill="#000000">
<g transform="translate(275.625,107.625) scale(3.605)"><rect width="6" height="6"/></g>
<g transform="translate(296.625,107.625) scale(3.605)"><rect width="6" height="6"/></g>
<g transform="translate(317.625,107.625) scale(3.605)"><rect width="6" height="6"/></g>
<g transform="translate(380.625,107.625) scale(3.605)"><rect width="6" height="6"/></g>
<g transform="translate(422.625,107.625) scale(3.605)"><rect width="6" height="6"/></g>
<g transform="translate(464.625,107.625) scale(3.605)"><rect width="6" height="6"/></g>
<g transform="translate(506.625,107.625) scale(3.605)"><rect width="6" height="6"/></g>
<g transform="translate(611.625,107.625) scale(3.605)"><rect width="6" height="6"/></g>
<g transform="translate(695.625,107.625) scale(3.605)"><rect width="6" height="6"/></g>
<g transform="translate(716.625,107.625) scale(3.605)"><rect width="6" height="6"/></g>
<g transform="translate(758.625,107.625) scale(3.605)"><rect width="6" height="6"/></g>
<g transform="translate(779.625,107.625) scale(3.605)"><rect width="6" height="6"/></g>
<g transform="translate(275.625,128.625) scale(3.605)"><rect width="6" height="6"/></g>
<g transform="translate(296.625,128.625) scale(3.605)"><rect width="6" height="6"/></g>
<g transform="translate(317.625,128.625) scale(3.605)"><rect width="6" height="6"/></g>
<g transform="translate(338.625,128.625) scale(3.605)"><rect width="6" height="6"/></g>
<g transform="translate(401.625,128.625) scale(3.605)"><rect width="6" height="6"/></g>
<g transform="translate(443.625,128.625) scale(3.605)"><rect width="6" height="6"/></g>
<g transform="translate(464.625,128.625) scale(3.605)"><rect width="6" height="6"/></g>
<g transform="translate(527.625,128.625) scale(3.605)"><rect width="6" height="6"/></g>
<g transform="translate(674.625,128.625) scale(3.605)"><rect width="6" height="6"/></g>
<g transform="translate(716.625,128.625) scale(3.605)"><rect width="6" height="6"/></g>
<g transform="translate(275.625,149.625) scale(3.605)"><rect width="6" height="6"/></g>
<g transform="translate(296.625,149.625) scale(3.605)"><rect width="6" height="6"/></g>
<g transform="translate(422.625,149.625) scale(3.605)"><rect width="6" height="6"/></g>
<g transform="translate(464.625,149.625) scale(3.605)"><rect width="6" height="6"/></g>
<g transform="translate(485.625,149.625) scale(3.605)"><rect width="6" height="6"/></g>
<g transform="translate(506.625,149.625) scale(3.605)"><rect width="6" height="6"/></g>
<g transform="translate(527.625,149.625) scale(3.605)"><rect width="6" height="6"/></g>
<g transform="translate(548.625,149.625) scale(3.605)"><rect width="6" height="6"/></g>
<g transform="translate(569.625,149.625) scale(3.605)"><rect width="6" height="6"/></g>
<g transform="translate(653.625,149.625) scale(3.605)"><rect width="6" height="6"/></g>
<g transform="translate(674.625,149.625) scale(3.605)"><rect width="6" height="6"/></g>
<g transform="translate(716.625,149.625) scale(3.605)"><rect width="6" height="6"/></g>
<g transform="translate(737.625,149.625) scale(3.605)"><rect width="6" height="6"/></g>
<g transform="translate(758.625,149.625) scale(3.605)"><rect width="6" height="6"/></g>
<g transform="translate(779.625,149.625) scale(3.605)"><rect width="6" height="6"/></g>
<g transform="translate(296.625,170.625) scale(3.605)"><rect width="6" height="6"/></g>
<g transform="translate(359.625,170.625) scale(3.605)"><rect width="6" height="6"/></g>
<g transform="translate(380.625,170.625) scale(3.605)"><rect width="6" height="6"/></g>
<g transform="translate(401.625,170.625) scale(3.605)"><rect width="6" height="6"/></g>
<g transform="translate(464.625,170.625) scale(3.605)"><rect width="6" height="6"/></g>
<g transform="translate(485.625,170.625) scale(3.605)"><rect width="6" height="6"/></g>
<g transform="translate(506.625,170.625) scale(3.605)"><rect width="6" height="6"/></g>
<g transform="translate(548.625,170.625) scale(3.605)"><rect width="6" height="6"/></g>
<g transform="translate(569.625,170.625) scale(3.605)"><rect width="6" height="6"/></g>
<g transform="translate(611.625,170.625) scale(3.605)"><rect width="6" height="6"/></g>
<g transform="translate(674.625,170.625) scale(3.605)"><rect width="6" height="6"/></g>
<g transform="translate(758.625,170.625) scale(3.605)"><rect width="6" height="6"/></g>
<g transform="translate(296.625,191.625) scale(3.605)"><rect width="6" height="6"/></g>
<g transform="translate(338.625,191.625) scale(3.605)"><rect width="6" height="6"/></g>
<g transform="translate(359.625,191.625) scale(3.605)"><rect width="6" height="6"/></g>
<g transform="translate(401.625,191.625) scale(3.605)"><rect width="6" height="6"/></g>
<g transform="translate(464.625,191.625) scale(3.605)"><rect width="6" height="6"/></g>
<g transform="translate(548.625,191.625) scale(3.605)"><rect width="6" height="6"/></g>
<g transform="translate(590.625,191.625) scale(3.605)"><rect width="6" height="6"/></g>
<g transform="translate(632.625,191.625) scale(3.605)"><rect width="6" height="6"/></g>
<g transform="translate(653.625,191.625) scale(3.605)"><rect width="6" height="6"/></g>
<g transform="translate(695.625,191.625) scale(3.605)"><rect width="6" height="6"/></g>
<g transform="translate(737.625,191.625) scale(3.605)"><rect width="6" height="6"/></g>
<g transform="translate(758.625,191.625) scale(3.605)"><rect width="6" height="6"/></g>
<g transform="translate(275.625,212.625) scale(3.605)"><rect width="6" height="6"/></g>
<g transform="translate(296.625,212.625) scale(3.605)"><rect width="6" height="6"/></g>
<g transform="translate(317.625,212.625) scale(3.605)"><rect width="6" height="6"/></g>
<g transform="translate(380.625,212.625) scale(3.605)"><rect width="6" height="6"/></g>
<g transform="translate(401.625,212.625) scale(3.605)"><rect width="6" height="6"/></g>
<g transform="translate(422.625,212.625) scale(3.605)"><rect width="6" height="6"/></g>
<g transform="translate(548.625,212.625) scale(3.605)"><rect width="6" height="6"/></g>
<g transform="translate(590.625,212.625) scale(3.605)"><rect width="6" height="6"/></g>
<g transform="translate(611.625,212.625) scale(3.605)"><rect width="6" height="6"/></g>
<g transform="translate(632.625,212.625) scale(3.605)"><rect width="6" height="6"/></g>
<g transform="translate(674.625,212.625) scale(3.605)"><rect width="6" height="6"/></g>
<g transform="translate(695.625,212.625) scale(3.605)"><rect width="6" height="6"/></g>
<g transform="translate(716.625,212.625) scale(3.605)"><rect width="6" height="6"/></g>
<g transform="translate(275.625,233.625) scale(3.605)"><rect width="6" height="6"/></g>
<g transform="translate(317.625,233.625) scale(3.605)"><rect width="6" height="6"/></g>
<g transform="translate(359.625,233.625) scale(3.605)"><rect width="6" height="6"/></g>
<g transform="translate(401.625,233.625) scale(3.605)"><rect width="6" height="6"/></g>
<g transform="translate(443.625,233.625) scale(3.605)"><rect width="6" height="6"/></g>
<g transform="translate(485.625,233.625) scale(3.605)"><rect width="6" height="6"/></g>
<g transform="translate(527.625,233.625) scale(3.605)"><rect width="6" height="6"/></g>
<g transform="translate(569.625,233.625) scale(3.605)"><rect width="6" height="6"/></g>
<g transform="translate(611.625,233.625) scale(3.605)"><rect width="6" height="6"/></g>
<g transform="translate(653.625,233.625) scale(3.605)"><rect width="6" height="6"/></g>
<g transform="translate(695.625,233.625) scale(3.605)"><rect width="6" height="6"/></g>
<g transform="translate(737.625,233.625) scale(3.605)"><rect width="6" height="6"/></g>
<g transform="translate(779.625,233.625) scale(3.605)"><rect width="6" height="6"/></g>
<g transform="translate(275.625,254.625) scale(3.605)"><rect width="6" height="6"/></g>
<g transform="translate(338.625,254.625) scale(3.605)"><rect width="6" height="6"/></g>
<g transform="translate(359.625,254.625) scale(3.605)"><rect width="6" height="6"/></g>
<g transform="translate(401.625,254.625) scale(3.605)"><rect width="6" height="6"/></g>
<g transform="translate(443.625,254.625) scale(3.605)"><rect width="6" height="6"/></g>
<g transform="translate(464.625,254.625) scale(3.605)"><rect width="6" height="6"/></g>
<g transform="translate(506.625,254.625) scale(3.605)"><rect width="6" height="6"/></g>
<g transform="translate(548.625,254.625) scale(3.605)"><rect width="6" height="6"/></g>
<g transform="translate(569.625,254.625) scale(3.605)"><rect width="6" height="6"/></g>
<g transform="translate(611.625,254.625) scale(3.605)"><rect width="6" height="6"/></g>
<g transform="translate(632.625,254.625) scale(3.605)"><rect width="6" height="6"/></g>
<g transform="translate(653.625,254.625) scale(3.605)"><rect width="6" height="6"/></g>
<g transform="translate(149.625,275.625) scale(3.605)"><rect width="6" height="6"/></g>
<g transform="translate(170.625,275.625) scale(3.605)"><rect width="6" height="6"/></g>
<g transform="translate(191.625,275.625) scale(3.605)"><rect width="6" height="6"/></g>
<g transform="translate(233.625,275.625) scale(3.605)"><rect width="6" height="6"/></g>
<g transform="translate(275.625,275.625) scale(3.605)"><rect width="6" height="6"/></g>
<g transform="translate(401.625,275.625) scale(3.605)"><rect width="6" height="6"/></g>
<g transform="translate(422.625,275.625) scale(3.605)"><rect width="6" height="6"/></g>
<g transform="translate(464.625,275.625) scale(3.605)"><rect width="6" height="6"/></g>
<g transform="translate(569.625,275.625) scale(3.605)"><rect width="6" height="6"/></g>
<g transform="translate(590.625,275.625) scale(3.605)"><rect width="6" height="6"/></g>
<g transform="translate(611.625,275.625) scale(3.605)"><rect width="6" height="6"/></g>
<g transform="translate(653.625,275.625) scale(3.605)"><rect width="6" height="6"/></g>
<g transform="translate(674.625,275.625) scale(3.605)"><rect width="6" height="6"/></g>
<g transform="translate(716.625,275.625) scale(3.605)"><rect width="6" height="6"/></g>
<g transform="translate(737.625,275.625) scale(3.605)"><rect width="6" height="6"/></g>
<g transform="translate(758.625,275.625) scale(3.605)"><rect width="6" height="6"/></g>
<g transform="translate(779.625,275.625) scale(3.605)"><rect width="6" height="6"/></g>
<g transform="translate(800.625,275.625) scale(3.605)"><rect width="6" height="6"/></g>
<g transform="translate(821.625,275.625) scale(3.605)"><rect width="6" height="6"/></g>
<g transform="translate(842.625,275.625) scale(3.605)"><rect width="6" height="6"/></g>
<g transform="translate(905.625,275.625) scale(3.605)"><rect width="6" height="6"/></g>
<g transform="translate(926.625,275.625) scale(3.605)"><rect width="6" height="6"/></g>
<g transform="translate(947.625,275.625) scale(3.605)"><rect width="6" height="6"/></g>
<g transform="translate(128.625,296.625) scale(3.605)"><rect width="6" height="6"/></g>
<g transform="translate(149.625,296.625) scale(3.605)"><rect width="6" height="6"/></g>
<g transform="translate(170.625,296.625) scale(3.605)"><rect width="6" height="6"/></g>
<g transform="translate(191.625,296.625) scale(3.605)"><rect width="6" height="6"/></g>
<g transform="translate(296.625,296.625) scale(3.605)"><rect width="6" height="6"/></g>
<g transform="translate(359.625,296.625) scale(3.605)"><rect width="6" height="6"/></g>
<g transform="translate(401.625,296.625) scale(3.605)"><rect width="6" height="6"/></g>
<g transform="translate(443.625,296.625) scale(3.605)"><rect width="6" height="6"/></g>
<g transform="translate(464.625,296.625) scale(3.605)"><rect width="6" height="6"/></g>
<g transform="translate(485.625,296.625) scale(3.605)"><rect width="6" height="6"/></g>
<g transform="translate(527.625,296.625) scale(3.605)"><rect width="6" height="6"/></g>
<g transform="translate(548.625,296.625) scale(3.605)"><rect width="6" height="6"/></g>
<g transform="translate(569.625,296.625) scale(3.605)"><rect width="6" height="6"/></g>
<g transform="translate(632.625,296.625) scale(3.605)"><rect width="6" height="6"/></g>
<g transform="translate(695.625,296.625) scale(3.605)"><rect width="6" height="6"/></g>
<g transform="translate(716.625,296.625) scale(3.605)"><rect width="6" height="6"/></g>
<g transform="translate(758.625,296.625) scale(3.605)"><rect width="6" height="6"/></g>
<g transform="translate(779.625,296.625) scale(3.605)"><rect width="6" height="6"/></g>
<g transform="translate(800.625,296.625) scale(3.605)"><rect width="6" height="6"/></g>
<g transform="translate(821.625,296.625) scale(3.605)"><rect width="6" height="6"/></g>
<g transform="translate(842.625,296.625) scale(3.605)"><rect width="6" height="6"/></g>
<g transform="translate(863.625,296.625) scale(3.605)"><rect width="6" height="6"/></g>
<g transform="translate(905.625,296.625) scale(3.605)"><rect width="6" height="6"/></g>
<g transform="translate(926.625,296.625) scale(3.605)"><rect width="6" height="6"/></g>
<g transform="translate(947.625,296.625) scale(3.605)"><rect width="6" height="6"/></g>
<g transform="translate(107.625,317.625) scale(3.605)"><rect width="6" height="6"/></g>
<g transform="translate(170.625,317.625) scale(3.605)"><rect width="6" height="6"/></g>
<g transform="translate(191.625,317.625) scale(3.605)"><rect width="6" height="6"/></g>
<g transform="translate(212.625,317.625) scale(3.605)"><rect width="6" height="6"/></g>
<g transform="translate(233.625,317.625) scale(3.605)"><rect width="6" height="6"/></g>
<g transform="translate(254.625,317.625) scale(3.605)"><rect width="6" height="6"/></g>
<g transform="translate(275.625,317.625) scale(3.605)"><rect width="6" height="6"/></g>
<g transform="translate(317.625,317.625) scale(3.605)"><rect width="6" height="6"/></g>
<g transform="translate(359.625,317.625) scale(3.605)"><rect width="6" height="6"/></g>
<g transform="translate(401.625,317.625) scale(3.605)"><rect width="6" height="6"/></g>
<g transform="translate(443.625,317.625) scale(3.605)"><rect width="6" height="6"/></g>
<g transform="translate(464.625,317.625) scale(3.605)"><rect width="6" height="6"/></g>
<g transform="translate(506.625,317.625) scale(3.605)"><rect width="6" height="6"/></g>
<g transform="translate(527.625,317.625) scale(3.605)"><rect width="6" height="6"/></g>
<g transform="translate(548.625,317.625) scale(3.605)"><rect width="6" height="6"/></g>
<g transform="translate(569.625,317.625) scale(3.605)"><rect width="6" height="6"/></g>
<g transform="translate(590.625,317.625) scale(3.605)"><rect width="6" height="6"/></g>
<g transform="translate(611.625,317.625) scale(3.605)"><rect width="6" height="6"/></g>
<g transform="translate(632.625,317.625) scale(3.605)"><rect width="6" height="6"/></g>
<g transform="translate(674.625,317.625) scale(3.605)"><rect width="6" height="6"/></g>
<g transform="translate(779.625,317.625) scale(3.605)"><rect width="6" height="6"/></g>
<g transform="translate(821.625,317.625) scale(3.605)"><rect width="6" height="6"/></g>
<g transform="translate(842.625,317.625) scale(3.605)"><rect width="6" height="6"/></g>
<g transform="translate(863.625,317.625) scale(3.605)"><rect width="6" height="6"/></g>
<g transform="translate(107.625,338.625) scale(3.605)"><rect width="6" height="6"/></g>
<g transform="translate(128.625,338.625) scale(3.605)"><rect width="6" height="6"/></g>
<g transform="translate(170.625,338.625) scale(3.605)"><rect width="6" height="6"/></g>
<g transform="translate(254.625,338.625) scale(3.605)"><rect width="6" height="6"/></g>
<g transform="translate(317.625,338.625) scale(3.605)"><rect width="6" height="6"/></g>
<g transform="translate(338.625,338.625) scale(3.605)"><rect width="6" height="6"/></g>
<g transform="translate(380.625,338.625) scale(3.605)"><rect width="6" height="6"/></g>
<g transform="translate(401.625,338.625) scale(3.605)"><rect width="6" height="6"/></g>
<g transform="translate(443.625,338.625) scale(3.605)"><rect width="6" height="6"/></g>
<g transform="translate(548.625,338.625) scale(3.605)"><rect width="6" height="6"/></g>
<g transform="translate(569.625,338.625) scale(3.605)"><rect width="6" height="6"/></g>
<g transform="translate(590.625,338.625) scale(3.605)"><rect width="6" height="6"/></g>
<g transform="translate(632.625,338.625) scale(3.605)"><rect width="6" height="6"/></g>
<g transform="translate(653.625,338.625) scale(3.605)"><rect width="6" height="6"/></g>
<g transform="translate(695.625,338.625) scale(3.605)"><rect width="6" height="6"/></g>
<g transform="translate(758.625,338.625) scale(3.605)"><rect width="6" height="6"/></g>
<g transform="translate(779.625,338.625) scale(3.605)"><rect width="6" height="6"/></g>
<g transform="translate(800.625,338.625) scale(3.605)"><rect width="6" height="6"/></g>
<g transform="translate(884.625,338.625) scale(3.605)"><rect width="6" height="6"/></g>
<g transform="translate(926.625,338.625) scale(3.605)"><rect width="6" height="6"/></g>
<g transform="translate(947.625,338.625) scale(3.605)"><rect width="6" height="6"/></g>
<g transform="translate(107.625,359.625) scale(3.605)"><rect width="6" height="6"/></g>
<g transform="translate(191.625,359.625) scale(3.605)"><rect width="6" height="6"/></g>
<g transform="translate(212.625,359.625) scale(3.605)"><rect width="6" height="6"/></g>
<g transform="translate(233.625,359.625) scale(3.605)"><rect width="6" height="6"/></g>
<g transform="translate(254.625,359.625) scale(3.605)"><rect width="6" height="6"/></g>
<g transform="translate(275.625,359.625) scale(3.605)"><rect width="6" height="6"/></g>
<g transform="translate(317.625,359.625) scale(3.605)"><rect width="6" height="6"/></g>
<g transform="translate(338.625,359.625) scale(3.605)"><rect width="6" height="6"/></g>
<g transform="translate(359.625,359.625) scale(3.605)"><rect width="6" height="6"/></g>
<g transform="translate(380.625,359.625) scale(3.605)"><rect width="6" height="6"/></g>
<g transform="translate(401.625,359.625) scale(3.605)"><rect width="6" height="6"/></g>
<g transform="translate(422.625,359.625) scale(3.605)"><rect width="6" height="6"/></g>
<g transform="translate(443.625,359.625) scale(3.605)"><rect width="6" height="6"/></g>
<g transform="translate(506.625,359.625) scale(3.605)"><rect width="6" height="6"/></g>
<g transform="translate(548.625,359.625) scale(3.605)"><rect width="6" height="6"/></g>
<g transform="translate(611.625,359.625) scale(3.605)"><rect width="6" height="6"/></g>
<g transform="translate(716.625,359.625) scale(3.605)"><rect width="6" height="6"/></g>
<g transform="translate(758.625,359.625) scale(3.605)"><rect width="6" height="6"/></g>
<g transform="translate(884.625,359.625) scale(3.605)"><rect width="6" height="6"/></g>
<g transform="translate(905.625,359.625) scale(3.605)"><rect width="6" height="6"/></g>
<g transform="translate(926.625,359.625) scale(3.605)"><rect width="6" height="6"/></g>
<g transform="translate(107.625,380.625) scale(3.605)"><rect width="6" height="6"/></g>
<g transform="translate(128.625,380.625) scale(3.605)"><rect width="6" height="6"/></g>
<g transform="translate(149.625,380.625) scale(3.605)"><rect width="6" height="6"/></g>
<g transform="translate(170.625,380.625) scale(3.605)"><rect width="6" height="6"/></g>
<g transform="translate(212.625,380.625) scale(3.605)"><rect width="6" height="6"/></g>
<g transform="translate(275.625,380.625) scale(3.605)"><rect width="6" height="6"/></g>
<g transform="translate(296.625,380.625) scale(3.605)"><rect width="6" height="6"/></g>
<g transform="translate(359.625,380.625) scale(3.605)"><rect width="6" height="6"/></g>
<g transform="translate(380.625,380.625) scale(3.605)"><rect width="6" height="6"/></g>
<g transform="translate(401.625,380.625) scale(3.605)"><rect width="6" height="6"/></g>
<g transform="translate(485.625,380.625) scale(3.605)"><rect width="6" height="6"/></g>
<g transform="translate(506.625,380.625) scale(3.605)"><rect width="6" height="6"/></g>
<g transform="translate(611.625,380.625) scale(3.605)"><rect width="6" height="6"/></g>
<g transform="translate(653.625,380.625) scale(3.605)"><rect width="6" height="6"/></g>
<g transform="translate(674.625,380.625) scale(3.605)"><rect width="6" height="6"/></g>
<g transform="translate(695.625,380.625) scale(3.605)"><rect width="6" height="6"/></g>
<g transform="translate(800.625,380.625) scale(3.605)"><rect width="6" height="6"/></g>
<g transform="translate(821.625,380.625) scale(3.605)"><rect width="6" height="6"/></g>
<g transform="translate(842.625,380.625) scale(3.605)"><rect width="6" height="6"/></g>
<g transform="translate(863.625,380.625) scale(3.605)"><rect width="6" height="6"/></g>
<g transform="translate(884.625,380.625) scale(3.605)"><rect width="6" height="6"/></g>
<g transform="translate(926.625,380.625) scale(3.605)"><rect width="6" height="6"/></g>
<g transform="translate(947.625,380.625) scale(3.605)"><rect width="6" height="6"/></g>
<g transform="translate(107.625,401.625) scale(3.605)"><rect width="6" height="6"/></g>
<g transform="translate(149.625,401.625) scale(3.605)"><rect width="6" height="6"/></g>
<g transform="translate(191.625,401.625) scale(3.605)"><rect width="6" height="6"/></g>
<g transform="translate(233.625,401.625) scale(3.605)"><rect width="6" height="6"/></g>
<g transform="translate(275.625,401.625) scale(3.605)"><rect width="6" height="6"/></g>
<g transform="translate(359.625,401.625) scale(3.605)"><rect width="6" height="6"/></g>
<g transform="translate(422.625,401.625) scale(3.605)"><rect width="6" height="6"/></g>
<g transform="translate(464.625,401.625) scale(3.605)"><rect width="6" height="6"/></g>
<g transform="translate(485.625,401.625) scale(3.605)"><rect width="6" height="6"/></g>
<g transform="translate(506.625,401.625) scale(3.605)"><rect width="6" height="6"/></g>
<g transform="translate(548.625,401.625) scale(3.605)"><rect width="6" height="6"/></g>
<g transform="translate(569.625,401.625) scale(3.605)"><rect width="6" height="6"/></g>
<g transform="translate(632.625,401.625) scale(3.605)"><rect width="6" height="6"/></g>
<g transform="translate(779.625,401.625) scale(3.605)"><rect width="6" height="6"/></g>
<g transform="translate(800.625,401.625) scale(3.605)"><rect width="6" height="6"/></g>
<g transform="translate(842.625,401.625) scale(3.605)"><rect width="6" height="6"/></g>
<g transform="translate(863.625,401.625) scale(3.605)"><rect width="6" height="6"/></g>
<g transform="translate(884.625,401.625) scale(3.605)"><rect width="6" height="6"/></g>
<g transform="translate(905.625,401.625) scale(3.605)"><rect width="6" height="6"/></g>
<g transform="translate(128.625,422.625) scale(3.605)"><rect width="6" height="6"/></g>
<g transform="translate(170.625,422.625) scale(3.605)"><rect width="6" height="6"/></g>
<g transform="translate(254.625,422.625) scale(3.605)"><rect width="6" height="6"/></g>
<g transform="translate(275.625,422.625) scale(3.605)"><rect width="6" height="6"/></g>
<g transform="translate(296.625,422.625) scale(3.605)"><rect width="6" height="6"/></g>
<g transform="translate(338.625,422.625) scale(3.605)"><rect width="6" height="6"/></g>
<g transform="translate(401.625,422.625) scale(3.605)"><rect width="6" height="6"/></g>
<g transform="translate(422.625,422.625) scale(3.605)"><rect width="6" height="6"/></g>
<g transform="translate(443.625,422.625) scale(3.605)"><rect width="6" height="6"/></g>
<g transform="translate(464.625,422.625) scale(3.605)"><rect width="6" height="6"/></g>
<g transform="translate(485.625,422.625) scale(3.605)"><rect width="6" height="6"/></g>
<g transform="translate(506.625,422.625) scale(3.605)"><rect width="6" height="6"/></g>
<g transform="translate(548.625,422.625) scale(3.605)"><rect width="6" height="6"/></g>
<g transform="translate(611.625,422.625) scale(3.605)"><rect width="6" height="6"/></g>
<g transform="translate(632.625,422.625) scale(3.605)"><rect width="6" height="6"/></g>
<g transform="translate(695.625,422.625) scale(3.605)"><rect width="6" height="6"/></g>
<g transform="translate(737.625,422.625) scale(3.605)"><rect width="6" height="6"/></g>
<g transform="translate(821.625,422.625) scale(3.605)"><rect width="6" height="6"/></g>
<g transform="translate(842.625,422.625) scale(3.605)"><rect width="6" height="6"/></g>
<g transform="translate(863.625,422.625) scale(3.605)"><rect width="6" height="6"/></g>
<g transform="translate(128.625,443.625) scale(3.605)"><rect width="6" height="6"/></g>
<g transform="translate(149.625,443.625) scale(3.605)"><rect width="6" height="6"/></g>
<g transform="translate(191.625,443.625) scale(3.605)"><rect width="6" height="6"/></g>
<g transform="translate(212.625,443.625) scale(3.605)"><rect width="6" height="6"/></g>
<g transform="translate(233.625,443.625) scale(3.605)"><rect width="6" height="6"/></g>
<g transform="translate(275.625,443.625) scale(3.605)"><rect width="6" height="6"/></g>
<g transform="translate(359.625,443.625) scale(3.605)"><rect width="6" height="6"/></g>
<g transform="translate(464.625,443.625) scale(3.605)"><rect width="6" height="6"/></g>
<g transform="translate(485.625,443.625) scale(3.605)"><rect width="6" height="6"/></g>
<g transform="translate(506.625,443.625) scale(3.605)"><rect width="6" height="6"/></g>
<g transform="translate(548.625,443.625) scale(3.605)"><rect width="6" height="6"/></g>
<g transform="translate(569.625,443.625) scale(3.605)"><rect width="6" height="6"/></g>
<g transform="translate(653.625,443.625) scale(3.605)"><rect width="6" height="6"/></g>
<g transform="translate(695.625,443.625) scale(3.605)"><rect width="6" height="6"/></g>
<g transform="translate(716.625,443.625) scale(3.605)"><rect width="6" height="6"/></g>
<g transform="translate(758.625,443.625) scale(3.605)"><rect width="6" height="6"/></g>
<g transform="translate(800.625,443.625) scale(3.605)"><rect width="6" height="6"/></g>
<g transform="translate(842.625,443.625) scale(3.605)"><rect width="6" height="6"/></g>
<g transform="translate(905.625,443.625) scale(3.605)"><rect width="6" height="6"/></g>
<g transform="translate(947.625,443.625) scale(3.605)"><rect width="6" height="6"/></g>
<g transform="translate(128.625,464.625) scale(3.605)"><rect width="6" height="6"/></g>
<g transform="translate(149.625,464.625) scale(3.605)"><rect width="6" height="6"/></g>
<g transform="translate(191.625,464.625) scale(3.605)"><rect width="6" height="6"/></g>
<g transform="translate(212.625,464.625) scale(3.605)"><rect width="6" height="6"/></g>
<g transform="translate(254.625,464.625) scale(3.605)"><rect width="6" height="6"/></g>
<g transform="translate(275.625,464.625) scale(3.605)"><rect width="6" height="6"/></g>
<g transform="translate(296.625,464.625) scale(3.605)"><rect width="6" height="6"/></g>
<g transform="translate(401.625,464.625) scale(3.605)"><rect width="6" height="6"/></g>
<g transform="translate(443.625,464.625) scale(3.605)"><rect width="6" height="6"/></g>
<g transform="translate(464.625,464.625) scale(3.605)"><rect width="6" height="6"/></g>
<g transform="translate(527.625,464.625) scale(3.605)"><rect width="6" height="6"/></g>
<g transform="translate(569.625,464.625) scale(3.605)"><rect width="6" height="6"/></g>
<g transform="translate(611.625,464.625) scale(3.605)"><rect width="6" height="6"/></g>
<g transform="translate(653.625,464.625) scale(3.605)"><rect width="6" height="6"/></g>
<g transform="translate(695.625,464.625) scale(3.605)"><rect width="6" height="6"/></g>
<g transform="translate(737.625,464.625) scale(3.605)"><rect width="6" height="6"/></g>
<g transform="translate(758.625,464.625) scale(3.605)"><rect width="6" height="6"/></g>
<g transform="translate(779.625,464.625) scale(3.605)"><rect width="6" height="6"/></g>
<g transform="translate(821.625,464.625) scale(3.605)"><rect width="6" height="6"/></g>
<g transform="translate(842.625,464.625) scale(3.605)"><rect width="6" height="6"/></g>
<g transform="translate(863.625,464.625) scale(3.605)"><rect width="6" height="6"/></g>
<g transform="translate(926.625,464.625) scale(3.605)"><rect width="6" height="6"/></g>
<g transform="translate(947.625,464.625) scale(3.605)"><rect width="6" height="6"/></g>
<g transform="translate(128.625,485.625) scale(3.605)"><rect width="6" height="6"/></g>
<g transform="translate(170.625,485.625) scale(3.605)"><rect width="6" height="6"/></g>
<g transform="translate(212.625,485.625) scale(3.605)"><rect width="6" height="6"/></g>
<g transform="translate(233.625,485.625) scale(3.605)"><rect width="6" height="6"/></g>
<g transform="translate(317.625,485.625) scale(3.605)"><rect width="6" height="6"/></g>
<g transform="translate(422.625,485.625) scale(3.605)"><rect width="6" height="6"/></g>
<g transform="translate(464.625,485.625) scale(3.605)"><rect width="6" height="6"/></g>
<g transform="translate(506.625,485.625) scale(3.605)"><rect width="6" height="6"/></g>
<g transform="translate(548.625,485.625) scale(3.605)"><rect width="6" height="6"/></g>
<g transform="translate(569.625,485.625) scale(3.605)"><rect width="6" height="6"/></g>
<g transform="translate(590.625,485.625) scale(3.605)"><rect width="6" height="6"/></g>
<g transform="translate(632.625,485.625) scale(3.605)"><rect width="6" height="6"/></g>
<g transform="translate(653.625,485.625) scale(3.605)"><rect width="6" height="6"/></g>
<g transform="translate(674.625,485.625) scale(3.605)"><rect width="6" height="6"/></g>
<g transform="translate(695.625,485.625) scale(3.605)"><rect width="6" height="6"/></g>
<g transform="translate(737.625,485.625) scale(3.605)"><rect width="6" height="6"/></g>
<g transform="translate(779.625,485.625) scale(3.605)"><rect width="6" height="6"/></g>
<g transform="translate(800.625,485.625) scale(3.605)"><rect width="6" height="6"/></g>
<g transform="translate(863.625,485.625) scale(3.605)"><rect width="6" height="6"/></g>
<g transform="translate(884.625,485.625) scale(3.605)"><rect width="6" height="6"/></g>
<g transform="translate(107.625,506.625) scale(3.605)"><rect width="6" height="6"/></g>
<g transform="translate(170.625,506.625) scale(3.605)"><rect width="6" height="6"/></g>
<g transform="translate(359.625,506.625) scale(3.605)"><rect width="6" height="6"/></g>
<g transform="translate(401.625,506.625) scale(3.605)"><rect width="6" height="6"/></g>
<g transform="translate(443.625,506.625) scale(3.605)"><rect width="6" height="6"/></g>
<g transform="translate(485.625,506.625) scale(3.605)"><rect width="6" height="6"/></g>
<g transform="translate(506.625,506.625) scale(3.605)"><rect width="6" height="6"/></g>
<g transform="translate(590.625,506.625) scale(3.605)"><rect width="6" height="6"/></g>
<g transform="translate(653.625,506.625) scale(3.605)"><rect width="6" height="6"/></g>
<g transform="translate(695.625,506.625) scale(3.605)"><rect width="6" height="6"/></g>
<g transform="translate(863.625,506.625) scale(3.605)"><rect width="6" height="6"/></g>
<g transform="translate(884.625,506.625) scale(3.605)"><rect width="6" height="6"/></g>
<g transform="translate(926.625,506.625) scale(3.605)"><rect width="6" height="6"/></g>
<g transform="translate(947.625,506.625) scale(3.605)"><rect width="6" height="6"/></g>
<g transform="translate(149.625,527.625) scale(3.605)"><rect width="6" height="6"/></g>
<g transform="translate(170.625,527.625) scale(3.605)"><rect width="6" height="6"/></g>
<g transform="translate(191.625,527.625) scale(3.605)"><rect width="6" height="6"/></g>
<g transform="translate(212.625,527.625) scale(3.605)"><rect width="6" height="6"/></g>
<g transform="translate(233.625,527.625) scale(3.605)"><rect width="6" height="6"/></g>
<g transform="translate(296.625,527.625) scale(3.605)"><rect width="6" height="6"/></g>
<g transform="translate(338.625,527.625) scale(3.605)"><rect width="6" height="6"/></g>
<g transform="translate(359.625,527.625) scale(3.605)"><rect width="6" height="6"/></g>
<g transform="translate(443.625,527.625) scale(3.605)"><rect width="6" height="6"/></g>
<g transform="translate(506.625,527.625) scale(3.605)"><rect width="6" height="6"/></g>
<g transform="translate(527.625,527.625) scale(3.605)"><rect width="6" height="6"/></g>
<g transform="translate(569.625,527.625) scale(3.605)"><rect width="6" height="6"/></g>
<g transform="translate(611.625,527.625) scale(3.605)"><rect width="6" height="6"/></g>
<g transform="translate(632.625,527.625) scale(3.605)"><rect width="6" height="6"/></g>
<g transform="translate(653.625,527.625) scale(3.605)"><rect width="6" height="6"/></g>
<g transform="translate(695.625,527.625) scale(3.605)"><rect width="6" height="6"/></g>
<g transform="translate(737.625,527.625) scale(3.605)"><rect width="6" height="6"/></g>
<g transform="translate(758.625,527.625) scale(3.605)"><rect width="6" height="6"/></g>
<g transform="translate(905.625,527.625) scale(3.605)"><rect width="6" height="6"/></g>
<g transform="translate(926.625,527.625) scale(3.605)"><rect width="6" height="6"/></g>
<g transform="translate(128.625,548.625) scale(3.605)"><rect width="6" height="6"/></g>
<g transform="translate(149.625,548.625) scale(3.605)"><rect width="6" height="6"/></g>
<g transform="translate(191.625,548.625) scale(3.605)"><rect width="6" height="6"/></g>
<g transform="translate(317.625,548.625) scale(3.605)"><rect width="6" height="6"/></g>
<g transform="translate(443.625,548.625) scale(3.605)"><rect width="6" height="6"/></g>
<g transform="translate(485.625,548.625) scale(3.605)"><rect width="6" height="6"/></g>
<g transform="translate(527.625,548.625) scale(3.605)"><rect width="6" height="6"/></g>
<g transform="translate(590.625,548.625) scale(3.605)"><rect width="6" height="6"/></g>
<g transform="translate(632.625,548.625) scale(3.605)"><rect width="6" height="6"/></g>
<g transform="translate(653.625,548.625) scale(3.605)"><rect width="6" height="6"/></g>
<g transform="translate(695.625,548.625) scale(3.605)"><rect width="6" height="6"/></g>
<g transform="translate(758.625,548.625) scale(3.605)"><rect width="6" height="6"/></g>
<g transform="translate(779.625,548.625) scale(3.605)"><rect width="6" height="6"/></g>
<g transform="translate(800.625,548.625) scale(3.605)"><rect width="6" height="6"/></g>
<g transform="translate(821.625,548.625) scale(3.605)"><rect width="6" height="6"/></g>
<g transform="translate(842.625,548.625) scale(3.605)"><rect width="6" height="6"/></g>
<g transform="translate(863.625,548.625) scale(3.605)"><rect width="6" height="6"/></g>
<g transform="translate(926.625,548.625) scale(3.605)"><rect width="6" height="6"/></g>
<g transform="translate(947.625,548.625) scale(3.605)"><rect width="6" height="6"/></g>
<g transform="translate(107.625,569.625) scale(3.605)"><rect width="6" height="6"/></g>
<g transform="translate(128.625,569.625) scale(3.605)"><rect width="6" height="6"/></g>
<g transform="translate(149.625,569.625) scale(3.605)"><rect width="6" height="6"/></g>
<g transform="translate(233.625,569.625) scale(3.605)"><rect width="6" height="6"/></g>
<g transform="translate(254.625,569.625) scale(3.605)"><rect width="6" height="6"/></g>
<g transform="translate(275.625,569.625) scale(3.605)"><rect width="6" height="6"/></g>
<g transform="translate(359.625,569.625) scale(3.605)"><rect width="6" height="6"/></g>
<g transform="translate(422.625,569.625) scale(3.605)"><rect width="6" height="6"/></g>
<g transform="translate(443.625,569.625) scale(3.605)"><rect width="6" height="6"/></g>
<g transform="translate(464.625,569.625) scale(3.605)"><rect width="6" height="6"/></g>
<g transform="translate(548.625,569.625) scale(3.605)"><rect width="6" height="6"/></g>
<g transform="translate(569.625,569.625) scale(3.605)"><rect width="6" height="6"/></g>
<g transform="translate(653.625,569.625) scale(3.605)"><rect width="6" height="6"/></g>
<g transform="translate(674.625,569.625) scale(3.605)"><rect width="6" height="6"/></g>
<g transform="translate(695.625,569.625) scale(3.605)"><rect width="6" height="6"/></g>
<g transform="translate(716.625,569.625) scale(3.605)"><rect width="6" height="6"/></g>
<g transform="translate(737.625,569.625) scale(3.605)"><rect width="6" height="6"/></g>
<g transform="translate(800.625,569.625) scale(3.605)"><rect width="6" height="6"/></g>
<g transform="translate(842.625,569.625) scale(3.605)"><rect width="6" height="6"/></g>
<g transform="translate(863.625,569.625) scale(3.605)"><rect width="6" height="6"/></g>
<g transform="translate(884.625,569.625) scale(3.605)"><rect width="6" height="6"/></g>
<g transform="translate(128.625,590.625) scale(3.605)"><rect width="6" height="6"/></g>
<g transform="translate(170.625,590.625) scale(3.605)"><rect width="6" height="6"/></g>
<g transform="translate(191.625,590.625) scale(3.605)"><rect width="6" height="6"/></g>
<g transform="translate(212.625,590.625) scale(3.605)"><rect width="6" height="6"/></g>
<g transform="translate(254.625,590.625) scale(3.605)"><rect width="6" height="6"/></g>
<g transform="translate(401.625,590.625) scale(3.605)"><rect width="6" height="6"/></g>
<g transform="translate(422.625,590.625) scale(3.605)"><rect width="6" height="6"/></g>
<g transform="translate(506.625,590.625) scale(3.605)"><rect width="6" height="6"/></g>
<g transform="translate(548.625,590.625) scale(3.605)"><rect width="6" height="6"/></g>
<g transform="translate(569.625,590.625) scale(3.605)"><rect width="6" height="6"/></g>
<g transform="translate(590.625,590.625) scale(3.605)"><rect width="6" height="6"/></g>
<g transform="translate(611.625,590.625) scale(3.605)"><rect width="6" height="6"/></g>
<g transform="translate(695.625,590.625) scale(3.605)"><rect width="6" height="6"/></g>
<g transform="translate(779.625,590.625) scale(3.605)"><rect width="6" height="6"/></g>
<g transform="translate(821.625,590.625) scale(3.605)"><rect width="6" height="6"/></g>
<g transform="translate(884.625,590.625) scale(3.605)"><rect width="6" height="6"/></g>
<g transform="translate(926.625,590.625) scale(3.605)"><rect width="6" height="6"/></g>
<g transform="translate(107.625,611.625) scale(3.605)"><rect width="6" height="6"/></g>
<g transform="translate(128.625,611.625) scale(3.605)"><rect width="6" height="6"/></g>
<g transform="translate(149.625,611.625) scale(3.605)"><rect width="6" height="6"/></g>
<g transform="translate(170.625,611.625) scale(3.605)"><rect width="6" height="6"/></g>
<g transform="translate(233.625,611.625) scale(3.605)"><rect width="6" height="6"/></g>
<g transform="translate(275.625,611.625) scale(3.605)"><rect width="6" height="6"/></g>
<g transform="translate(317.625,611.625) scale(3.605)"><rect width="6" height="6"/></g>
<g transform="translate(338.625,611.625) scale(3.605)"><rect width="6" height="6"/></g>
<g transform="translate(380.625,611.625) scale(3.605)"><rect width="6" height="6"/></g>
<g transform="translate(422.625,611.625) scale(3.605)"><rect width="6" height="6"/></g>
<g transform="translate(506.625,611.625) scale(3.605)"><rect width="6" height="6"/></g>
<g transform="translate(527.625,611.625) scale(3.605)"><rect width="6" height="6"/></g>
<g transform="translate(569.625,611.625) scale(3.605)"><rect width="6" height="6"/></g>
<g transform="translate(632.625,611.625) scale(3.605)"><rect width="6" height="6"/></g>
<g transform="translate(653.625,611.625) scale(3.605)"><rect width="6" height="6"/></g>
<g transform="translate(716.625,611.625) scale(3.605)"><rect width="6" height="6"/></g>
<g transform="translate(800.625,611.625) scale(3.605)"><rect width="6" height="6"/></g>
<g transform="translate(905.625,611.625) scale(3.605)"><rect width="6" height="6"/></g>
<g transform="translate(128.625,632.625) scale(3.605)"><rect width="6" height="6"/></g>
<g transform="translate(254.625,632.625) scale(3.605)"><rect width="6" height="6"/></g>
<g transform="translate(296.625,632.625) scale(3.605)"><rect width="6" height="6"/></g>
<g transform="translate(317.625,632.625) scale(3.605)"><rect width="6" height="6"/></g>
<g transform="translate(359.625,632.625) scale(3.605)"><rect width="6" height="6"/></g>
<g transform="translate(401.625,632.625) scale(3.605)"><rect width="6" height="6"/></g>
<g transform="translate(422.625,632.625) scale(3.605)"><rect width="6" height="6"/></g>
<g transform="translate(485.625,632.625) scale(3.605)"><rect width="6" height="6"/></g>
<g transform="translate(506.625,632.625) scale(3.605)"><rect width="6" height="6"/></g>
<g transform="translate(569.625,632.625) scale(3.605)"><rect width="6" height="6"/></g>
<g transform="translate(590.625,632.625) scale(3.605)"><rect width="6" height="6"/></g>
<g transform="translate(737.625,632.625) scale(3.605)"><rect width="6" height="6"/></g>
<g transform="translate(758.625,632.625) scale(3.605)"><rect width="6" height="6"/></g>
<g transform="translate(800.625,632.625) scale(3.605)"><rect width="6" height="6"/></g>
<g transform="translate(821.625,632.625) scale(3.605)"><rect width="6" height="6"/></g>
<g transform="translate(842.625,632.625) scale(3.605)"><rect width="6" height="6"/></g>
<g transform="translate(863.625,632.625) scale(3.605)"><rect width="6" height="6"/></g>
<g transform="translate(884.625,632.625) scale(3.605)"><rect width="6" height="6"/></g>
<g transform="translate(947.625,632.625) scale(3.605)"><rect width="6" height="6"/></g>
<g transform="translate(107.625,653.625) scale(3.605)"><rect width="6" height="6"/></g>
<g transform="translate(128.625,653.625) scale(3.605)"><rect width="6" height="6"/></g>
<g transform="translate(149.625,653.625) scale(3.605)"><rect width="6" height="6"/></g>
<g transform="translate(170.625,653.625) scale(3.605)"><rect width="6" height="6"/></g>
<g transform="translate(212.625,653.625) scale(3.605)"><rect width="6" height="6"/></g>
<g transform="translate(233.625,653.625) scale(3.605)"><rect width="6" height="6"/></g>
<g transform="translate(317.625,653.625) scale(3.605)"><rect width="6" height="6"/></g>
<g transform="translate(380.625,653.625) scale(3.605)"><rect width="6" height="6"/></g>
<g transform="translate(401.625,653.625) scale(3.605)"><rect width="6" height="6"/></g>
<g transform="translate(443.625,653.625) scale(3.605)"><rect width="6" height="6"/></g>
<g transform="translate(485.625,653.625) scale(3.605)"><rect width="6" height="6"/></g>
<g transform="translate(506.625,653.625) scale(3.605)"><rect width="6" height="6"/></g>
<g transform="translate(548.625,653.625) scale(3.605)"><rect width="6" height="6"/></g>
<g transform="translate(569.625,653.625) scale(3.605)"><rect width="6" height="6"/></g>
<g transform="translate(611.625,653.625) scale(3.605)"><rect width="6" height="6"/></g>
<g transform="translate(674.625,653.625) scale(3.605)"><rect width="6" height="6"/></g>
<g transform="translate(716.625,653.625) scale(3.605)"><rect width="6" height="6"/></g>
<g transform="translate(737.625,653.625) scale(3.605)"><rect width="6" height="6"/></g>
<g transform="translate(779.625,653.625) scale(3.605)"><rect width="6" height="6"/></g>
<g transform="translate(800.625,653.625) scale(3.605)"><rect width="6" height="6"/></g>
<g transform="translate(821.625,653.625) scale(3.605)"><rect width="6" height="6"/></g>
<g transform="translate(863.625,653.625) scale(3.605)"><rect width="6" height="6"/></g>
<g transform="translate(107.625,674.625) scale(3.605)"><rect width="6" height="6"/></g>
<g transform="translate(128.625,674.625) scale(3.605)"><rect width="6" height="6"/></g>
<g transform="translate(170.625,674.625) scale(3.605)"><rect width="6" height="6"/></g>
<g transform="translate(191.625,674.625) scale(3.605)"><rect width="6" height="6"/></g>
<g transform="translate(254.625,674.625) scale(3.605)"><rect width="6" height="6"/></g>
<g transform="translate(296.625,674.625) scale(3.605)"><rect width="6" height="6"/></g>
<g transform="translate(317.625,674.625) scale(3.605)"><rect width="6" height="6"/></g>
<g transform="translate(380.625,674.625) scale(3.605)"><rect width="6" height="6"/></g>
<g transform="translate(401.625,674.625) scale(3.605)"><rect width="6" height="6"/></g>
<g transform="translate(443.625,674.625) scale(3.605)"><rect width="6" height="6"/></g>
<g transform="translate(464.625,674.625) scale(3.605)"><rect width="6" height="6"/></g>
<g transform="translate(485.625,674.625) scale(3.605)"><rect width="6" height="6"/></g>
<g transform="translate(506.625,674.625) scale(3.605)"><rect width="6" height="6"/></g>
<g transform="translate(527.625,674.625) scale(3.605)"><rect width="6" height="6"/></g>
<g transform="translate(548.625,674.625) scale(3.605)"><rect width="6" height="6"/></g>
<g transform="translate(590.625,674.625) scale(3.605)"><rect width="6" height="6"/></g>
<g transform="translate(611.625,674.625) scale(3.605)"><rect width="6" height="6"/></g>
<g transform="translate(632.625,674.625) scale(3.605)"><rect width="6" height="6"/></g>
<g transform="translate(653.625,674.625) scale(3.605)"><rect width="6" height="6"/></g>
<g transform="translate(674.625,674.625) scale(3.605)"><rect width="6" height="6"/></g>
<g transform="translate(695.625,674.625) scale(3.605)"><rect width="6" height="6"/></g>
<g transform="translate(737.625,674.625) scale(3.605)"><rect width="6" height="6"/></g>
<g transform="translate(758.625,674.625) scale(3.605)"><rect width="6" height="6"/></g>
<g transform="translate(779.625,674.625) scale(3.605)"><rect width="6" height="6"/></g>
<g transform="translate(842.625,674.625) scale(3.605)"><rect width="6" height="6"/></g>
<g transform="translate(863.625,674.625) scale(3.605)"><rect width="6" height="6"/></g>
<g transform="translate(884.625,674.625) scale(3.605)"><rect width="6" height="6"/></g>
<g transform="translate(107.625,695.625) scale(3.605)"><rect width="6" height="6"/></g>
<g transform="translate(191.625,695.625) scale(3.605)"><rect width="6" height="6"/></g>
<g transform="translate(212.625,695.625) scale(3.605)"><rect width="6" height="6"/></g>
<g transform="translate(233.625,695.625) scale(3.605)"><rect width="6" height="6"/></g>
<g transform="translate(317.625,695.625) scale(3.605)"><rect width="6" height="6"/></g>
<g transform="translate(338.625,695.625) scale(3.605)"><rect width="6" height="6"/></g>
<g transform="translate(401.625,695.625) scale(3.605)"><rect width="6" height="6"/></g>
<g transform="translate(464.625,695.625) scale(3.605)"><rect width="6" height="6"/></g>
<g transform="translate(485.625,695.625) scale(3.605)"><rect width="6" height="6"/></g>
<g transform="translate(506.625,695.625) scale(3.605)"><rect width="6" height="6"/></g>
<g transform="translate(527.625,695.625) scale(3.605)"><rect width="6" height="6"/></g>
<g transform="translate(548.625,695.625) scale(3.605)"><rect width="6" height="6"/></g>
<g transform="translate(611.625,695.625) scale(3.605)"><rect width="6" height="6"/></g>
<g transform="translate(632.625,695.625) scale(3.605)"><rect width="6" height="6"/></g>
<g transform="translate(674.625,695.625) scale(3.605)"><rect width="6" height="6"/></g>
<g transform="translate(695.625,695.625) scale(3.605)"><rect width="6" height="6"/></g>
<g transform="translate(716.625,695.625) scale(3.605)"><rect width="6" height="6"/></g>
<g transform="translate(758.625,695.625) scale(3.605)"><rect width="6" height="6"/></g>
<g transform="translate(779.625,695.625) scale(3.605)"><rect width="6" height="6"/></g>
<g transform="translate(884.625,695.625) scale(3.605)"><rect width="6" height="6"/></g>
<g transform="translate(905.625,695.625) scale(3.605)"><rect width="6" height="6"/></g>
<g transform="translate(107.625,716.625) scale(3.605)"><rect width="6" height="6"/></g>
<g transform="translate(128.625,716.625) scale(3.605)"><rect width="6" height="6"/></g>
<g transform="translate(170.625,716.625) scale(3.605)"><rect width="6" height="6"/></g>
<g transform="translate(317.625,716.625) scale(3.605)"><rect width="6" height="6"/></g>
<g transform="translate(359.625,716.625) scale(3.605)"><rect width="6" height="6"/></g>
<g transform="translate(464.625,716.625) scale(3.605)"><rect width="6" height="6"/></g>
<g transform="translate(485.625,716.625) scale(3.605)"><rect width="6" height="6"/></g>
<g transform="translate(569.625,716.625) scale(3.605)"><rect width="6" height="6"/></g>
<g transform="translate(590.625,716.625) scale(3.605)"><rect width="6" height="6"/></g>
<g transform="translate(653.625,716.625) scale(3.605)"><rect width="6" height="6"/></g>
<g transform="translate(674.625,716.625) scale(3.605)"><rect width="6" height="6"/></g>
<g transform="translate(737.625,716.625) scale(3.605)"><rect width="6" height="6"/></g>
<g transform="translate(758.625,716.625) scale(3.605)"><rect width="6" height="6"/></g>
<g transform="translate(779.625,716.625) scale(3.605)"><rect width="6" height="6"/></g>
<g transform="translate(821.625,716.625) scale(3.605)"><rect width="6" height="6"/></g>
<g transform="translate(842.625,716.625) scale(3.605)"><rect width="6" height="6"/></g>
<g transform="translate(863.625,716.625) scale(3.605)"><rect width="6" height="6"/></g>
<g transform="translate(884.625,716.625) scale(3.605)"><rect width="6" height="6"/></g>
<g transform="translate(905.625,716.625) scale(3.605)"><rect width="6" height="6"/></g>
<g transform="translate(926.625,716.625) scale(3.605)"><rect width="6" height="6"/></g>
<g transform="translate(947.625,716.625) scale(3.605)"><rect width="6" height="6"/></g>
<g transform="translate(107.625,737.625) scale(3.605)"><rect width="6" height="6"/></g>
<g transform="translate(170.625,737.625) scale(3.605)"><rect width="6" height="6"/></g>
<g transform="translate(191.625,737.625) scale(3.605)"><rect width="6" height="6"/></g>
<g transform="translate(212.625,737.625) scale(3.605)"><rect width="6" height="6"/></g>
<g transform="translate(233.625,737.625) scale(3.605)"><rect width="6" height="6"/></g>
<g transform="translate(296.625,737.625) scale(3.605)"><rect width="6" height="6"/></g>
<g transform="translate(443.625,737.625) scale(3.605)"><rect width="6" height="6"/></g>
<g transform="translate(464.625,737.625) scale(3.605)"><rect width="6" height="6"/></g>
<g transform="translate(506.625,737.625) scale(3.605)"><rect width="6" height="6"/></g>
<g transform="translate(548.625,737.625) scale(3.605)"><rect width="6" height="6"/></g>
<g transform="translate(569.625,737.625) scale(3.605)"><rect width="6" height="6"/></g>
<g transform="translate(590.625,737.625) scale(3.605)"><rect width="6" height="6"/></g>
<g transform="translate(653.625,737.625) scale(3.605)"><rect width="6" height="6"/></g>
<g transform="translate(674.625,737.625) scale(3.605)"><rect width="6" height="6"/></g>
<g transform="translate(695.625,737.625) scale(3.605)"><rect width="6" height="6"/></g>
<g transform="translate(800.625,737.625) scale(3.605)"><rect width="6" height="6"/></g>
<g transform="translate(821.625,737.625) scale(3.605)"><rect width="6" height="6"/></g>
<g transform="translate(863.625,737.625) scale(3.605)"><rect width="6" height="6"/></g>
<g transform="translate(884.625,737.625) scale(3.605)"><rect width="6" height="6"/></g>
<g transform="translate(905.625,737.625) scale(3.605)"><rect width="6" height="6"/></g>
<g transform="translate(107.625,758.625) scale(3.605)"><rect width="6" height="6"/></g>
<g transform="translate(149.625,758.625) scale(3.605)"><rect width="6" height="6"/></g>
<g transform="translate(191.625,758.625) scale(3.605)"><rect width="6" height="6"/></g>
<g transform="translate(254.625,758.625) scale(3.605)"><rect width="6" height="6"/></g>
<g transform="translate(275.625,758.625) scale(3.605)"><rect width="6" height="6"/></g>
<g transform="translate(296.625,758.625) scale(3.605)"><rect width="6" height="6"/></g>
<g transform="translate(338.625,758.625) scale(3.605)"><rect width="6" height="6"/></g>
<g transform="translate(359.625,758.625) scale(3.605)"><rect width="6" height="6"/></g>
<g transform="translate(401.625,758.625) scale(3.605)"><rect width="6" height="6"/></g>
<g transform="translate(422.625,758.625) scale(3.605)"><rect width="6" height="6"/></g>
<g transform="translate(443.625,758.625) scale(3.605)"><rect width="6" height="6"/></g>
<g transform="translate(464.625,758.625) scale(3.605)"><rect width="6" height="6"/></g>
<g transform="translate(506.625,758.625) scale(3.605)"><rect width="6" height="6"/></g>
<g transform="translate(527.625,758.625) scale(3.605)"><rect width="6" height="6"/></g>
<g transform="translate(548.625,758.625) scale(3.605)"><rect width="6" height="6"/></g>
<g transform="translate(590.625,758.625) scale(3.605)"><rect width="6" height="6"/></g>
<g transform="translate(611.625,758.625) scale(3.605)"><rect width="6" height="6"/></g>
<g transform="translate(632.625,758.625) scale(3.605)"><rect width="6" height="6"/></g>
<g transform="translate(653.625,758.625) scale(3.605)"><rect width="6" height="6"/></g>
<g transform="translate(674.625,758.625) scale(3.605)"><rect width="6" height="6"/></g>
<g transform="translate(779.625,758.625) scale(3.605)"><rect width="6" height="6"/></g>
<g transform="translate(800.625,758.625) scale(3.605)"><rect width="6" height="6"/></g>
<g transform="translate(821.625,758.625) scale(3.605)"><rect width="6" height="6"/></g>
<g transform="translate(884.625,758.625) scale(3.605)"><rect width="6" height="6"/></g>
<g transform="translate(107.625,779.625) scale(3.605)"><rect width="6" height="6"/></g>
<g transform="translate(170.625,779.625) scale(3.605)"><rect width="6" height="6"/></g>
<g transform="translate(191.625,779.625) scale(3.605)"><rect width="6" height="6"/></g>
<g transform="translate(233.625,779.625) scale(3.605)"><rect width="6" height="6"/></g>
<g transform="translate(254.625,779.625) scale(3.605)"><rect width="6" height="6"/></g>
<g transform="translate(317.625,779.625) scale(3.605)"><rect width="6" height="6"/></g>
<g transform="translate(338.625,779.625) scale(3.605)"><rect width="6" height="6"/></g>
<g transform="translate(401.625,779.625) scale(3.605)"><rect width="6" height="6"/></g>
<g transform="translate(422.625,779.625) scale(3.605)"><rect width="6" height="6"/></g>
<g transform="translate(548.625,779.625) scale(3.605)"><rect width="6" height="6"/></g>
<g transform="translate(569.625,779.625) scale(3.605)"><rect width="6" height="6"/></g>
<g transform="translate(632.625,779.625) scale(3.605)"><rect width="6" height="6"/></g>
<g transform="translate(674.625,779.625) scale(3.605)"><rect width="6" height="6"/></g>
<g transform="translate(716.625,779.625) scale(3.605)"><rect width="6" height="6"/></g>
<g transform="translate(779.625,779.625) scale(3.605)"><rect width="6" height="6"/></g>
<g transform="translate(800.625,779.625) scale(3.605)"><rect width="6" height="6"/></g>
<g transform="translate(821.625,779.625) scale(3.605)"><rect width="6" height="6"/></g>
<g transform="translate(842.625,779.625) scale(3.605)"><rect width="6" height="6"/></g>
<g transform="translate(863.625,779.625) scale(3.605)"><rect width="6" height="6"/></g>
<g transform="translate(905.625,779.625) scale(3.605)"><rect width="6" height="6"/></g>
<g transform="translate(275.625,800.625) scale(3.605)"><rect width="6" height="6"/></g>
<g transform="translate(296.625,800.625) scale(3.605)"><rect width="6" height="6"/></g>
<g transform="translate(401.625,800.625) scale(3.605)"><rect width="6" height="6"/></g>
<g transform="translate(464.625,800.625) scale(3.605)"><rect width="6" height="6"/></g>
<g transform="translate(506.625,800.625) scale(3.605)"><rect width="6" height="6"/></g>
<g transform="translate(548.625,800.625) scale(3.605)"><rect width="6" height="6"/></g>
<g transform="translate(569.625,800.625) scale(3.605)"><rect width="6" height="6"/></g>
<g transform="translate(590.625,800.625) scale(3.605)"><rect width="6" height="6"/></g>
<g transform="translate(653.625,800.625) scale(3.605)"><rect width="6" height="6"/></g>
<g transform="translate(695.625,800.625) scale(3.605)"><rect width="6" height="6"/></g>
<g transform="translate(716.625,800.625) scale(3.605)"><rect width="6" height="6"/></g>
<g transform="translate(779.625,800.625) scale(3.605)"><rect width="6" height="6"/></g>
<g transform="translate(863.625,800.625) scale(3.605)"><rect width="6" height="6"/></g>
<g transform="translate(884.625,800.625) scale(3.605)"><rect width="6" height="6"/></g>
<g transform="translate(905.625,800.625) scale(3.605)"><rect width="6" height="6"/></g>
<g transform="translate(947.625,800.625) scale(3.605)"><rect width="6" height="6"/></g>
<g transform="translate(380.625,821.625) scale(3.605)"><rect width="6" height="6"/></g>
<g transform="translate(401.625,821.625) scale(3.605)"><rect width="6" height="6"/></g>
<g transform="translate(422.625,821.625) scale(3.605)"><rect width="6" height="6"/></g>
<g transform="translate(548.625,821.625) scale(3.605)"><rect width="6" height="6"/></g>
<g transform="translate(569.625,821.625) scale(3.605)"><rect width="6" height="6"/></g>
<g transform="translate(632.625,821.625) scale(3.605)"><rect width="6" height="6"/></g>
<g transform="translate(653.625,821.625) scale(3.605)"><rect width="6" height="6"/></g>
<g transform="translate(674.625,821.625) scale(3.605)"><rect width="6" height="6"/></g>
<g transform="translate(716.625,821.625) scale(3.605)"><rect width="6" height="6"/></g>
<g transform="translate(758.625,821.625) scale(3.605)"><rect width="6" height="6"/></g>
<g transform="translate(779.625,821.625) scale(3.605)"><rect width="6" height="6"/></g>
<g transform="translate(821.625,821.625) scale(3.605)"><rect width="6" height="6"/></g>
<g transform="translate(863.625,821.625) scale(3.605)"><rect width="6" height="6"/></g>
<g transform="translate(905.625,821.625) scale(3.605)"><rect width="6" height="6"/></g>
<g transform="translate(359.625,842.625) scale(3.605)"><rect width="6" height="6"/></g>
<g transform="translate(380.625,842.625) scale(3.605)"><rect width="6" height="6"/></g>
<g transform="translate(401.625,842.625) scale(3.605)"><rect width="6" height="6"/></g>
<g transform="translate(422.625,842.625) scale(3.605)"><rect width="6" height="6"/></g>
<g transform="translate(464.625,842.625) scale(3.605)"><rect width="6" height="6"/></g>
<g transform="translate(485.625,842.625) scale(3.605)"><rect width="6" height="6"/></g>
<g transform="translate(506.625,842.625) scale(3.605)"><rect width="6" height="6"/></g>
<g transform="translate(548.625,842.625) scale(3.605)"><rect width="6" height="6"/></g>
<g transform="translate(716.625,842.625) scale(3.605)"><rect width="6" height="6"/></g>
<g transform="translate(737.625,842.625) scale(3.605)"><rect width="6" height="6"/></g>
<g transform="translate(758.625,842.625) scale(3.605)"><rect width="6" height="6"/></g>
<g transform="translate(779.625,842.625) scale(3.605)"><rect width="6" height="6"/></g>
<g transform="translate(863.625,842.625) scale(3.605)"><rect width="6" height="6"/></g>
<g transform="translate(884.625,842.625) scale(3.605)"><rect width="6" height="6"/></g>
<g transform="translate(947.625,842.625) scale(3.605)"><rect width="6" height="6"/></g>
<g transform="translate(275.625,863.625) scale(3.605)"><rect width="6" height="6"/></g>
<g transform="translate(317.625,863.625) scale(3.605)"><rect width="6" height="6"/></g>
<g transform="translate(422.625,863.625) scale(3.605)"><rect width="6" height="6"/></g>
<g transform="translate(443.625,863.625) scale(3.605)"><rect width="6" height="6"/></g>
<g transform="translate(569.625,863.625) scale(3.605)"><rect width="6" height="6"/></g>
<g transform="translate(632.625,863.625) scale(3.605)"><rect width="6" height="6"/></g>
<g transform="translate(653.625,863.625) scale(3.605)"><rect width="6" height="6"/></g>
<g transform="translate(674.625,863.625) scale(3.605)"><rect width="6" height="6"/></g>
<g transform="translate(779.625,863.625) scale(3.605)"><rect width="6" height="6"/></g>
<g transform="translate(800.625,863.625) scale(3.605)"><rect width="6" height="6"/></g>
<g transform="translate(821.625,863.625) scale(3.605)"><rect width="6" height="6"/></g>
<g transform="translate(842.625,863.625) scale(3.605)"><rect width="6" height="6"/></g>
<g transform="translate(863.625,863.625) scale(3.605)"><rect width="6" height="6"/></g>
<g transform="translate(884.625,863.625) scale(3.605)"><rect width="6" height="6"/></g>
<g transform="translate(905.625,863.625) scale(3.605)"><rect width="6" height="6"/></g>
<g transform="translate(947.625,863.625) scale(3.605)"><rect width="6" height="6"/></g>
<g transform="translate(275.625,884.625) scale(3.605)"><rect width="6" height="6"/></g>
<g transform="translate(296.625,884.625) scale(3.605)"><rect width="6" height="6"/></g>
<g transform="translate(317.625,884.625) scale(3.605)"><rect width="6" height="6"/></g>
<g transform="translate(338.625,884.625) scale(3.605)"><rect width="6" height="6"/></g>
<g transform="translate(401.625,884.625) scale(3.605)"><rect width="6" height="6"/></g>
<g transform="translate(422.625,884.625) scale(3.605)"><rect width="6" height="6"/></g>
<g transform="translate(443.625,884.625) scale(3.605)"><rect width="6" height="6"/></g>
<g transform="translate(464.625,884.625) scale(3.605)"><rect width="6" height="6"/></g>
<g transform="translate(485.625,884.625) scale(3.605)"><rect width="6" height="6"/></g>
<g transform="translate(506.625,884.625) scale(3.605)"><rect width="6" height="6"/></g>
<g transform="translate(611.625,884.625) scale(3.605)"><rect width="6" height="6"/></g>
<g transform="translate(632.625,884.625) scale(3.605)"><rect width="6" height="6"/></g>
<g transform="translate(716.625,884.625) scale(3.605)"><rect width="6" height="6"/></g>
<g transform="translate(737.625,884.625) scale(3.605)"><rect width="6" height="6"/></g>
<g transform="translate(758.625,884.625) scale(3.605)"><rect width="6" height="6"/></g>
<g transform="translate(800.625,884.625) scale(3.605)"><rect width="6" height="6"/></g>
<g transform="translate(842.625,884.625) scale(3.605)"><rect width="6" height="6"/></g>
<g transform="translate(947.625,884.625) scale(3.605)"><rect width="6" height="6"/></g>
<g transform="translate(275.625,905.625) scale(3.605)"><rect width="6" height="6"/></g>
<g transform="translate(296.625,905.625) scale(3.605)"><rect width="6" height="6"/></g>
<g transform="translate(317.625,905.625) scale(3.605)"><rect width="6" height="6"/></g>
<g transform="translate(338.625,905.625) scale(3.605)"><rect width="6" height="6"/></g>
<g transform="translate(380.625,905.625) scale(3.605)"><rect width="6" height="6"/></g>
<g transform="translate(422.625,905.625) scale(3.605)"><rect width="6" height="6"/></g>
<g transform="translate(464.625,905.625) scale(3.605)"><rect width="6" height="6"/></g>
<g transform="translate(485.625,905.625) scale(3.605)"><rect width="6" height="6"/></g>
<g transform="translate(506.625,905.625) scale(3.605)"><rect width="6" height="6"/></g>
<g transform="translate(548.625,905.625) scale(3.605)"><rect width="6" height="6"/></g>
<g transform="translate(632.625,905.625) scale(3.605)"><rect width="6" height="6"/></g>
<g transform="translate(653.625,905.625) scale(3.605)"><rect width="6" height="6"/></g>
<g transform="translate(674.625,905.625) scale(3.605)"><rect width="6" height="6"/></g>
<g transform="translate(695.625,905.625) scale(3.605)"><rect width="6" height="6"/></g>
<g transform="translate(737.625,905.625) scale(3.605)"><rect width="6" height="6"/></g>
<g transform="translate(758.625,905.625) scale(3.605)"><rect width="6" height="6"/></g>
<g transform="translate(779.625,905.625) scale(3.605)"><rect width="6" height="6"/></g>
<g transform="translate(800.625,905.625) scale(3.605)"><rect width="6" height="6"/></g>
<g transform="translate(821.625,905.625) scale(3.605)"><rect width="6" height="6"/></g>
<g transform="translate(842.625,905.625) scale(3.605)"><rect width="6" height="6"/></g>
<g transform="translate(863.625,905.625) scale(3.605)"><rect width="6" height="6"/></g>
<g transform="translate(905.625,905.625) scale(3.605)"><rect width="6" height="6"/></g>
<g transform="translate(926.625,905.625) scale(3.605)"><rect width="6" height="6"/></g>
<g transform="translate(296.625,926.625) scale(3.605)"><rect width="6" height="6"/></g>
<g transform="translate(338.625,926.625) scale(3.605)"><rect width="6" height="6"/></g>
<g transform="translate(380.625,926.625) scale(3.605)"><rect width="6" height="6"/></g>
<g transform="translate(401.625,926.625) scale(3.605)"><rect width="6" height="6"/></g>
<g transform="translate(422.625,926.625) scale(3.605)"><rect width="6" height="6"/></g>
<g transform="translate(443.625,926.625) scale(3.605)"><rect width="6" height="6"/></g>
<g transform="translate(485.625,926.625) scale(3.605)"><rect width="6" height="6"/></g>
<g transform="translate(506.625,926.625) scale(3.605)"><rect width="6" height="6"/></g>
<g transform="translate(527.625,926.625) scale(3.605)"><rect width="6" height="6"/></g>
<g transform="translate(569.625,926.625) scale(3.605)"><rect width="6" height="6"/></g>
<g transform="translate(590.625,926.625) scale(3.605)"><rect width="6" height="6"/></g>
<g transform="translate(632.625,926.625) scale(3.605)"><rect width="6" height="6"/></g>
<g transform="translate(674.625,926.625) scale(3.605)"><rect width="6" height="6"/></g>
<g transform="translate(758.625,926.625) scale(3.605)"><rect width="6" height="6"/></g>
<g transform="translate(779.625,926.625) scale(3.605)"><rect width="6" height="6"/></g>
<g transform="translate(821.625,926.625) scale(3.605)"><rect width="6" height="6"/></g>
<g transform="translate(863.625,926.625) scale(3.605)"><rect width="6" height="6"/></g>
<g transform="translate(884.625,926.625) scale(3.605)"><rect width="6" height="6"/></g>
<g transform="translate(926.625,926.625) scale(3.605)"><rect width="6" height="6"/></g>
<g transform="translate(359.625,947.625) scale(3.605)"><rect width="6" height="6"/></g>
<g transform="translate(401.625,947.625) scale(3.605)"><rect width="6" height="6"/></g>
<g transform="translate(422.625,947.625) scale(3.605)"><rect width="6" height="6"/></g>
<g transform="translate(464.625,947.625) scale(3.605)"><rect width="6" height="6"/></g>
<g transform="translate(485.625,947.625) scale(3.605)"><rect width="6" height="6"/></g>
<g transform="translate(506.625,947.625) scale(3.605)"><rect width="6" height="6"/></g>
<g transform="translate(527.625,947.625) scale(3.605)"><rect width="6" height="6"/></g>
<g transform="translate(548.625,947.625) scale(3.605)"><rect width="6" height="6"/></g>
<g transform="translate(569.625,947.625) scale(3.605)"><rect width="6" height="6"/></g>
<g transform="translate(590.625,947.625) scale(3.605)"><rect width="6" height="6"/></g>
<g transform="translate(611.625,947.625) scale(3.605)"><rect width="6" height="6"/></g>
<g transform="translate(653.625,947.625) scale(3.605)"><rect width="6" height="6"/></g>
<g transform="translate(716.625,947.625) scale(3.605)"><rect width="6" height="6"/></g>
<g transform="translate(758.625,947.625) scale(3.605)"><rect width="6" height="6"/></g>
<g transform="translate(800.625,947.625) scale(3.605)"><rect width="6" height="6"/></g>
<g transform="translate(842.625,947.625) scale(3.605)"><rect width="6" height="6"/></g>
<g transform="translate(863.625,947.625) scale(3.605)"><rect width="6" height="6"/></g>
<g transform="translate(905.625,947.625) scale(3.605)"><rect width="6" height="6"/></g>
<g transform="translate(107.625,107.625)"><g transform="scale(10.5)"><path d="M0,0v14h14V0H0z M12,12H2V2h10V12z"/></g></g>
<g transform="translate(821.625,107.625)"><g transform="scale(10.5)"><path d="M0,0v14h14V0H0z M12,12H2V2h10V12z"/></g></g>
<g transform="translate(107.625,821.625)"><g transform="scale(10.5)"><path d="M0,0v14h14V0H0z M12,12H2V2h10V12z"/></g></g>
<g transform="translate(149.625,149.625)"><g transform="scale(10.5)"><rect width="6" height="6"/></g></g>
<g transform="translate(863.625,149.625)"><g transform="scale(10.5)"><rect width="6" height="6"/></g></g>
<g transform="translate(149.625,863.625)"><g transform="scale(10.5)"><rect width="6" height="6"/></g></g>
</g><g transform="translate(107.625,83.680534777205) scale(0.39633584975143)"><path fill="#FFFFFF" d="M52,47.3q1.9-0.6,4.8-0.6t4.6,0.5t2.6,1.2t1.4,2q0.5,1.7,0.5,5.2l0,55.5q0,2.3-0.15,3.45t-0.95,2.65q-1.4,2.7-7.8,2.7q-7,0-8.2-3.7q-0.6-1.7-0.6-5.2l0-20.3l-26.5,0l0,20.4q0,2.3-0.15,3.45t-0.95,2.65q-1.4,2.7-7.8,2.7q-7,0-8.2-3.7q-0.6-1.7-0.6-5.2l0-55.5q0-2.3,0.15-3.45t0.95-2.65q1.4-2.7,7.8-2.7q7,0,8.3,3.7q0.5,1.7,0.5,5.2l0,20.4l26.5,0l0-20.5q0-2.3,0.15-3.45t0.95-2.65t2.7-2.1z M121.65,96.45q-3.05,2.95-6.75,2.95l-23.7,0q0,2.8,3.3,4.7t6.6,1.9q5.8,0,9.1-1.2l1.1-0.4q2.4-1.1,4-1.1q3.2,0,5.5,4.5q1.3,2.7,1.3,4.6q0,8.9-21.3,8.9q-7.4,0-13.15-2.55t-8.95-6.75q-6.3-8.1-6.3-18.1q0-12.6,8.15-20.15t20.35-7.55q13.9,0,20.4,9.8q3.4,5.2,3.4,11.35t-3.05,9.1z M103.6,90.3q3.8,0,3.8-3.2q0-2.3-1.75-3.7t-5-1.4t-6.45,2.65t-3.2,5.65l12.6,0z M165.4,72.9q0.6-5.6,7.9-5.6q3.9,0,5.8,0.6t2.65,2.1t0.9,2.65t0.15,3.45l0,35q0,2.3-0.15,3.45t-0.85,2.65q-1.4,2.6-6.85,2.6t-7.3-1.35t-2.15-3.95q-3.7,5.3-12.35,5.3t-16.05-7.9t-7.4-18.35t7.45-18.3t16.35-7.85q3.4,0,6.2,1.2t3.9,2.25t1.8,2.05z M149.8,99.65q2.6,2.65,6.3,2.65t6.15-2.7t2.45-5.95t-2.35-6.05t-6.3-2.8t-6.4,2.8t-2.45,6.1t2.6,5.95z M190.8,51.3q0-2.3,0.15-3.45t0.85-2.65q1.4-2.7,7.8-2.7q6.1,0,7.6,2.7q0.8,1.5,0.95,2.7t0.15,3.5l0,46.3q0,3.6,0.6,4.55t2.65,0.95t2.75,0.15t1.7,0.85q2,1.3,2,7.1q0,6.3-2,7.7q-2.6,1.8-12.4,0.6q-7.7-1-10-5.1q-2.8-4.9-2.8-15.6l0-47.6z M254.1,85l-6.5-0.4l0,13.8q0,2.7,0.85,3.9t3.2,1.2t3.6,0.15t2.65,0.95q2.3,1.3,2.3,6.7q0,6.3-2.8,7.7q-1.5,0.7-2.65,0.85t-3.35,0.15q-10.4,0-15.8-4.7t-5.4-15.9l0-14.8q-1.9,0.3-4.1,0.3t-3.65-1.7t-1.45-5.8t0.5-5.95t1.4-2.65q1.6-1.3,4-1.3l3.3,0.4l0-10.3q0-2.3,0.15-3.4t0.95-2.4q1.3-2.5,7.7-2.5q6.8,0,8.1,3.7q0.5,1.6,0.5,5.1l0,9.8q4.4-0.4,6.65-0.4t3.4,0.15t2.65,0.95q2.6,1.3,2.6,7.7q0,6.3-2.7,7.7q-1.5,0.7-2.65,0.85t-3.45,0.15z M297.6,67.5q10,0,16.65,7.6t6.65,18.6l0,17.6q0,2.3-0.15,3.45t-0.95,2.65q-1.3,2.6-7.7,2.6q-6.1,0-7.6-2.6q-0.8-1.5-0.95-2.7t-0.15-3.6l0-17.5q0-4.1-2.3-6.4t-5.85-2.3t-6.25,2.15t-3.1,4.85l0,19.4q0,2.3-0.15,3.45t-0.95,2.65q-1.3,2.6-7.7,2.6q-6.3,0-7.7-2.7q-0.7-1.5-0.85-2.6t-0.15-3.5l0-59.8q0-2.3,0.15-3.45t0.85-2.55q1.4-2.7,7.8-2.7q6.3,0,7.6,2.7q0.8,1.5,0.95,2.65t0.15,3.45l0,22.1q5-6.1,11.7-6.1z M358.4,106.1l-23.8,0q-5.6,0-6.7-3.4q-0.5-1.8-0.5-4.6t0.6-4.5t1.9-2.4q1.8-0.9,4.8-0.9l23.8,0q5.6,0,6.6,3.3q0.6,1.8,0.6,4.6t-0.55,4.55t-1.75,2.45q-1.8,0.9-5,0.9z M428.3,107.6q1.5,3.6,1.5,5.2q0,3.8-6.2,6.4q-3.2,1.4-5.15,1.4t-3.2-0.95t-1.85-1.95q-1-1.9-7.8-18.1l-3.1,0.2l-12.6,0l0,11.3q0,2.3-0.15,3.45t-0.95,2.65q-1.4,2.7-7.8,2.7q-7,0-8.2-3.7q-0.6-1.7-0.6-5.2l0-55.5q0-2.3,0.15-3.45t0.95-2.65q1.4-2.7,7.8-2.7l21.6,0q8.8,0,17.1,6.4q4,3.1,6.6,8.4t2.6,11.8q0,11.3-7.5,18.6q2.2,5.3,6.8,15.7z M389.9,82.1l12.8,0q2.9,0,5.8-2.2t2.9-6.6t-2.9-6.65t-6-2.25l-12.6,0l0,17.7z M435.3,55.5q0-2.3,0.15-3.45t0.95-2.65q1.4-2.7,7.8-2.7q7,0,8.3,3.7q0.5,1.7,0.5,5.2l0,55.6q0,2.4-0.15,3.5t-0.95,2.6q-1.4,2.7-7.8,2.7q-7,0-8.2-3.8q-0.6-1.6-0.6-5.1l0-55.6z  M487.4,109.7q-2.6-3.2-2.6-5.75t4.3-6.75q2.5-2.4,5.3-2.4t7.8,5q1.4,1.7,4,3.25t4.8,1.55q9.3,0,9.3-7.6q0-2.3-2.55-3.85t-6.35-2.25t-8.2-2.25t-8.2-3.65t-6.35-6.65t-2.55-10.95q0-8.8,6.55-15.35t17.85-6.55q6,0,10.95,1.55t6.85,3.15l2.5,1.9q3.1,2.9,3.1,4.9t-2.4,5.5q-3.4,5-7,5q-2.1,0-5.2-2q-0.3-0.2-1.15-1t-1.55-1.3q-2.1-1.3-5.35-1.3t-5.4,1.55t-2.15,4.3t2.55,4.45t6.35,2.3t8.3,1.85t8.3,3.05t6.35,6.25t2.55,10.95t-2.6,11.45t-6.8,7.65q-8.1,5.3-17.3,5.3q-4.7,0-8.9-1.15t-6.8-2.85q-5.3-3.2-7.4-6.2z M592.35,96.45q-3.05,2.95-6.75,2.95l-23.7,0q0,2.8,3.3,4.7t6.6,1.9q5.8,0,9.1-1.2l1.1-0.4q2.4-1.1,4-1.1q3.2,0,5.5,4.5q1.3,2.7,1.3,4.6q0,8.9-21.3,8.9q-7.4,0-13.15-2.55t-8.95-6.75q-6.3-8.1-6.3-18.1q0-12.6,8.15-20.15t20.35-7.55q13.9,0,20.4,9.8q3.4,5.2,3.4,11.35t-3.05,9.1z M574.3,90.3q3.8,0,3.8-3.2q0-2.3-1.75-3.7t-5-1.4t-6.45,2.65t-3.2,5.65l12.6,0z M619.1,74.3q4.7-7.1,11.3-7.1q10.2,0,15.2,8.7q1.1-1.5,2.65-3.15t4.95-3.6t7-1.95q8,0,13.4,6.15t5.4,20.35l0,17.5q0,2.3-0.15,3.45t-0.95,2.65q-1.3,2.7-7.7,2.7q-6.3,0-7.7-2.8q-0.7-1.5-0.85-2.65t-0.15-3.45l0-17.5q0-8.7-6.2-8.7q-3.5,0-4.75,2.3t-1.25,6.5l0,17.5q0,2.4-0.15,3.5t-0.95,2.6q-1.4,2.7-7.8,2.7q-6.3,0-7.7-2.8q-0.7-1.5-0.85-2.65t-0.15-3.45l0-17.5q0-8.7-6.2-8.7q-6,0-6,8.7l0,17.7q0,2.3-0.15,3.45t-0.95,2.65q-1.5,2.6-7.8,2.6t-7.7-2.7q-0.7-1.5-0.85-2.6t-0.15-3.5l0-35.2q0-2.3,0.15-3.45t0.95-2.55q1.5-2.7,7.1-2.7t7.3,1.8t1.7,5.2z M721.2,72.9q0.6-5.6,7.9-5.6q3.9,0,5.8,0.6t2.65,2.1t0.9,2.65t0.15,3.45l0,35q0,2.3-0.15,3.45t-0.85,2.65q-1.4,2.6-6.85,2.6t-7.3-1.35t-2.15-3.95q-3.7,5.3-12.35,5.3t-16.05-7.9t-7.4-18.35t7.45-18.3t16.35-7.85q3.4,0,6.2,1.2t3.9,2.25t1.8,2.05z M705.6,99.65q2.6,2.65,6.3,2.65t6.15-2.7t2.45-5.95t-2.35-6.05t-6.3-2.8t-6.4,2.8t-2.45,6.1t2.6,5.95z M775.9,67.3q10,0,16.65,7.65t6.65,18.65l0,17.6q0,2.3-0.15,3.45t-0.85,2.55q-1.4,2.7-7.8,2.7q-7.1,0-8.2-3.7q-0.6-1.7-0.6-5.1l0-17.6q0-4.1-2.35-6.4t-6.3-2.3t-6.4,2.4t-2.45,6.3l0,17.7q0,2.3-0.15,3.45t-0.95,2.55q-1.3,2.7-7.7,2.7q-6.3,0-7.7-2.7q-0.7-1.5-0.85-2.65t-0.15-3.45l0-35.4q0-2.2,0.15-3.35t0.95-2.55q1.4-2.5,7.7-2.5q6.1,0,7.5,2.3q1,1.7,1,4.1q0.4-0.7,1.8-2t2.7-2.1q3.4-2.3,7.5-2.3z M837.8,85l-6.5-0.4l0,13.8q0,2.7,0.85,3.9t3.2,1.2t3.6,0.15t2.65,0.95q2.3,1.3,2.3,6.7q0,6.3-2.8,7.7q-1.5,0.7-2.65,0.85t-3.35,0.15q-10.4,0-15.8-4.7t-5.4-15.9l0-14.8q-1.9,0.3-4.1,0.3t-3.65-1.7t-1.45-5.8t0.5-5.95t1.4-2.65q1.6-1.3,4-1.3l3.3,0.4l0-10.3q0-2.3,0.15-3.4t0.95-2.4q1.3-2.5,7.7-2.5q6.8,0,8.1,3.7q0.5,1.6,0.5,5.1l0,9.8q4.4-0.4,6.65-0.4t3.4,0.15t2.65,0.95q2.6,1.3,2.6,7.7q0,6.3-2.7,7.7q-1.5,0.7-2.65,0.85t-3.45,0.15z M852.1,76.1q0-2.3,0.15-3.45t0.85-2.65q1.4-2.6,7.8-2.6q4.8,0,6.8,1.7q1.7,1.4,1.8,4.3q0.1,1,0.1,2.9l0,35q0,2.3-0.15,3.45t-0.95,2.65q-1.3,2.6-7.7,2.6q-6.3,0-7.7-2.7q-0.7-1.5-0.85-2.6t-0.15-3.5l0-35.1z M865.9,59.6q-1.9,0.6-5.05,0.6t-5.05-0.6t-2.65-2.1t-0.9-2.65t-0.15-3.45t0.15-3.45t0.85-2.55q1.4-2.7,7.8-2.7q6.3,0,7.6,2.7q0.8,1.5,0.95,2.65t0.15,3.45t-0.15,3.45t-0.9,2.6t-2.65,2.05z M896.9,100.25q2.8,2.35,5.95,2.35t5.9-1.85t4.45-1.85q3,0,7.3,5.3q2.3,2.9,2.3,5.2q0,3.8-5.5,7.1q-5.7,4-14,4q-9.3,0-17.9-6.7q-4.1-3.2-6.7-8.55t-2.6-11.8t2.6-11.7t6.7-8.45q8.3-6.6,17.7-6.6q3.8,0,7.4,1.05t5.3,2.05l1.6,1q1.8,1.2,2.8,1.9q2.6,2,2.6,4.55t-2.1,5.75q-3.6,5.5-6.9,5.5q-1.9,0-5.4-2.2q-1.8-1.7-5.15-1.7t-6.25,2.4t-2.9,6.65t2.8,6.6z  M954.6,55.5q0-2.3,0.15-3.45t0.95-2.65q1.4-2.7,7.8-2.7q7,0,8.3,3.7q0.5,1.7,0.5,5.2l0,55.6q0,2.4-0.15,3.5t-0.95,2.6q-1.4,2.7-7.8,2.7q-7,0-8.2-3.8q-0.6-1.6-0.6-5.1l0-55.6z M1009.6,67.3q10,0,16.65,7.65t6.65,18.65l0,17.6q0,2.3-0.15,3.45t-0.85,2.55q-1.4,2.7-7.8,2.7q-7.1,0-8.2-3.7q-0.6-1.7-0.6-5.1l0-17.6q0-4.1-2.35-6.4t-6.3-2.3t-6.4,2.4t-2.45,6.3l0,17.7q0,2.3-0.15,3.45t-0.95,2.55q-1.3,2.7-7.7,2.7q-6.3,0-7.7-2.7q-0.7-1.5-0.85-2.65t-0.15-3.45l0-35.4q0-2.2,0.15-3.35t0.95-2.55q1.4-2.5,7.7-2.5q6.1,0,7.5,2.3q1,1.7,1,4.1q0.4-0.7,1.8-2t2.7-2.1q3.4-2.3,7.5-2.3z M1071.5,85l-6.5-0.4l0,13.8q0,2.7,0.85,3.9t3.2,1.2t3.6,0.15t2.65,0.95q2.3,1.3,2.3,6.7q0,6.3-2.8,7.7q-1.5,0.7-2.65,0.85t-3.35,0.15q-10.4,0-15.8-4.7t-5.4-15.9l0-14.8q-1.9,0.3-4.1,0.3t-3.65-1.7t-1.45-5.8t0.5-5.95t1.4-2.65q1.6-1.3,4-1.3l3.3,0.4l0-10.3q0-2.3,0.15-3.4t0.95-2.4q1.3-2.5,7.7-2.5q6.8,0,8.1,3.7q0.5,1.6,0.5,5.1l0,9.8q4.4-0.4,6.65-0.4t3.4,0.15t2.65,0.95q2.6,1.3,2.6,7.7q0,6.3-2.7,7.7q-1.5,0.7-2.65,0.85t-3.45,0.15z M1133.55,96.45q-3.05,2.95-6.75,2.95l-23.7,0q0,2.8,3.3,4.7t6.6,1.9q5.8,0,9.1-1.2l1.1-0.4q2.4-1.1,4-1.1q3.2,0,5.5,4.5q1.3,2.7,1.3,4.6q0,8.9-21.3,8.9q-7.4,0-13.15-2.55t-8.95-6.75q-6.3-8.1-6.3-18.1q0-12.6,8.15-20.15t20.35-7.55q13.9,0,20.4,9.8q3.4,5.2,3.4,11.35t-3.05,9.1z M1115.5,90.3q3.8,0,3.8-3.2q0-2.3-1.75-3.7t-5-1.4t-6.45,2.65t-3.2,5.65l12.6,0z M1182.05,69.95q1.25,1.45,1.25,4.65t-1.9,7t-5.5,3.8q-1.8,0-3.45-0.8t-4.35-0.8t-5.05,1.9t-2.35,4.6l0,21q0,2.3-0.15,3.45t-0.95,2.65q-1.5,2.6-7.8,2.6q-4.8,0-6.9-1.7q-1.6-1.4-1.8-4.3l0-2.9l0-35.1q0-2.3,0.15-3.45t0.85-2.55q1.4-2.7,7.8-2.7q6,0,7.5,2.3q1.1,1.6,1.1,3.3q0.5-0.7,1.45-1.7t4.05-2.7t5.45-1.7t3.95,0.25t3.5,0.85t3.15,2.05z M1195.7,73.9q8.4-7.8,19.2-7.8t19.1,7.75t8.3,19.75q0,8.3-4.3,14.75t-10.45,9.5t-12.75,3.05t-12.8-3.25t-10.45-9.6t-4.25-14.35q0-12,8.4-19.8z M1214.7,103.3q3.3,0,6.6-2.5t3.3-7.4t-3.1-7.3t-6.7-2.4t-6.7,2.5t-3.1,7.35t3.2,7.3t6.5,2.45z M1248.8,134.3l0-58.4q0-2.3,0.15-3.4t0.85-2.5q1.4-2.7,6.7-2.7t7.15,1.35t2.15,3.95q3.8-5.2,11.95-5.2t15.45,7.7t7.3,17.9t-7.25,17.9t-15.45,7.7t-11.9-4.6l0,20.2q0,2.3-0.15,3.4t-0.9,2.55t-2.55,2.05t-4.9,0.6t-4.95-0.6t-2.6-2t-0.9-2.5t-0.15-3.4z M1266.3,93.1q0,3.2,2.35,5.85t6,2.65t6.2-2.6t2.55-5.9t-2.4-5.95t-6.25-2.65t-6.15,2.7t-2.3,5.9z M1354.75,96.45q-3.05,2.95-6.75,2.95l-23.7,0q0,2.8,3.3,4.7t6.6,1.9q5.8,0,9.1-1.2l1.1-0.4q2.4-1.1,4-1.1q3.2,0,5.5,4.5q1.3,2.7,1.3,4.6q0,8.9-21.3,8.9q-7.4,0-13.15-2.55t-8.95-6.75q-6.3-8.1-6.3-18.1q0-12.6,8.15-20.15t20.35-7.55q13.9,0,20.4,9.8q3.4,5.2,3.4,11.35t-3.05,9.1z M1336.7,90.3q3.8,0,3.8-3.2q0-2.3-1.75-3.7t-5-1.4t-6.45,2.65t-3.2,5.65l12.6,0z M1403.25,69.95q1.25,1.45,1.25,4.65t-1.9,7t-5.5,3.8q-1.8,0-3.45-0.8t-4.35-0.8t-5.05,1.9t-2.35,4.6l0,21q0,2.3-0.15,3.45t-0.95,2.65q-1.5,2.6-7.8,2.6q-4.8,0-6.9-1.7q-1.6-1.4-1.8-4.3l0-2.9l0-35.1q0-2.3,0.15-3.45t0.85-2.55q1.4-2.7,7.8-2.7q6,0,7.5,2.3q1.1,1.6,1.1,3.3q0.5-0.7,1.45-1.7t4.05-2.7t5.45-1.7t3.95,0.25t3.5,0.85t3.15,2.05z M1444.2,72.9q0.6-5.6,7.9-5.6q3.9,0,5.8,0.6t2.65,2.1t0.9,2.65t0.15,3.45l0,35q0,2.3-0.15,3.45t-0.85,2.65q-1.4,2.6-6.85,2.6t-7.3-1.35t-2.15-3.95q-3.7,5.3-12.35,5.3t-16.05-7.9t-7.4-18.35t7.45-18.3t16.35-7.85q3.4,0,6.2,1.2t3.9,2.25t1.8,2.05z M1428.6,99.65q2.6,2.65,6.3,2.65t6.15-2.7t2.45-5.95t-2.35-6.05t-6.3-2.8t-6.4,2.8t-2.45,6.1t2.6,5.95z M1498.5,67.4q8.9,0,16.35,7.9t7.45,18.35t-7.4,18.3t-15.9,7.85t-12.1-4.8q-0.8,4.9-8.6,4.9q-6.3,0-7.7-2.7q-0.7-1.5-0.85-2.65t-0.15-3.45l0-59.7q0-2.3,0.15-3.45t0.85-2.55q1.4-2.7,7.8-2.7q6.3,0,7.6,2.7q0.8,1.5,0.95,2.65t0.15,3.45l0,20.8q4-4.9,11.4-4.9z M1495.9,102.4q3.7,0,6.3-2.7t2.6-6t-2.4-6.05t-6.4-2.75t-6.35,2.8t-2.35,6.05t2.45,5.95t6.15,2.7z M1528.8,76.1q0-2.3,0.15-3.45t0.85-2.65q1.4-2.6,7.8-2.6q4.8,0,6.8,1.7q1.7,1.4,1.8,4.3q0.1,1,0.1,2.9l0,35q0,2.3-0.15,3.45t-0.95,2.65q-1.3,2.6-7.7,2.6q-6.3,0-7.7-2.7q-0.7-1.5-0.85-2.6t-0.15-3.5l0-35.1z M1542.6,59.6q-1.9,0.6-5.05,0.6t-5.05-0.6t-2.65-2.1t-0.9-2.65t-0.15-3.45t0.15-3.45t0.85-2.55q1.4-2.7,7.8-2.7q6.3,0,7.6,2.7q0.8,1.5,0.95,2.65t0.15,3.45t-0.15,3.45t-0.9,2.6t-2.65,2.05z M1554.3,51.3q0-2.3,0.15-3.45t0.85-2.65q1.4-2.7,7.8-2.7q6.1,0,7.6,2.7q0.8,1.5,0.95,2.7t0.15,3.5l0,46.3q0,3.6,0.6,4.55t2.65,0.95t2.75,0.15t1.7,0.85q2,1.3,2,7.1q0,6.3-2,7.7q-2.6,1.8-12.4,0.6q-7.7-1-10-5.1q-2.8-4.9-2.8-15.6l0-47.6z M1587,76.1q0-2.3,0.15-3.45t0.85-2.65q1.4-2.6,7.8-2.6q4.8,0,6.8,1.7q1.7,1.4,1.8,4.3q0.1,1,0.1,2.9l0,35q0,2.3-0.15,3.45t-0.95,2.65q-1.3,2.6-7.7,2.6q-6.3,0-7.7-2.7q-0.7-1.5-0.85-2.6t-0.15-3.5l0-35.1z M1600.8,59.6q-1.9,0.6-5.05,0.6t-5.05-0.6t-2.65-2.1t-0.9-2.65t-0.15-3.45t0.15-3.45t0.85-2.55q1.4-2.7,7.8-2.7q6.3,0,7.6,2.7q0.8,1.5,0.95,2.65t0.15,3.45t-0.15,3.45t-0.9,2.6t-2.65,2.05z M1643.1,85l-6.5-0.4l0,13.8q0,2.7,0.85,3.9t3.2,1.2t3.6,0.15t2.65,0.95q2.3,1.3,2.3,6.7q0,6.3-2.8,7.7q-1.5,0.7-2.65,0.85t-3.35,0.15q-10.4,0-15.8-4.7t-5.4-15.9l0-14.8q-1.9,0.3-4.1,0.3t-3.65-1.7t-1.45-5.8t0.5-5.95t1.4-2.65q1.6-1.3,4-1.3l3.3,0.4l0-10.3q0-2.3,0.15-3.4t0.95-2.4q1.3-2.5,7.7-2.5q6.8,0,8.1,3.7q0.5,1.6,0.5,5.1l0,9.8q4.4-0.4,6.65-0.4t3.4,0.15t2.65,0.95q2.6,1.3,2.6,7.7q0,6.3-2.7,7.7q-1.5,0.7-2.65,0.85t-3.45,0.15z M1706.4,67.9q5.9,2.6,5.9,6.3q0,1.8-0.8,3.4t-0.8,1.7l-26.2,58.6q-0.8,1.9-1.35,2.9t-1.75,1.9t-3,0.9t-5.3-1.5q-5.9-2.6-5.9-6.2q0-2.4,9.6-22.9l-19.9-33.5q-2-3.3-2-4.9q0-3.2,5.4-6.4q3.4-2,5.3-2t3.1,0.8t1.75,1.65t5.5,9.3t9.45,15.75q0.5-1.6,5.4-12.35t5.25-11.45t1.15-1.7q1.3-1.7,3.65-1.7t5.55,1.4z  M1743.1,55.5q0-2.3,0.15-3.45t0.95-2.65q1.4-2.7,7.8-2.7q7,0,8.3,3.7q0.5,1.7,0.5,5.2l0,55.6q0,2.4-0.15,3.5t-0.95,2.6q-1.4,2.7-7.8,2.7q-7,0-8.2-3.8q-0.6-1.6-0.6-5.1l0-55.6z M1798.1,67.3q10,0,16.65,7.65t6.65,18.65l0,17.6q0,2.3-0.15,3.45t-0.85,2.55q-1.4,2.7-7.8,2.7q-7.1,0-8.2-3.7q-0.6-1.7-0.6-5.1l0-17.6q0-4.1-2.35-6.4t-6.3-2.3t-6.4,2.4t-2.45,6.3l0,17.7q0,2.3-0.15,3.45t-0.95,2.55q-1.3,2.7-7.7,2.7q-6.3,0-7.7-2.7q-0.7-1.5-0.85-2.65t-0.15-3.45l0-35.4q0-2.2,0.15-3.35t0.95-2.55q1.4-2.5,7.7-2.5q6.1,0,7.5,2.3q1,1.7,1,4.1q0.4-0.7,1.8-2t2.7-2.1q3.4-2.3,7.5-2.3z M1829.4,76.1q0-2.3,0.15-3.45t0.85-2.65q1.4-2.6,7.8-2.6q4.8,0,6.8,1.7q1.7,1.4,1.8,4.3q0.1,1,0.1,2.9l0,35q0,2.3-0.15,3.45t-0.95,2.65q-1.3,2.6-7.7,2.6q-6.3,0-7.7-2.7q-0.7-1.5-0.85-2.6t-0.15-3.5l0-35.1z M1843.2,59.6q-1.9,0.6-5.05,0.6t-5.05-0.6t-2.65-2.1t-0.9-2.65t-0.15-3.45t0.15-3.45t0.85-2.55q1.4-2.7,7.8-2.7q6.3,0,7.6,2.7q0.8,1.5,0.95,2.65t0.15,3.45t-0.15,3.45t-0.9,2.6t-2.65,2.05z M1885.5,85l-6.5-0.4l0,13.8q0,2.7,0.85,3.9t3.2,1.2t3.6,0.15t2.65,0.95q2.3,1.3,2.3,6.7q0,6.3-2.8,7.7q-1.5,0.7-2.65,0.85t-3.35,0.15q-10.4,0-15.8-4.7t-5.4-15.9l0-14.8q-1.9,0.3-4.1,0.3t-3.65-1.7t-1.45-5.8t0.5-5.95t1.4-2.65q1.6-1.3,4-1.3l3.3,0.4l0-10.3q0-2.3,0.15-3.4t0.95-2.4q1.3-2.5,7.7-2.5q6.8,0,8.1,3.7q0.5,1.6,0.5,5.1l0,9.8q4.4-0.4,6.65-0.4t3.4,0.15t2.65,0.95q2.6,1.3,2.6,7.7q0,6.3-2.7,7.7q-1.5,0.7-2.65,0.85t-3.45,0.15z M1899.8,76.1q0-2.3,0.15-3.45t0.85-2.65q1.4-2.6,7.8-2.6q4.8,0,6.8,1.7q1.7,1.4,1.8,4.3q0.1,1,0.1,2.9l0,35q0,2.3-0.15,3.45t-0.95,2.65q-1.3,2.6-7.7,2.6q-6.3,0-7.7-2.7q-0.7-1.5-0.85-2.6t-0.15-3.5l0-35.1z M1913.6,59.6q-1.9,0.6-5.05,0.6t-5.05-0.6t-2.65-2.1t-0.9-2.65t-0.15-3.45t0.15-3.45t0.85-2.55q1.4-2.7,7.8-2.7q6.3,0,7.6,2.7q0.8,1.5,0.95,2.65t0.15,3.45t-0.15,3.45t-0.9,2.6t-2.65,2.05z M1959.5,72.9q0.6-5.6,7.9-5.6q3.9,0,5.8,0.6t2.65,2.1t0.9,2.65t0.15,3.45l0,35q0,2.3-0.15,3.45t-0.85,2.65q-1.4,2.6-6.85,2.6t-7.3-1.35t-2.15-3.95q-3.7,5.3-12.35,5.3t-16.05-7.9t-7.4-18.35t7.45-18.3t16.35-7.85q3.4,0,6.2,1.2t3.9,2.25t1.8,2.05z M1943.9,99.65q2.6,2.65,6.3,2.65t6.15-2.7t2.45-5.95t-2.35-6.05t-6.3-2.8t-6.4,2.8t-2.45,6.1t2.6,5.95z M2015.5,85l-6.5-0.4l0,13.8q0,2.7,0.85,3.9t3.2,1.2t3.6,0.15t2.65,0.95q2.3,1.3,2.3,6.7q0,6.3-2.8,7.7q-1.5,0.7-2.65,0.85t-3.35,0.15q-10.4,0-15.8-4.7t-5.4-15.9l0-14.8q-1.9,0.3-4.1,0.3t-3.65-1.7t-1.45-5.8t0.5-5.95t1.4-2.65q1.6-1.3,4-1.3l3.3,0.4l0-10.3q0-2.3,0.15-3.4t0.95-2.4q1.3-2.5,7.7-2.5q6.8,0,8.1,3.7q0.5,1.6,0.5,5.1l0,9.8q4.4-0.4,6.65-0.4t3.4,0.15t2.65,0.95q2.6,1.3,2.6,7.7q0,6.3-2.7,7.7q-1.5,0.7-2.65,0.85t-3.45,0.15z M2029.8,76.1q0-2.3,0.15-3.45t0.85-2.65q1.4-2.6,7.8-2.6q4.8,0,6.8,1.7q1.7,1.4,1.8,4.3q0.1,1,0.1,2.9l0,35q0,2.3-0.15,3.45t-0.95,2.65q-1.3,2.6-7.7,2.6q-6.3,0-7.7-2.7q-0.7-1.5-0.85-2.6t-0.15-3.5l0-35.1z M2043.6,59.6q-1.9,0.6-5.05,0.6t-5.05-0.6t-2.65-2.1t-0.9-2.65t-0.15-3.45t0.15-3.45t0.85-2.55q1.4-2.7,7.8-2.7q6.3,0,7.6,2.7q0.8,1.5,0.95,2.65t0.15,3.45t-0.15,3.45t-0.9,2.6t-2.65,2.05z M2108.4,68.5q5.2,3.1,5.2,6.6q0,2-2,5.5l-20.7,35.5q-1,1.7-3.2,3.05t-4.35,1.35t-4.1-1.05t-2.75-2.15l-0.9-1.1l-20.8-35.6q-2-3.3-2-5.4q0-3.6,5.2-6.7q3.8-2.2,6-2.2t3.45,1.35t2.65,4.05l13.1,25.2l13.1-25.2q1.1-1.9,1.65-2.75t1.75-1.7t3.2-0.85t5.5,2.1z M2166.85,96.45q-3.05,2.95-6.75,2.95l-23.7,0q0,2.8,3.3,4.7t6.6,1.9q5.8,0,9.1-1.2l1.1-0.4q2.4-1.1,4-1.1q3.2,0,5.5,4.5q1.3,2.7,1.3,4.6q0,8.9-21.3,8.9q-7.4,0-13.15-2.55t-8.95-6.75q-6.3-8.1-6.3-18.1q0-12.6,8.15-20.15t20.35-7.55q13.9,0,20.4,9.8q3.4,5.2,3.4,11.35t-3.05,9.1z M2148.8,90.3q3.8,0,3.8-3.2q0-2.3-1.75-3.7t-5-1.4t-6.45,2.65t-3.2,5.65l12.6,0z"/></g></svg>
