<?xml version="1.0" encoding="utf-8"?>
<svg xmlns="http://www.w3.org/2000/svg" xmlns:xlink="http://www.w3.org/1999/xlink" xml:space="preserve" width="1125" height="1312.5" viewBox="0 0 1125 1312.5"><rect width="1041.5625" height="1041.5625" fill="#ffffff" x="46.875" y="234.375"/><g transform="scale(46.875)" fill="#000000"><path d="M1.3,28L22.6,28c0.7,0,1.3-0.6,1.3-1.3L24,1.4c0-0.7-0.6-1.3-1.3-1.3L1.4,0C0.7,0,0.1,0.6,0,1.3L0,26.6 C-0.1,27.4,0.5,28,1.3,28z M1,6c0-0.6,0.5-1,1-1L22,5c0.6,0,1,0.5,1,1L23,26c0,0.6-0.5,1-1,1L2,27c-0.6,0-1-0.5-1-1L1,6z"/></g><g transform="translate(0,187.5)" fill="#000000">
<g transform="translate(272.5,112.5) scale(3.4333333333333)"><rect width="6" height="6"/></g>
<g transform="translate(312.5,112.5) scale(3.4333333333333)"><rect width="6" height="6"/></g>
<g transform="translate(352.5,112.5) scale(3.4333333333333)"><rect width="6" height="6"/></g>
<g transform="translate(412.5,112.5) scale(3.4333333333333)"><rect width="6" height="6"/></g>
<g transform="translate(452.5,112.5) scale(3.4333333333333)"><rect width="6" height="6"/></g>
<g transform="translate(472.5,112.5) scale(3.4333333333333)"><rect width="6" height="6"/></g>
<g transform="translate(532.5,112.5) scale(3.4333333333333)"><rect width="6" height="6"/></g>
<g transform="translate(612.5,112.5) scale(3.4333333333333)"><rect width="6" height="6"/></g>
<g transform="translate(652.5,112.5) scale(3.4333333333333)"><rect width="6" height="6"/></g>
<g transform="translate(672.5,112.5) scale(3.4333333333333)"><rect width="6" height="6"/></g>
<g transform="translate(692.5,112.5) scale(3.4333333333333)"><rect width="6" height="6"/></g>
<g transform="translate(712.5,112.5) scale(3.4333333333333)"><rect width="6" height="6"/></g>
<g transform="translate(732.5,112.5) scale(3.4333333333333)"><rect width="6" height="6"/></g>
<g transform="translate(772.5,112.5) scale(3.4333333333333)"><rect width="6" height="6"/></g>
<g transform="translate(832.5,112.5) scale(3.4333333333333)"><rect width="6" height="6"/></g>
<g transform="translate(272.5,132.5) scale(3.4333333333333)"><rect width="6" height="6"/></g>
<g transform="translate(292.5,132.5) scale(3.4333333333333)"><rect width="6" height="6"/></g>
<g transform="translate(352.5,132.5) scale(3.4333333333333)"><rect width="6" height="6"/></g>
<g transform="translate(372.5,132.5) scale(3.4333333333333)"><rect width="6" height="6"/></g>
<g transform="translate(452.5,132.5) scale(3.4333333333333)"><rect width="6" height="6"/></g>
<g transform="translate(492.5,132.5) scale(3.4333333333333)"><rect width="6" height="6"/></g>
<g transform="translate(512.5,132.5) scale(3.4333333333333)"><rect width="6" height="6"/></g>
<g transform="translate(532.5,132.5) scale(3.4333333333333)"><rect width="6" height="6"/></g>
<g transform="translate(552.5,132.5) scale(3.4333333333333)"><rect width="6" height="6"/></g>
<g transform="translate(572.5,132.5) scale(3.4333333333333)"><rect width="6" height="6"/></g>
<g transform="translate(592.5,132.5) scale(3.4333333333333)"><rect width="6" height="6"/></g>
<g transform="translate(612.5,132.5) scale(3.4333333333333)"><rect width="6" height="6"/></g>
<g transform="translate(752.5,132.5) scale(3.4333333333333)"><rect width="6" height="6"/></g>
<g transform="translate(812.5,132.5) scale(3.4333333333333)"><rect width="6" height="6"/></g>
<g transform="translate(272.5,152.5) scale(3.4333333333333)"><rect width="6" height="6"/></g>
<g transform="translate(292.5,152.5) scale(3.4333333333333)"><rect width="6" height="6"/></g>
<g transform="translate(312.5,152.5) scale(3.4333333333333)"><rect width="6" height="6"/></g>
<g transform="translate(352.5,152.5) scale(3.4333333333333)"><rect width="6" height="6"/></g>
<g transform="translate(432.5,152.5) scale(3.4333333333333)"><rect width="6" height="6"/></g>
<g transform="translate(452.5,152.5) scale(3.4333333333333)"><rect width="6" height="6"/></g>
<g transform="translate(472.5,152.5) scale(3.4333333333333)"><rect width="6" height="6"/></g>
<g transform="translate(492.5,152.5) scale(3.4333333333333)"><rect width="6" height="6"/></g>
<g transform="translate(512.5,152.5) scale(3.4333333333333)"><rect width="6" height="6"/></g>
<g transform="translate(552.5,152.5) scale(3.4333333333333)"><rect width="6" height="6"/></g>
<g transform="translate(592.5,152.5) scale(3.4333333333333)"><rect width="6" height="6"/></g>
<g transform="translate(612.5,152.5) scale(3.4333333333333)"><rect width="6" height="6"/></g>
<g transform="translate(632.5,152.5) scale(3.4333333333333)"><rect width="6" height="6"/></g>
<g transform="translate(652.5,152.5) scale(3.4333333333333)"><rect width="6" height="6"/></g>
<g transform="translate(672.5,152.5) scale(3.4333333333333)"><rect width="6" height="6"/></g>
<g transform="translate(692.5,152.5) scale(3.4333333333333)"><rect width="6" height="6"/></g>
<g transform="translate(772.5,152.5) scale(3.4333333333333)"><rect width="6" height="6"/></g>
<g transform="translate(812.5,152.5) scale(3.4333333333333)"><rect width="6" height="6"/></g>
<g transform="translate(312.5,172.5) scale(3.4333333333333)"><rect width="6" height="6"/></g>
<g transform="translate(352.5,172.5) scale(3.4333333333333)"><rect width="6" height="6"/></g>
<g transform="translate(372.5,172.5) scale(3.4333333333333)"><rect width="6" height="6"/></g>
<g transform="translate(412.5,172.5) scale(3.4333333333333)"><rect width="6" height="6"/></g>
<g transform="translate(432.5,172.5) scale(3.4333333333333)"><rect width="6" height="6"/></g>
<g transform="translate(552.5,172.5) scale(3.4333333333333)"><rect width="6" height="6"/></g>
<g transform="translate(572.5,172.5) scale(3.4333333333333)"><rect width="6" height="6"/></g>
<g transform="translate(592.5,172.5) scale(3.4333333333333)"><rect width="6" height="6"/></g>
<g transform="translate(632.5,172.5) scale(3.4333333333333)"><rect width="6" height="6"/></g>
<g transform="translate(652.5,172.5) scale(3.4333333333333)"><rect width="6" height="6"/></g>
<g transform="translate(672.5,172.5) scale(3.4333333333333)"><rect width="6" height="6"/></g>
<g transform="translate(692.5,172.5) scale(3.4333333333333)"><rect width="6" height="6"/></g>
<g transform="translate(712.5,172.5) scale(3.4333333333333)"><rect width="6" height="6"/></g>
<g transform="translate(732.5,172.5) scale(3.4333333333333)"><rect width="6" height="6"/></g>
<g transform="translate(752.5,172.5) scale(3.4333333333333)"><rect width="6" height="6"/></g>
<g transform="translate(812.5,172.5) scale(3.4333333333333)"><rect width="6" height="6"/></g>
<g transform="translate(832.5,172.5) scale(3.4333333333333)"><rect width="6" height="6"/></g>
<g transform="translate(292.5,192.5) scale(3.4333333333333)"><rect width="6" height="6"/></g>
<g transform="translate(392.5,192.5) scale(3.4333333333333)"><rect width="6" height="6"/></g>
<g transform="translate(432.5,192.5) scale(3.4333333333333)"><rect width="6" height="6"/></g>
<g transform="translate(452.5,192.5) scale(3.4333333333333)"><rect width="6" height="6"/></g>
<g transform="translate(512.5,192.5) scale(3.4333333333333)"><rect width="6" height="6"/></g>
<g transform="translate(532.5,192.5) scale(3.4333333333333)"><rect width="6" height="6"/></g>
<g transform="translate(552.5,192.5) scale(3.4333333333333)"><rect width="6" height="6"/></g>
<g transform="translate(572.5,192.5) scale(3.4333333333333)"><rect width="6" height="6"/></g>
<g transform="translate(592.5,192.5) scale(3.4333333333333)"><rect width="6" height="6"/></g>
<g transform="translate(632.5,192.5) scale(3.4333333333333)"><rect width="6" height="6"/></g>
<g transform="translate(652.5,192.5) scale(3.4333333333333)"><rect width="6" height="6"/></g>
<g transform="translate(692.5,192.5) scale(3.4333333333333)"><rect width="6" height="6"/></g>
<g transform="translate(712.5,192.5) scale(3.4333333333333)"><rect width="6" height="6"/></g>
<g transform="translate(752.5,192.5) scale(3.4333333333333)"><rect width="6" height="6"/></g>
<g transform="translate(792.5,192.5) scale(3.4333333333333)"><rect width="6" height="6"/></g>
<g transform="translate(812.5,192.5) scale(3.4333333333333)"><rect width="6" height="6"/></g>
<g transform="translate(832.5,192.5) scale(3.4333333333333)"><rect width="6" height="6"/></g>
<g transform="translate(272.5,212.5) scale(3.4333333333333)"><rect width="6" height="6"/></g>
<g transform="translate(312.5,212.5) scale(3.4333333333333)"><rect width="6" height="6"/></g>
<g transform="translate(332.5,212.5) scale(3.4333333333333)"><rect width="6" height="6"/></g>
<g transform="translate(352.5,212.5) scale(3.4333333333333)"><rect width="6" height="6"/></g>
<g transform="translate(372.5,212.5) scale(3.4333333333333)"><rect width="6" height="6"/></g>
<g transform="translate(412.5,212.5) scale(3.4333333333333)"><rect width="6" height="6"/></g>
<g transform="translate(492.5,212.5) scale(3.4333333333333)"><rect width="6" height="6"/></g>
<g transform="translate(512.5,212.5) scale(3.4333333333333)"><rect width="6" height="6"/></g>
<g transform="translate(592.5,212.5) scale(3.4333333333333)"><rect width="6" height="6"/></g>
<g transform="translate(632.5,212.5) scale(3.4333333333333)"><rect width="6" height="6"/></g>
<g transform="translate(652.5,212.5) scale(3.4333333333333)"><rect width="6" height="6"/></g>
<g transform="translate(672.5,212.5) scale(3.4333333333333)"><rect width="6" height="6"/></g>
<g transform="translate(692.5,212.5) scale(3.4333333333333)"><rect width="6" height="6"/></g>
<g transform="translate(732.5,212.5) scale(3.4333333333333)"><rect width="6" height="6"/></g>
<g transform="translate(752.5,212.5) scale(3.4333333333333)"><rect width="6" height="6"/></g>
<g transform="translate(772.5,212.5) scale(3.4333333333333)"><rect width="6" height="6"/></g>
<g transform="translate(272.5,232.5) scale(3.4333333333333)"><rect width="6" height="6"/></g>
<g transform="translate(312.5,232.5) scale(3.4333333333333)"><rect width="6" height="6"/></g>
<g transform="translate(352.5,232.5) scale(3.4333333333333)"><rect width="6" height="6"/></g>
<g transform="translate(392.5,232.5) scale(3.4333333333333)"><rect width="6" height="6"/></g>
<g transform="translate(432.5,232.5) scale(3.4333333333333)"><rect width="6" height="6"/></g>
<g transform="translate(472.5,232.5) scale(3.4333333333333)"><rect width="6" height="6"/></g>
<g transform="translate(512.5,232.5) scale(3.4333333333333)"><rect width="6" height="6"/></g>
<g transform="translate(552.5,232.5) scale(3.4333333333333)"><rect width="6" height="6"/></g>
<g transform="translate(592.5,232.5) scale(3.4333333333333)"><rect width="6" height="6"/></g>
<g transform="translate(632.5,232.5) scale(3.4333333333333)"><rect width="6" height="6"/></g>
<g transform="translate(672.5,232.5) scale(3.4333333333333)"><rect width="6" height="6"/></g>
<g transform="translate(712.5,232.5) scale(3.4333333333333)"><rect width="6" height="6"/></g>
<g transform="translate(752.5,232.5) scale(3.4333333333333)"><rect width="6" height="6"/></g>
<g transform="translate(792.5,232.5) scale(3.4333333333333)"><rect width="6" height="6"/></g>
<g transform="translate(832.5,232.5) scale(3.4333333333333)"><rect width="6" height="6"/></g>
<g transform="translate(272.5,252.5) scale(3.4333333333333)"><rect width="6" height="6"/></g>
<g transform="translate(292.5,252.5) scale(3.4333333333333)"><rect width="6" height="6"/></g>
<g transform="translate(372.5,252.5) scale(3.4333333333333)"><rect width="6" height="6"/></g>
<g transform="translate(412.5,252.5) scale(3.4333333333333)"><rect width="6" height="6"/></g>
<g transform="translate(432.5,252.5) scale(3.4333333333333)"><rect width="6" height="6"/></g>
<g transform="translate(492.5,252.5) scale(3.4333333333333)"><rect width="6" height="6"/></g>
<g transform="translate(512.5,252.5) scale(3.4333333333333)"><rect width="6" height="6"/></g>
<g transform="translate(592.5,252.5) scale(3.4333333333333)"><rect width="6" height="6"/></g>
<g transform="translate(632.5,252.5) scale(3.4333333333333)"><rect width="6" height="6"/></g>
<g transform="translate(752.5,252.5) scale(3.4333333333333)"><rect width="6" height="6"/></g>
<g transform="translate(792.5,252.5) scale(3.4333333333333)"><rect width="6" height="6"/></g>
<g transform="translate(152.5,272.5) scale(3.4333333333333)"><rect width="6" height="6"/></g>
<g transform="translate(172.5,272.5) scale(3.4333333333333)"><rect width="6" height="6"/></g>
<g transform="translate(192.5,272.5) scale(3.4333333333333)"><rect width="6" height="6"/></g>
<g transform="translate(232.5,272.5) scale(3.4333333333333)"><rect width="6" height="6"/></g>
<g transform="translate(272.5,272.5) scale(3.4333333333333)"><rect width="6" height="6"/></g>
<g transform="translate(372.5,272.5) scale(3.4333333333333)"><rect width="6" height="6"/></g>
<g transform="translate(452.5,272.5) scale(3.4333333333333)"><rect width="6" height="6"/></g>
<g transform="translate(492.5,272.5) scale(3.4333333333333)"><rect width="6" height="6"/></g>
<g transform="translate(512.5,272.5) scale(3.4333333333333)"><rect width="6" height="6"/></g>
<g transform="translate(532.5,272.5) scale(3.4333333333333)"><rect width="6" height="6"/></g>
<g transform="translate(552.5,272.5) scale(3.4333333333333)"><rect width="6" height="6"/></g>
<g transform="translate(572.5,272.5) scale(3.4333333333333)"><rect width="6" height="6"/></g>
<g transform="translate(592.5,272.5) scale(3.4333333333333)"><rect width="6" height="6"/></g>
<g transform="translate(672.5,272.5) scale(3.4333333333333)"><rect width="6" height="6"/></g>
<g transform="translate(692.5,272.5) scale(3.4333333333333)"><rect width="6" height="6"/></g>
<g transform="translate(712.5,272.5) scale(3.4333333333333)"><rect width="6" height="6"/></g>
<g transform="translate(732.5,272.5) scale(3.4333333333333)"><rect width="6" height="6"/></g>
<g transform="translate(792.5,272.5) scale(3.4333333333333)"><rect width="6" height="6"/></g>
<g transform="translate(852.5,272.5) scale(3.4333333333333)"><rect width="6" height="6"/></g>
<g transform="translate(872.5,272.5) scale(3.4333333333333)"><rect width="6" height="6"/></g>
<g transform="translate(892.5,272.5) scale(3.4333333333333)"><rect width="6" height="6"/></g>
<g transform="translate(952.5,272.5) scale(3.4333333333333)"><rect width="6" height="6"/></g>
<g transform="translate(972.5,272.5) scale(3.4333333333333)"><rect width="6" height="6"/></g>
<g transform="translate(992.5,272.5) scale(3.4333333333333)"><rect width="6" height="6"/></g>
<g transform="translate(112.5,292.5) scale(3.4333333333333)"><rect width="6" height="6"/></g>
<g transform="translate(152.5,292.5) scale(3.4333333333333)"><rect width="6" height="6"/></g>
<g transform="translate(172.5,292.5) scale(3.4333333333333)"><rect width="6" height="6"/></g>
<g transform="translate(212.5,292.5) scale(3.4333333333333)"><rect width="6" height="6"/></g>
<g transform="translate(272.5,292.5) scale(3.4333333333333)"><rect width="6" height="6"/></g>
<g transform="translate(332.5,292.5) scale(3.4333333333333)"><rect width="6" height="6"/></g>
<g transform="translate(352.5,292.5) scale(3.4333333333333)"><rect width="6" height="6"/></g>
<g transform="translate(372.5,292.5) scale(3.4333333333333)"><rect width="6" height="6"/></g>
<g transform="translate(392.5,292.5) scale(3.4333333333333)"><rect width="6" height="6"/></g>
<g transform="translate(452.5,292.5) scale(3.4333333333333)"><rect width="6" height="6"/></g>
<g transform="translate(472.5,292.5) scale(3.4333333333333)"><rect width="6" height="6"/></g>
<g transform="translate(512.5,292.5) scale(3.4333333333333)"><rect width="6" height="6"/></g>
<g transform="translate(532.5,292.5) scale(3.4333333333333)"><rect width="6" height="6"/></g>
<g transform="translate(552.5,292.5) scale(3.4333333333333)"><rect width="6" height="6"/></g>
<g transform="translate(572.5,292.5) scale(3.4333333333333)"><rect width="6" height="6"/></g>
<g transform="translate(592.5,292.5) scale(3.4333333333333)"><rect width="6" height="6"/></g>
<g transform="translate(612.5,292.5) scale(3.4333333333333)"><rect width="6" height="6"/></g>
<g transform="translate(632.5,292.5) scale(3.4333333333333)"><rect width="6" height="6"/></g>
<g transform="translate(672.5,292.5) scale(3.4333333333333)"><rect width="6" height="6"/></g>
<g transform="translate(692.5,292.5) scale(3.4333333333333)"><rect width="6" height="6"/></g>
<g transform="translate(712.5,292.5) scale(3.4333333333333)"><rect width="6" height="6"/></g>
<g transform="translate(772.5,292.5) scale(3.4333333333333)"><rect width="6" height="6"/></g>
<g transform="translate(812.5,292.5) scale(3.4333333333333)"><rect width="6" height="6"/></g>
<g transform="translate(832.5,292.5) scale(3.4333333333333)"><rect width="6" height="6"/></g>
<g transform="translate(852.5,292.5) scale(3.4333333333333)"><rect width="6" height="6"/></g>
<g transform="translate(992.5,292.5) scale(3.4333333333333)"><rect width="6" height="6"/></g>
<g transform="translate(112.5,312.5) scale(3.4333333333333)"><rect width="6" height="6"/></g>
<g transform="translate(132.5,312.5) scale(3.4333333333333)"><rect width="6" height="6"/></g>
<g transform="translate(172.5,312.5) scale(3.4333333333333)"><rect width="6" height="6"/></g>
<g transform="translate(212.5,312.5) scale(3.4333333333333)"><rect width="6" height="6"/></g>
<g transform="translate(232.5,312.5) scale(3.4333333333333)"><rect width="6" height="6"/></g>
<g transform="translate(252.5,312.5) scale(3.4333333333333)"><rect width="6" height="6"/></g>
<g transform="translate(272.5,312.5) scale(3.4333333333333)"><rect width="6" height="6"/></g>
<g transform="translate(312.5,312.5) scale(3.4333333333333)"><rect width="6" height="6"/></g>
<g transform="translate(332.5,312.5) scale(3.4333333333333)"><rect width="6" height="6"/></g>
<g transform="translate(372.5,312.5) scale(3.4333333333333)"><rect width="6" height="6"/></g>
<g transform="translate(392.5,312.5) scale(3.4333333333333)"><rect width="6" height="6"/></g>
<g transform="translate(432.5,312.5) scale(3.4333333333333)"><rect width="6" height="6"/></g>
<g transform="translate(452.5,312.5) scale(3.4333333333333)"><rect width="6" height="6"/></g>
<g transform="translate(472.5,312.5) scale(3.4333333333333)"><rect width="6" height="6"/></g>
<g transform="translate(492.5,312.5) scale(3.4333333333333)"><rect width="6" height="6"/></g>
<g transform="translate(592.5,312.5) scale(3.4333333333333)"><rect width="6" height="6"/></g>
<g transform="translate(672.5,312.5) scale(3.4333333333333)"><rect width="6" height="6"/></g>
<g transform="translate(732.5,312.5) scale(3.4333333333333)"><rect width="6" height="6"/></g>
<g transform="translate(752.5,312.5) scale(3.4333333333333)"><rect width="6" height="6"/></g>
<g transform="translate(772.5,312.5) scale(3.4333333333333)"><rect width="6" height="6"/></g>
<g transform="translate(792.5,312.5) scale(3.4333333333333)"><rect width="6" height="6"/></g>
<g transform="translate(852.5,312.5) scale(3.4333333333333)"><rect width="6" height="6"/></g>
<g transform="translate(872.5,312.5) scale(3.4333333333333)"><rect width="6" height="6"/></g>
<g transform="translate(892.5,312.5) scale(3.4333333333333)"><rect width="6" height="6"/></g>
<g transform="translate(932.5,312.5) scale(3.4333333333333)"><rect width="6" height="6"/></g>
<g transform="translate(952.5,312.5) scale(3.4333333333333)"><rect width="6" height="6"/></g>
<g transform="translate(972.5,312.5) scale(3.4333333333333)"><rect width="6" height="6"/></g>
<g transform="translate(152.5,332.5) scale(3.4333333333333)"><rect width="6" height="6"/></g>
<g transform="translate(192.5,332.5) scale(3.4333333333333)"><rect width="6" height="6"/></g>
<g transform="translate(212.5,332.5) scale(3.4333333333333)"><rect width="6" height="6"/></g>
<g transform="translate(252.5,332.5) scale(3.4333333333333)"><rect width="6" height="6"/></g>
<g transform="translate(292.5,332.5) scale(3.4333333333333)"><rect width="6" height="6"/></g>
<g transform="translate(312.5,332.5) scale(3.4333333333333)"><rect width="6" height="6"/></g>
<g transform="translate(332.5,332.5) scale(3.4333333333333)"><rect width="6" height="6"/></g>
<g transform="translate(352.5,332.5) scale(3.4333333333333)"><rect width="6" height="6"/></g>
<g transform="translate(432.5,332.5) scale(3.4333333333333)"><rect width="6" height="6"/></g>
<g transform="translate(452.5,332.5) scale(3.4333333333333)"><rect width="6" height="6"/></g>
<g transform="translate(492.5,332.5) scale(3.4333333333333)"><rect width="6" height="6"/></g>
<g transform="translate(512.5,332.5) scale(3.4333333333333)"><rect width="6" height="6"/></g>
<g transform="translate(532.5,332.5) scale(3.4333333333333)"><rect width="6" height="6"/></g>
<g transform="translate(592.5,332.5) scale(3.4333333333333)"><rect width="6" height="6"/></g>
<g transform="translate(612.5,332.5) scale(3.4333333333333)"><rect width="6" height="6"/></g>
<g transform="translate(672.5,332.5) scale(3.4333333333333)"><rect width="6" height="6"/></g>
<g transform="translate(752.5,332.5) scale(3.4333333333333)"><rect width="6" height="6"/></g>
<g transform="translate(772.5,332.5) scale(3.4333333333333)"><rect width="6" height="6"/></g>
<g transform="translate(832.5,332.5) scale(3.4333333333333)"><rect width="6" height="6"/></g>
<g transform="translate(912.5,332.5) scale(3.4333333333333)"><rect width="6" height="6"/></g>
<g transform="translate(952.5,332.5) scale(3.4333333333333)"><rect width="6" height="6"/></g>
<g transform="translate(112.5,352.5) scale(3.4333333333333)"><rect width="6" height="6"/></g>
<g transform="translate(172.5,352.5) scale(3.4333333333333)"><rect width="6" height="6"/></g>
<g transform="translate(212.5,352.5) scale(3.4333333333333)"><rect width="6" height="6"/></g>
<g transform="translate(232.5,352.5) scale(3.4333333333333)"><rect width="6" height="6"/></g>
<g transform="translate(312.5,352.5) scale(3.4333333333333)"><rect width="6" height="6"/></g>
<g transform="translate(332.5,352.5) scale(3.4333333333333)"><rect width="6" height="6"/></g>
<g transform="translate(352.5,352.5) scale(3.4333333333333)"><rect width="6" height="6"/></g>
<g transform="translate(372.5,352.5) scale(3.4333333333333)"><rect width="6" height="6"/></g>
<g transform="translate(412.5,352.5) scale(3.4333333333333)"><rect width="6" height="6"/></g>
<g transform="translate(492.5,352.5) scale(3.4333333333333)"><rect width="6" height="6"/></g>
<g transform="translate(512.5,352.5) scale(3.4333333333333)"><rect width="6" height="6"/></g>
<g transform="translate(532.5,352.5) scale(3.4333333333333)"><rect width="6" height="6"/></g>
<g transform="translate(552.5,352.5) scale(3.4333333333333)"><rect width="6" height="6"/></g>
<g transform="translate(572.5,352.5) scale(3.4333333333333)"><rect width="6" height="6"/></g>
<g transform="translate(592.5,352.5) scale(3.4333333333333)"><rect width="6" height="6"/></g>
<g transform="translate(612.5,352.5) scale(3.4333333333333)"><rect width="6" height="6"/></g>
<g transform="translate(632.5,352.5) scale(3.4333333333333)"><rect width="6" height="6"/></g>
<g transform="translate(652.5,352.5) scale(3.4333333333333)"><rect width="6" height="6"/></g>
<g transform="translate(672.5,352.5) scale(3.4333333333333)"><rect width="6" height="6"/></g>
<g transform="translate(692.5,352.5) scale(3.4333333333333)"><rect width="6" height="6"/></g>
<g transform="translate(712.5,352.5) scale(3.4333333333333)"><rect width="6" height="6"/></g>
<g transform="translate(732.5,352.5) scale(3.4333333333333)"><rect width="6" height="6"/></g>
<g transform="translate(812.5,352.5) scale(3.4333333333333)"><rect width="6" height="6"/></g>
<g transform="translate(972.5,352.5) scale(3.4333333333333)"><rect width="6" height="6"/></g>
<g transform="translate(152.5,372.5) scale(3.4333333333333)"><rect width="6" height="6"/></g>
<g transform="translate(212.5,372.5) scale(3.4333333333333)"><rect width="6" height="6"/></g>
<g transform="translate(252.5,372.5) scale(3.4333333333333)"><rect width="6" height="6"/></g>
<g transform="translate(312.5,372.5) scale(3.4333333333333)"><rect width="6" height="6"/></g>
<g transform="translate(352.5,372.5) scale(3.4333333333333)"><rect width="6" height="6"/></g>
<g transform="translate(372.5,372.5) scale(3.4333333333333)"><rect width="6" height="6"/></g>
<g transform="translate(412.5,372.5) scale(3.4333333333333)"><rect width="6" height="6"/></g>
<g transform="translate(432.5,372.5) scale(3.4333333333333)"><rect width="6" height="6"/></g>
<g transform="translate(512.5,372.5) scale(3.4333333333333)"><rect width="6" height="6"/></g>
<g transform="translate(532.5,372.5) scale(3.4333333333333)"><rect width="6" height="6"/></g>
<g transform="translate(552.5,372.5) scale(3.4333333333333)"><rect width="6" height="6"/></g>
<g transform="translate(592.5,372.5) scale(3.4333333333333)"><rect width="6" height="6"/></g>
<g transform="translate(612.5,372.5) scale(3.4333333333333)"><rect width="6" height="6"/></g>
<g transform="translate(652.5,372.5) scale(3.4333333333333)"><rect width="6" height="6"/></g>
<g transform="translate(692.5,372.5) scale(3.4333333333333)"><rect width="6" height="6"/></g>
<g transform="translate(712.5,372.5) scale(3.4333333333333)"><rect width="6" height="6"/></g>
<g transform="translate(732.5,372.5) scale(3.4333333333333)"><rect width="6" height="6"/></g>
<g transform="translate(812.5,372.5) scale(3.4333333333333)"><rect width="6" height="6"/></g>
<g transform="translate(832.5,372.5) scale(3.4333333333333)"><rect width="6" height="6"/></g>
<g transform="translate(852.5,372.5) scale(3.4333333333333)"><rect width="6" height="6"/></g>
<g transform="translate(912.5,372.5) scale(3.4333333333333)"><rect width="6" height="6"/></g>
<g transform="translate(992.5,372.5) scale(3.4333333333333)"><rect width="6" height="6"/></g>
<g transform="translate(172.5,392.5) scale(3.4333333333333)"><rect width="6" height="6"/></g>
<g transform="translate(192.5,392.5) scale(3.4333333333333)"><rect width="6" height="6"/></g>
<g transform="translate(212.5,392.5) scale(3.4333333333333)"><rect width="6" height="6"/></g>
<g transform="translate(232.5,392.5) scale(3.4333333333333)"><rect width="6" height="6"/></g>
<g transform="translate(252.5,392.5) scale(3.4333333333333)"><rect width="6" height="6"/></g>
<g transform="translate(272.5,392.5) scale(3.4333333333333)"><rect width="6" height="6"/></g>
<g transform="translate(312.5,392.5) scale(3.4333333333333)"><rect width="6" height="6"/></g>
<g transform="translate(392.5,392.5) scale(3.4333333333333)"><rect width="6" height="6"/></g>
<g transform="translate(472.5,392.5) scale(3.4333333333333)"><rect width="6" height="6"/></g>
<g transform="translate(512.5,392.5) scale(3.4333333333333)"><rect width="6" height="6"/></g>
<g transform="translate(572.5,392.5) scale(3.4333333333333)"><rect width="6" height="6"/></g>
<g transform="translate(632.5,392.5) scale(3.4333333333333)"><rect width="6" height="6"/></g>
<g transform="translate(652.5,392.5) scale(3.4333333333333)"><rect width="6" height="6"/></g>
<g transform="translate(672.5,392.5) scale(3.4333333333333)"><rect width="6" height="6"/></g>
<g transform="translate(692.5,392.5) scale(3.4333333333333)"><rect width="6" height="6"/></g>
<g transform="translate(732.5,392.5) scale(3.4333333333333)"><rect width="6" height="6"/></g>
<g transform="translate(752.5,392.5) scale(3.4333333333333)"><rect width="6" height="6"/></g>
<g transform="translate(772.5,392.5) scale(3.4333333333333)"><rect width="6" height="6"/></g>
<g transform="translate(792.5,392.5) scale(3.4333333333333)"><rect width="6" height="6"/></g>
<g transform="translate(852.5,392.5) scale(3.4333333333333)"><rect width="6" height="6"/></g>
<g transform="translate(872.5,392.5) scale(3.4333333333333)"><rect width="6" height="6"/></g>
<g transform="translate(912.5,392.5) scale(3.4333333333333)"><rect width="6" height="6"/></g>
<g transform="translate(952.5,392.5) scale(3.4333333333333)"><rect width="6" height="6"/></g>
<g transform="translate(112.5,412.5) scale(3.4333333333333)"><rect width="6" height="6"/></g>
<g transform="translate(132.5,412.5) scale(3.4333333333333)"><rect width="6" height="6"/></g>
<g transform="translate(152.5,412.5) scale(3.4333333333333)"><rect width="6" height="6"/></g>
<g transform="translate(172.5,412.5) scale(3.4333333333333)"><rect width="6" height="6"/></g>
<g transform="translate(192.5,412.5) scale(3.4333333333333)"><rect width="6" height="6"/></g>
<g transform="translate(212.5,412.5) scale(3.4333333333333)"><rect width="6" height="6"/></g>
<g transform="translate(272.5,412.5) scale(3.4333333333333)"><rect width="6" height="6"/></g>
<g transform="translate(292.5,412.5) scale(3.4333333333333)"><rect width="6" height="6"/></g>
<g transform="translate(352.5,412.5) scale(3.4333333333333)"><rect width="6" height="6"/></g>
<g transform="translate(412.5,412.5) scale(3.4333333333333)"><rect width="6" height="6"/></g>
<g transform="translate(452.5,412.5) scale(3.4333333333333)"><rect width="6" height="6"/></g>
<g transform="translate(472.5,412.5) scale(3.4333333333333)"><rect width="6" height="6"/></g>
<g transform="translate(492.5,412.5) scale(3.4333333333333)"><rect width="6" height="6"/></g>
<g transform="translate(512.5,412.5) scale(3.4333333333333)"><rect width="6" height="6"/></g>
<g transform="translate(592.5,412.5) scale(3.4333333333333)"><rect width="6" height="6"/></g>
<g transform="translate(712.5,412.5) scale(3.4333333333333)"><rect width="6" height="6"/></g>
<g transform="translate(752.5,412.5) scale(3.4333333333333)"><rect width="6" height="6"/></g>
<g transform="translate(812.5,412.5) scale(3.4333333333333)"><rect width="6" height="6"/></g>
<g transform="translate(852.5,412.5) scale(3.4333333333333)"><rect width="6" height="6"/></g>
<g transform="translate(872.5,412.5) scale(3.4333333333333)"><rect width="6" height="6"/></g>
<g transform="translate(892.5,412.5) scale(3.4333333333333)"><rect width="6" height="6"/></g>
<g transform="translate(912.5,412.5) scale(3.4333333333333)"><rect width="6" height="6"/></g>
<g transform="translate(932.5,412.5) scale(3.4333333333333)"><rect width="6" height="6"/></g>
<g transform="translate(952.5,412.5) scale(3.4333333333333)"><rect width="6" height="6"/></g>
<g transform="translate(972.5,412.5) scale(3.4333333333333)"><rect width="6" height="6"/></g>
<g transform="translate(152.5,432.5) scale(3.4333333333333)"><rect width="6" height="6"/></g>
<g transform="translate(172.5,432.5) scale(3.4333333333333)"><rect width="6" height="6"/></g>
<g transform="translate(192.5,432.5) scale(3.4333333333333)"><rect width="6" height="6"/></g>
<g transform="translate(232.5,432.5) scale(3.4333333333333)"><rect width="6" height="6"/></g>
<g transform="translate(252.5,432.5) scale(3.4333333333333)"><rect width="6" height="6"/></g>
<g transform="translate(312.5,432.5) scale(3.4333333333333)"><rect width="6" height="6"/></g>
<g transform="translate(352.5,432.5) scale(3.4333333333333)"><rect width="6" height="6"/></g>
<g transform="translate(512.5,432.5) scale(3.4333333333333)"><rect width="6" height="6"/></g>
<g transform="translate(532.5,432.5) scale(3.4333333333333)"><rect width="6" height="6"/></g>
<g transform="translate(592.5,432.5) scale(3.4333333333333)"><rect width="6" height="6"/></g>
<g transform="translate(612.5,432.5) scale(3.4333333333333)"><rect width="6" height="6"/></g>
<g transform="translate(672.5,432.5) scale(3.4333333333333)"><rect width="6" height="6"/></g>
<g transform="translate(692.5,432.5) scale(3.4333333333333)"><rect width="6" height="6"/></g>
<g transform="translate(712.5,432.5) scale(3.4333333333333)"><rect width="6" height="6"/></g>
<g transform="translate(772.5,432.5) scale(3.4333333333333)"><rect width="6" height="6"/></g>
<g transform="translate(852.5,432.5) scale(3.4333333333333)"><rect width="6" height="6"/></g>
<g transform="translate(872.5,432.5) scale(3.4333333333333)"><rect width="6" height="6"/></g>
<g transform="translate(932.5,432.5) scale(3.4333333333333)"><rect width="6" height="6"/></g>
<g transform="translate(992.5,432.5) scale(3.4333333333333)"><rect width="6" height="6"/></g>
<g transform="translate(152.5,452.5) scale(3.4333333333333)"><rect width="6" height="6"/></g>
<g transform="translate(252.5,452.5) scale(3.4333333333333)"><rect width="6" height="6"/></g>
<g transform="translate(292.5,452.5) scale(3.4333333333333)"><rect width="6" height="6"/></g>
<g transform="translate(312.5,452.5) scale(3.4333333333333)"><rect width="6" height="6"/></g>
<g transform="translate(332.5,452.5) scale(3.4333333333333)"><rect width="6" height="6"/></g>
<g transform="translate(372.5,452.5) scale(3.4333333333333)"><rect width="6" height="6"/></g>
<g transform="translate(412.5,452.5) scale(3.4333333333333)"><rect width="6" height="6"/></g>
<g transform="translate(452.5,452.5) scale(3.4333333333333)"><rect width="6" height="6"/></g>
<g transform="translate(472.5,452.5) scale(3.4333333333333)"><rect width="6" height="6"/></g>
<g transform="translate(492.5,452.5) scale(3.4333333333333)"><rect width="6" height="6"/></g>
<g transform="translate(512.5,452.5) scale(3.4333333333333)"><rect width="6" height="6"/></g>
<g transform="translate(552.5,452.5) scale(3.4333333333333)"><rect width="6" height="6"/></g>
<g transform="translate(572.5,452.5) scale(3.4333333333333)"><rect width="6" height="6"/></g>
<g transform="translate(592.5,452.5) scale(3.4333333333333)"><rect width="6" height="6"/></g>
<g transform="translate(612.5,452.5) scale(3.4333333333333)"><rect width="6" height="6"/></g>
<g transform="translate(672.5,452.5) scale(3.4333333333333)"><rect width="6" height="6"/></g>
<g transform="translate(712.5,452.5) scale(3.4333333333333)"><rect width="6" height="6"/></g>
<g transform="translate(812.5,452.5) scale(3.4333333333333)"><rect width="6" height="6"/></g>
<g transform="translate(832.5,452.5) scale(3.4333333333333)"><rect width="6" height="6"/></g>
<g transform="translate(852.5,452.5) scale(3.4333333333333)"><rect width="6" height="6"/></g>
<g transform="translate(932.5,452.5) scale(3.4333333333333)"><rect width="6" height="6"/></g>
<g transform="translate(992.5,452.5) scale(3.4333333333333)"><rect width="6" height="6"/></g>
<g transform="translate(112.5,472.5) scale(3.4333333333333)"><rect width="6" height="6"/></g>
<g transform="translate(132.5,472.5) scale(3.4333333333333)"><rect width="6" height="6"/></g>
<g transform="translate(192.5,472.5) scale(3.4333333333333)"><rect width="6" height="6"/></g>
<g transform="translate(232.5,472.5) scale(3.4333333333333)"><rect width="6" height="6"/></g>
<g transform="translate(252.5,472.5) scale(3.4333333333333)"><rect width="6" height="6"/></g>
<g transform="translate(312.5,472.5) scale(3.4333333333333)"><rect width="6" height="6"/></g>
<g transform="translate(332.5,472.5) scale(3.4333333333333)"><rect width="6" height="6"/></g>
<g transform="translate(352.5,472.5) scale(3.4333333333333)"><rect width="6" height="6"/></g>
<g transform="translate(372.5,472.5) scale(3.4333333333333)"><rect width="6" height="6"/></g>
<g transform="translate(392.5,472.5) scale(3.4333333333333)"><rect width="6" height="6"/></g>
<g transform="translate(412.5,472.5) scale(3.4333333333333)"><rect width="6" height="6"/></g>
<g transform="translate(432.5,472.5) scale(3.4333333333333)"><rect width="6" height="6"/></g>
<g transform="translate(472.5,472.5) scale(3.4333333333333)"><rect width="6" height="6"/></g>
<g transform="translate(492.5,472.5) scale(3.4333333333333)"><rect width="6" height="6"/></g>
<g transform="translate(512.5,472.5) scale(3.4333333333333)"><rect width="6" height="6"/></g>
<g transform="translate(552.5,472.5) scale(3.4333333333333)"><rect width="6" height="6"/></g>
<g transform="translate(572.5,472.5) scale(3.4333333333333)"><rect width="6" height="6"/></g>
<g transform="translate(592.5,472.5) scale(3.4333333333333)"><rect width="6" height="6"/></g>
<g transform="translate(612.5,472.5) scale(3.4333333333333)"><rect width="6" height="6"/></g>
<g transform="translate(632.5,472.5) scale(3.4333333333333)"><rect width="6" height="6"/></g>
<g transform="translate(652.5,472.5) scale(3.4333333333333)"><rect width="6" height="6"/></g>
<g transform="translate(672.5,472.5) scale(3.4333333333333)"><rect width="6" height="6"/></g>
<g transform="translate(692.5,472.5) scale(3.4333333333333)"><rect width="6" height="6"/></g>
<g transform="translate(712.5,472.5) scale(3.4333333333333)"><rect width="6" height="6"/></g>
<g transform="translate(752.5,472.5) scale(3.4333333333333)"><rect width="6" height="6"/></g>
<g transform="translate(772.5,472.5) scale(3.4333333333333)"><rect width="6" height="6"/></g>
<g transform="translate(792.5,472.5) scale(3.4333333333333)"><rect width="6" height="6"/></g>
<g transform="translate(812.5,472.5) scale(3.4333333333333)"><rect width="6" height="6"/></g>
<g transform="translate(832.5,472.5) scale(3.4333333333333)"><rect width="6" height="6"/></g>
<g transform="translate(872.5,472.5) scale(3.4333333333333)"><rect width="6" height="6"/></g>
<g transform="translate(932.5,472.5) scale(3.4333333333333)"><rect width="6" height="6"/></g>
<g transform="translate(972.5,472.5) scale(3.4333333333333)"><rect width="6" height="6"/></g>
<g transform="translate(112.5,492.5) scale(3.4333333333333)"><rect width="6" height="6"/></g>
<g transform="translate(132.5,492.5) scale(3.4333333333333)"><rect width="6" height="6"/></g>
<g transform="translate(172.5,492.5) scale(3.4333333333333)"><rect width="6" height="6"/></g>
<g transform="translate(212.5,492.5) scale(3.4333333333333)"><rect width="6" height="6"/></g>
<g transform="translate(272.5,492.5) scale(3.4333333333333)"><rect width="6" height="6"/></g>
<g transform="translate(392.5,492.5) scale(3.4333333333333)"><rect width="6" height="6"/></g>
<g transform="translate(412.5,492.5) scale(3.4333333333333)"><rect width="6" height="6"/></g>
<g transform="translate(432.5,492.5) scale(3.4333333333333)"><rect width="6" height="6"/></g>
<g transform="translate(452.5,492.5) scale(3.4333333333333)"><rect width="6" height="6"/></g>
<g transform="translate(492.5,492.5) scale(3.4333333333333)"><rect width="6" height="6"/></g>
<g transform="translate(512.5,492.5) scale(3.4333333333333)"><rect width="6" height="6"/></g>
<g transform="translate(552.5,492.5) scale(3.4333333333333)"><rect width="6" height="6"/></g>
<g transform="translate(572.5,492.5) scale(3.4333333333333)"><rect width="6" height="6"/></g>
<g transform="translate(592.5,492.5) scale(3.4333333333333)"><rect width="6" height="6"/></g>
<g transform="translate(692.5,492.5) scale(3.4333333333333)"><rect width="6" height="6"/></g>
<g transform="translate(752.5,492.5) scale(3.4333333333333)"><rect width="6" height="6"/></g>
<g transform="translate(772.5,492.5) scale(3.4333333333333)"><rect width="6" height="6"/></g>
<g transform="translate(812.5,492.5) scale(3.4333333333333)"><rect width="6" height="6"/></g>
<g transform="translate(832.5,492.5) scale(3.4333333333333)"><rect width="6" height="6"/></g>
<g transform="translate(852.5,492.5) scale(3.4333333333333)"><rect width="6" height="6"/></g>
<g transform="translate(872.5,492.5) scale(3.4333333333333)"><rect width="6" height="6"/></g>
<g transform="translate(892.5,492.5) scale(3.4333333333333)"><rect width="6" height="6"/></g>
<g transform="translate(912.5,492.5) scale(3.4333333333333)"><rect width="6" height="6"/></g>
<g transform="translate(932.5,492.5) scale(3.4333333333333)"><rect width="6" height="6"/></g>
<g transform="translate(952.5,492.5) scale(3.4333333333333)"><rect width="6" height="6"/></g>
<g transform="translate(992.5,492.5) scale(3.4333333333333)"><rect width="6" height="6"/></g>
<g transform="translate(112.5,512.5) scale(3.4333333333333)"><rect width="6" height="6"/></g>
<g transform="translate(132.5,512.5) scale(3.4333333333333)"><rect width="6" height="6"/></g>
<g transform="translate(172.5,512.5) scale(3.4333333333333)"><rect width="6" height="6"/></g>
<g transform="translate(192.5,512.5) scale(3.4333333333333)"><rect width="6" height="6"/></g>
<g transform="translate(212.5,512.5) scale(3.4333333333333)"><rect width="6" height="6"/></g>
<g transform="translate(232.5,512.5) scale(3.4333333333333)"><rect width="6" height="6"/></g>
<g transform="translate(252.5,512.5) scale(3.4333333333333)"><rect width="6" height="6"/></g>
<g transform="translate(272.5,512.5) scale(3.4333333333333)"><rect width="6" height="6"/></g>
<g transform="translate(312.5,512.5) scale(3.4333333333333)"><rect width="6" height="6"/></g>
<g transform="translate(432.5,512.5) scale(3.4333333333333)"><rect width="6" height="6"/></g>
<g transform="translate(452.5,512.5) scale(3.4333333333333)"><rect width="6" height="6"/></g>
<g transform="translate(492.5,512.5) scale(3.4333333333333)"><rect width="6" height="6"/></g>
<g transform="translate(512.5,512.5) scale(3.4333333333333)"><rect width="6" height="6"/></g>
<g transform="translate(532.5,512.5) scale(3.4333333333333)"><rect width="6" height="6"/></g>
<g transform="translate(552.5,512.5) scale(3.4333333333333)"><rect width="6" height="6"/></g>
<g transform="translate(572.5,512.5) scale(3.4333333333333)"><rect width="6" height="6"/></g>
<g transform="translate(592.5,512.5) scale(3.4333333333333)"><rect width="6" height="6"/></g>
<g transform="translate(632.5,512.5) scale(3.4333333333333)"><rect width="6" height="6"/></g>
<g transform="translate(652.5,512.5) scale(3.4333333333333)"><rect width="6" height="6"/></g>
<g transform="translate(672.5,512.5) scale(3.4333333333333)"><rect width="6" height="6"/></g>
<g transform="translate(732.5,512.5) scale(3.4333333333333)"><rect width="6" height="6"/></g>
<g transform="translate(832.5,512.5) scale(3.4333333333333)"><rect width="6" height="6"/></g>
<g transform="translate(852.5,512.5) scale(3.4333333333333)"><rect width="6" height="6"/></g>
<g transform="translate(872.5,512.5) scale(3.4333333333333)"><rect width="6" height="6"/></g>
<g transform="translate(892.5,512.5) scale(3.4333333333333)"><rect width="6" height="6"/></g>
<g transform="translate(912.5,512.5) scale(3.4333333333333)"><rect width="6" height="6"/></g>
<g transform="translate(932.5,512.5) scale(3.4333333333333)"><rect width="6" height="6"/></g>
<g transform="translate(972.5,512.5) scale(3.4333333333333)"><rect width="6" height="6"/></g>
<g transform="translate(992.5,512.5) scale(3.4333333333333)"><rect width="6" height="6"/></g>
<g transform="translate(112.5,532.5) scale(3.4333333333333)"><rect width="6" height="6"/></g>
<g transform="translate(152.5,532.5) scale(3.4333333333333)"><rect width="6" height="6"/></g>
<g transform="translate(172.5,532.5) scale(3.4333333333333)"><rect width="6" height="6"/></g>
<g transform="translate(192.5,532.5) scale(3.4333333333333)"><rect width="6" height="6"/></g>
<g transform="translate(272.5,532.5) scale(3.4333333333333)"><rect width="6" height="6"/></g>
<g transform="translate(412.5,532.5) scale(3.4333333333333)"><rect width="6" height="6"/></g>
<g transform="translate(512.5,532.5) scale(3.4333333333333)"><rect width="6" height="6"/></g>
<g transform="translate(592.5,532.5) scale(3.4333333333333)"><rect width="6" height="6"/></g>
<g transform="translate(612.5,532.5) scale(3.4333333333333)"><rect width="6" height="6"/></g>
<g transform="translate(652.5,532.5) scale(3.4333333333333)"><rect width="6" height="6"/></g>
<g transform="translate(672.5,532.5) scale(3.4333333333333)"><rect width="6" height="6"/></g>
<g transform="translate(692.5,532.5) scale(3.4333333333333)"><rect width="6" height="6"/></g>
<g transform="translate(732.5,532.5) scale(3.4333333333333)"><rect width="6" height="6"/></g>
<g transform="translate(752.5,532.5) scale(3.4333333333333)"><rect width="6" height="6"/></g>
<g transform="translate(812.5,532.5) scale(3.4333333333333)"><rect width="6" height="6"/></g>
<g transform="translate(832.5,532.5) scale(3.4333333333333)"><rect width="6" height="6"/></g>
<g transform="translate(912.5,532.5) scale(3.4333333333333)"><rect width="6" height="6"/></g>
<g transform="translate(932.5,532.5) scale(3.4333333333333)"><rect width="6" height="6"/></g>
<g transform="translate(992.5,532.5) scale(3.4333333333333)"><rect width="6" height="6"/></g>
<g transform="translate(132.5,552.5) scale(3.4333333333333)"><rect width="6" height="6"/></g>
<g transform="translate(152.5,552.5) scale(3.4333333333333)"><rect width="6" height="6"/></g>
<g transform="translate(192.5,552.5) scale(3.4333333333333)"><rect width="6" height="6"/></g>
<g transform="translate(232.5,552.5) scale(3.4333333333333)"><rect width="6" height="6"/></g>
<g transform="translate(272.5,552.5) scale(3.4333333333333)"><rect width="6" height="6"/></g>
<g transform="translate(292.5,552.5) scale(3.4333333333333)"><rect width="6" height="6"/></g>
<g transform="translate(352.5,552.5) scale(3.4333333333333)"><rect width="6" height="6"/></g>
<g transform="translate(412.5,552.5) scale(3.4333333333333)"><rect width="6" height="6"/></g>
<g transform="translate(432.5,552.5) scale(3.4333333333333)"><rect width="6" height="6"/></g>
<g transform="translate(452.5,552.5) scale(3.4333333333333)"><rect width="6" height="6"/></g>
<g transform="translate(512.5,552.5) scale(3.4333333333333)"><rect width="6" height="6"/></g>
<g transform="translate(552.5,552.5) scale(3.4333333333333)"><rect width="6" height="6"/></g>
<g transform="translate(592.5,552.5) scale(3.4333333333333)"><rect width="6" height="6"/></g>
<g transform="translate(712.5,552.5) scale(3.4333333333333)"><rect width="6" height="6"/></g>
<g transform="translate(772.5,552.5) scale(3.4333333333333)"><rect width="6" height="6"/></g>
<g transform="translate(792.5,552.5) scale(3.4333333333333)"><rect width="6" height="6"/></g>
<g transform="translate(832.5,552.5) scale(3.4333333333333)"><rect width="6" height="6"/></g>
<g transform="translate(872.5,552.5) scale(3.4333333333333)"><rect width="6" height="6"/></g>
<g transform="translate(912.5,552.5) scale(3.4333333333333)"><rect width="6" height="6"/></g>
<g transform="translate(932.5,552.5) scale(3.4333333333333)"><rect width="6" height="6"/></g>
<g transform="translate(972.5,552.5) scale(3.4333333333333)"><rect width="6" height="6"/></g>
<g transform="translate(112.5,572.5) scale(3.4333333333333)"><rect width="6" height="6"/></g>
<g transform="translate(132.5,572.5) scale(3.4333333333333)"><rect width="6" height="6"/></g>
<g transform="translate(172.5,572.5) scale(3.4333333333333)"><rect width="6" height="6"/></g>
<g transform="translate(192.5,572.5) scale(3.4333333333333)"><rect width="6" height="6"/></g>
<g transform="translate(272.5,572.5) scale(3.4333333333333)"><rect width="6" height="6"/></g>
<g transform="translate(312.5,572.5) scale(3.4333333333333)"><rect width="6" height="6"/></g>
<g transform="translate(352.5,572.5) scale(3.4333333333333)"><rect width="6" height="6"/></g>
<g transform="translate(372.5,572.5) scale(3.4333333333333)"><rect width="6" height="6"/></g>
<g transform="translate(412.5,572.5) scale(3.4333333333333)"><rect width="6" height="6"/></g>
<g transform="translate(452.5,572.5) scale(3.4333333333333)"><rect width="6" height="6"/></g>
<g transform="translate(492.5,572.5) scale(3.4333333333333)"><rect width="6" height="6"/></g>
<g transform="translate(512.5,572.5) scale(3.4333333333333)"><rect width="6" height="6"/></g>
<g transform="translate(592.5,572.5) scale(3.4333333333333)"><rect width="6" height="6"/></g>
<g transform="translate(632.5,572.5) scale(3.4333333333333)"><rect width="6" height="6"/></g>
<g transform="translate(652.5,572.5) scale(3.4333333333333)"><rect width="6" height="6"/></g>
<g transform="translate(692.5,572.5) scale(3.4333333333333)"><rect width="6" height="6"/></g>
<g transform="translate(712.5,572.5) scale(3.4333333333333)"><rect width="6" height="6"/></g>
<g transform="translate(792.5,572.5) scale(3.4333333333333)"><rect width="6" height="6"/></g>
<g transform="translate(832.5,572.5) scale(3.4333333333333)"><rect width="6" height="6"/></g>
<g transform="translate(912.5,572.5) scale(3.4333333333333)"><rect width="6" height="6"/></g>
<g transform="translate(932.5,572.5) scale(3.4333333333333)"><rect width="6" height="6"/></g>
<g transform="translate(952.5,572.5) scale(3.4333333333333)"><rect width="6" height="6"/></g>
<g transform="translate(972.5,572.5) scale(3.4333333333333)"><rect width="6" height="6"/></g>
<g transform="translate(112.5,592.5) scale(3.4333333333333)"><rect width="6" height="6"/></g>
<g transform="translate(132.5,592.5) scale(3.4333333333333)"><rect width="6" height="6"/></g>
<g transform="translate(192.5,592.5) scale(3.4333333333333)"><rect width="6" height="6"/></g>
<g transform="translate(212.5,592.5) scale(3.4333333333333)"><rect width="6" height="6"/></g>
<g transform="translate(232.5,592.5) scale(3.4333333333333)"><rect width="6" height="6"/></g>
<g transform="translate(252.5,592.5) scale(3.4333333333333)"><rect width="6" height="6"/></g>
<g transform="translate(272.5,592.5) scale(3.4333333333333)"><rect width="6" height="6"/></g>
<g transform="translate(432.5,592.5) scale(3.4333333333333)"><rect width="6" height="6"/></g>
<g transform="translate(492.5,592.5) scale(3.4333333333333)"><rect width="6" height="6"/></g>
<g transform="translate(512.5,592.5) scale(3.4333333333333)"><rect width="6" height="6"/></g>
<g transform="translate(532.5,592.5) scale(3.4333333333333)"><rect width="6" height="6"/></g>
<g transform="translate(552.5,592.5) scale(3.4333333333333)"><rect width="6" height="6"/></g>
<g transform="translate(572.5,592.5) scale(3.4333333333333)"><rect width="6" height="6"/></g>
<g transform="translate(592.5,592.5) scale(3.4333333333333)"><rect width="6" height="6"/></g>
<g transform="translate(612.5,592.5) scale(3.4333333333333)"><rect width="6" height="6"/></g>
<g transform="translate(632.5,592.5) scale(3.4333333333333)"><rect width="6" height="6"/></g>
<g transform="translate(772.5,592.5) scale(3.4333333333333)"><rect width="6" height="6"/></g>
<g transform="translate(792.5,592.5) scale(3.4333333333333)"><rect width="6" height="6"/></g>
<g transform="translate(832.5,592.5) scale(3.4333333333333)"><rect width="6" height="6"/></g>
<g transform="translate(852.5,592.5) scale(3.4333333333333)"><rect width="6" height="6"/></g>
<g transform="translate(872.5,592.5) scale(3.4333333333333)"><rect width="6" height="6"/></g>
<g transform="translate(892.5,592.5) scale(3.4333333333333)"><rect width="6" height="6"/></g>
<g transform="translate(912.5,592.5) scale(3.4333333333333)"><rect width="6" height="6"/></g>
<g transform="translate(932.5,592.5) scale(3.4333333333333)"><rect width="6" height="6"/></g>
<g transform="translate(972.5,592.5) scale(3.4333333333333)"><rect width="6" height="6"/></g>
<g transform="translate(992.5,592.5) scale(3.4333333333333)"><rect width="6" height="6"/></g>
<g transform="translate(112.5,612.5) scale(3.4333333333333)"><rect width="6" height="6"/></g>
<g transform="translate(132.5,612.5) scale(3.4333333333333)"><rect width="6" height="6"/></g>
<g transform="translate(152.5,612.5) scale(3.4333333333333)"><rect width="6" height="6"/></g>
<g transform="translate(192.5,612.5) scale(3.4333333333333)"><rect width="6" height="6"/></g>
<g transform="translate(252.5,612.5) scale(3.4333333333333)"><rect width="6" height="6"/></g>
<g transform="translate(272.5,612.5) scale(3.4333333333333)"><rect width="6" height="6"/></g>
<g transform="translate(452.5,612.5) scale(3.4333333333333)"><rect width="6" height="6"/></g>
<g transform="translate(472.5,612.5) scale(3.4333333333333)"><rect width="6" height="6"/></g>
<g transform="translate(492.5,612.5) scale(3.4333333333333)"><rect width="6" height="6"/></g>
<g transform="translate(512.5,612.5) scale(3.4333333333333)"><rect width="6" height="6"/></g>
<g transform="translate(552.5,612.5) scale(3.4333333333333)"><rect width="6" height="6"/></g>
<g transform="translate(592.5,612.5) scale(3.4333333333333)"><rect width="6" height="6"/></g>
<g transform="translate(692.5,612.5) scale(3.4333333333333)"><rect width="6" height="6"/></g>
<g transform="translate(732.5,612.5) scale(3.4333333333333)"><rect width="6" height="6"/></g>
<g transform="translate(752.5,612.5) scale(3.4333333333333)"><rect width="6" height="6"/></g>
<g transform="translate(812.5,612.5) scale(3.4333333333333)"><rect width="6" height="6"/></g>
<g transform="translate(832.5,612.5) scale(3.4333333333333)"><rect width="6" height="6"/></g>
<g transform="translate(852.5,612.5) scale(3.4333333333333)"><rect width="6" height="6"/></g>
<g transform="translate(892.5,612.5) scale(3.4333333333333)"><rect width="6" height="6"/></g>
<g transform="translate(932.5,612.5) scale(3.4333333333333)"><rect width="6" height="6"/></g>
<g transform="translate(952.5,612.5) scale(3.4333333333333)"><rect width="6" height="6"/></g>
<g transform="translate(972.5,612.5) scale(3.4333333333333)"><rect width="6" height="6"/></g>
<g transform="translate(992.5,612.5) scale(3.4333333333333)"><rect width="6" height="6"/></g>
<g transform="translate(112.5,632.5) scale(3.4333333333333)"><rect width="6" height="6"/></g>
<g transform="translate(132.5,632.5) scale(3.4333333333333)"><rect width="6" height="6"/></g>
<g transform="translate(192.5,632.5) scale(3.4333333333333)"><rect width="6" height="6"/></g>
<g transform="translate(212.5,632.5) scale(3.4333333333333)"><rect width="6" height="6"/></g>
<g transform="translate(232.5,632.5) scale(3.4333333333333)"><rect width="6" height="6"/></g>
<g transform="translate(292.5,632.5) scale(3.4333333333333)"><rect width="6" height="6"/></g>
<g transform="translate(312.5,632.5) scale(3.4333333333333)"><rect width="6" height="6"/></g>
<g transform="translate(372.5,632.5) scale(3.4333333333333)"><rect width="6" height="6"/></g>
<g transform="translate(392.5,632.5) scale(3.4333333333333)"><rect width="6" height="6"/></g>
<g transform="translate(412.5,632.5) scale(3.4333333333333)"><rect width="6" height="6"/></g>
<g transform="translate(432.5,632.5) scale(3.4333333333333)"><rect width="6" height="6"/></g>
<g transform="translate(452.5,632.5) scale(3.4333333333333)"><rect width="6" height="6"/></g>
<g transform="translate(472.5,632.5) scale(3.4333333333333)"><rect width="6" height="6"/></g>
<g transform="translate(512.5,632.5) scale(3.4333333333333)"><rect width="6" height="6"/></g>
<g transform="translate(532.5,632.5) scale(3.4333333333333)"><rect width="6" height="6"/></g>
<g transform="translate(592.5,632.5) scale(3.4333333333333)"><rect width="6" height="6"/></g>
<g transform="translate(632.5,632.5) scale(3.4333333333333)"><rect width="6" height="6"/></g>
<g transform="translate(652.5,632.5) scale(3.4333333333333)"><rect width="6" height="6"/></g>
<g transform="translate(672.5,632.5) scale(3.4333333333333)"><rect width="6" height="6"/></g>
<g transform="translate(692.5,632.5) scale(3.4333333333333)"><rect width="6" height="6"/></g>
<g transform="translate(772.5,632.5) scale(3.4333333333333)"><rect width="6" height="6"/></g>
<g transform="translate(792.5,632.5) scale(3.4333333333333)"><rect width="6" height="6"/></g>
<g transform="translate(812.5,632.5) scale(3.4333333333333)"><rect width="6" height="6"/></g>
<g transform="translate(832.5,632.5) scale(3.4333333333333)"><rect width="6" height="6"/></g>
<g transform="translate(852.5,632.5) scale(3.4333333333333)"><rect width="6" height="6"/></g>
<g transform="translate(912.5,632.5) scale(3.4333333333333)"><rect width="6" height="6"/></g>
<g transform="translate(932.5,632.5) scale(3.4333333333333)"><rect width="6" height="6"/></g>
<g transform="translate(952.5,632.5) scale(3.4333333333333)"><rect width="6" height="6"/></g>
<g transform="translate(972.5,632.5) scale(3.4333333333333)"><rect width="6" height="6"/></g>
<g transform="translate(132.5,652.5) scale(3.4333333333333)"><rect width="6" height="6"/></g>
<g transform="translate(152.5,652.5) scale(3.4333333333333)"><rect width="6" height="6"/></g>
<g transform="translate(172.5,652.5) scale(3.4333333333333)"><rect width="6" height="6"/></g>
<g transform="translate(212.5,652.5) scale(3.4333333333333)"><rect width="6" height="6"/></g>
<g transform="translate(372.5,652.5) scale(3.4333333333333)"><rect width="6" height="6"/></g>
<g transform="translate(492.5,652.5) scale(3.4333333333333)"><rect width="6" height="6"/></g>
<g transform="translate(552.5,652.5) scale(3.4333333333333)"><rect width="6" height="6"/></g>
<g transform="translate(572.5,652.5) scale(3.4333333333333)"><rect width="6" height="6"/></g>
<g transform="translate(632.5,652.5) scale(3.4333333333333)"><rect width="6" height="6"/></g>
<g transform="translate(652.5,652.5) scale(3.4333333333333)"><rect width="6" height="6"/></g>
<g transform="translate(672.5,652.5) scale(3.4333333333333)"><rect width="6" height="6"/></g>
<g transform="translate(752.5,652.5) scale(3.4333333333333)"><rect width="6" height="6"/></g>
<g transform="translate(792.5,652.5) scale(3.4333333333333)"><rect width="6" height="6"/></g>
<g transform="translate(812.5,652.5) scale(3.4333333333333)"><rect width="6" height="6"/></g>
<g transform="translate(872.5,652.5) scale(3.4333333333333)"><rect width="6" height="6"/></g>
<g transform="translate(932.5,652.5) scale(3.4333333333333)"><rect width="6" height="6"/></g>
<g transform="translate(952.5,652.5) scale(3.4333333333333)"><rect width="6" height="6"/></g>
<g transform="translate(132.5,672.5) scale(3.4333333333333)"><rect width="6" height="6"/></g>
<g transform="translate(152.5,672.5) scale(3.4333333333333)"><rect width="6" height="6"/></g>
<g transform="translate(172.5,672.5) scale(3.4333333333333)"><rect width="6" height="6"/></g>
<g transform="translate(212.5,672.5) scale(3.4333333333333)"><rect width="6" height="6"/></g>
<g transform="translate(232.5,672.5) scale(3.4333333333333)"><rect width="6" height="6"/></g>
<g transform="translate(392.5,672.5) scale(3.4333333333333)"><rect width="6" height="6"/></g>
<g transform="translate(412.5,672.5) scale(3.4333333333333)"><rect width="6" height="6"/></g>
<g transform="translate(472.5,672.5) scale(3.4333333333333)"><rect width="6" height="6"/></g>
<g transform="translate(532.5,672.5) scale(3.4333333333333)"><rect width="6" height="6"/></g>
<g transform="translate(592.5,672.5) scale(3.4333333333333)"><rect width="6" height="6"/></g>
<g transform="translate(612.5,672.5) scale(3.4333333333333)"><rect width="6" height="6"/></g>
<g transform="translate(652.5,672.5) scale(3.4333333333333)"><rect width="6" height="6"/></g>
<g transform="translate(692.5,672.5) scale(3.4333333333333)"><rect width="6" height="6"/></g>
<g transform="translate(732.5,672.5) scale(3.4333333333333)"><rect width="6" height="6"/></g>
<g transform="translate(792.5,672.5) scale(3.4333333333333)"><rect width="6" height="6"/></g>
<g transform="translate(832.5,672.5) scale(3.4333333333333)"><rect width="6" height="6"/></g>
<g transform="translate(912.5,672.5) scale(3.4333333333333)"><rect width="6" height="6"/></g>
<g transform="translate(932.5,672.5) scale(3.4333333333333)"><rect width="6" height="6"/></g>
<g transform="translate(972.5,672.5) scale(3.4333333333333)"><rect width="6" height="6"/></g>
<g transform="translate(112.5,692.5) scale(3.4333333333333)"><rect width="6" height="6"/></g>
<g transform="translate(132.5,692.5) scale(3.4333333333333)"><rect width="6" height="6"/></g>
<g transform="translate(152.5,692.5) scale(3.4333333333333)"><rect width="6" height="6"/></g>
<g transform="translate(212.5,692.5) scale(3.4333333333333)"><rect width="6" height="6"/></g>
<g transform="translate(252.5,692.5) scale(3.4333333333333)"><rect width="6" height="6"/></g>
<g transform="translate(272.5,692.5) scale(3.4333333333333)"><rect width="6" height="6"/></g>
<g transform="translate(292.5,692.5) scale(3.4333333333333)"><rect width="6" height="6"/></g>
<g transform="translate(352.5,692.5) scale(3.4333333333333)"><rect width="6" height="6"/></g>
<g transform="translate(432.5,692.5) scale(3.4333333333333)"><rect width="6" height="6"/></g>
<g transform="translate(452.5,692.5) scale(3.4333333333333)"><rect width="6" height="6"/></g>
<g transform="translate(572.5,692.5) scale(3.4333333333333)"><rect width="6" height="6"/></g>
<g transform="translate(612.5,692.5) scale(3.4333333333333)"><rect width="6" height="6"/></g>
<g transform="translate(652.5,692.5) scale(3.4333333333333)"><rect width="6" height="6"/></g>
<g transform="translate(732.5,692.5) scale(3.4333333333333)"><rect width="6" height="6"/></g>
<g transform="translate(832.5,692.5) scale(3.4333333333333)"><rect width="6" height="6"/></g>
<g transform="translate(932.5,692.5) scale(3.4333333333333)"><rect width="6" height="6"/></g>
<g transform="translate(972.5,692.5) scale(3.4333333333333)"><rect width="6" height="6"/></g>
<g transform="translate(992.5,692.5) scale(3.4333333333333)"><rect width="6" height="6"/></g>
<g transform="translate(112.5,712.5) scale(3.4333333333333)"><rect width="6" height="6"/></g>
<g transform="translate(132.5,712.5) scale(3.4333333333333)"><rect width="6" height="6"/></g>
<g transform="translate(172.5,712.5) scale(3.4333333333333)"><rect width="6" height="6"/></g>
<g transform="translate(192.5,712.5) scale(3.4333333333333)"><rect width="6" height="6"/></g>
<g transform="translate(232.5,712.5) scale(3.4333333333333)"><rect width="6" height="6"/></g>
<g transform="translate(292.5,712.5) scale(3.4333333333333)"><rect width="6" height="6"/></g>
<g transform="translate(332.5,712.5) scale(3.4333333333333)"><rect width="6" height="6"/></g>
<g transform="translate(352.5,712.5) scale(3.4333333333333)"><rect width="6" height="6"/></g>
<g transform="translate(372.5,712.5) scale(3.4333333333333)"><rect width="6" height="6"/></g>
<g transform="translate(392.5,712.5) scale(3.4333333333333)"><rect width="6" height="6"/></g>
<g transform="translate(472.5,712.5) scale(3.4333333333333)"><rect width="6" height="6"/></g>
<g transform="translate(512.5,712.5) scale(3.4333333333333)"><rect width="6" height="6"/></g>
<g transform="translate(532.5,712.5) scale(3.4333333333333)"><rect width="6" height="6"/></g>
<g transform="translate(572.5,712.5) scale(3.4333333333333)"><rect width="6" height="6"/></g>
<g transform="translate(592.5,712.5) scale(3.4333333333333)"><rect width="6" height="6"/></g>
<g transform="translate(612.5,712.5) scale(3.4333333333333)"><rect width="6" height="6"/></g>
<g transform="translate(692.5,712.5) scale(3.4333333333333)"><rect width="6" height="6"/></g>
<g transform="translate(752.5,712.5) scale(3.4333333333333)"><rect width="6" height="6"/></g>
<g transform="translate(792.5,712.5) scale(3.4333333333333)"><rect width="6" height="6"/></g>
<g transform="translate(852.5,712.5) scale(3.4333333333333)"><rect width="6" height="6"/></g>
<g transform="translate(892.5,712.5) scale(3.4333333333333)"><rect width="6" height="6"/></g>
<g transform="translate(932.5,712.5) scale(3.4333333333333)"><rect width="6" height="6"/></g>
<g transform="translate(972.5,712.5) scale(3.4333333333333)"><rect width="6" height="6"/></g>
<g transform="translate(112.5,732.5) scale(3.4333333333333)"><rect width="6" height="6"/></g>
<g transform="translate(212.5,732.5) scale(3.4333333333333)"><rect width="6" height="6"/></g>
<g transform="translate(272.5,732.5) scale(3.4333333333333)"><rect width="6" height="6"/></g>
<g transform="translate(312.5,732.5) scale(3.4333333333333)"><rect width="6" height="6"/></g>
<g transform="translate(372.5,732.5) scale(3.4333333333333)"><rect width="6" height="6"/></g>
<g transform="translate(432.5,732.5) scale(3.4333333333333)"><rect width="6" height="6"/></g>
<g transform="translate(452.5,732.5) scale(3.4333333333333)"><rect width="6" height="6"/></g>
<g transform="translate(512.5,732.5) scale(3.4333333333333)"><rect width="6" height="6"/></g>
<g transform="translate(532.5,732.5) scale(3.4333333333333)"><rect width="6" height="6"/></g>
<g transform="translate(552.5,732.5) scale(3.4333333333333)"><rect width="6" height="6"/></g>
<g transform="translate(672.5,732.5) scale(3.4333333333333)"><rect width="6" height="6"/></g>
<g transform="translate(752.5,732.5) scale(3.4333333333333)"><rect width="6" height="6"/></g>
<g transform="translate(792.5,732.5) scale(3.4333333333333)"><rect width="6" height="6"/></g>
<g transform="translate(812.5,732.5) scale(3.4333333333333)"><rect width="6" height="6"/></g>
<g transform="translate(872.5,732.5) scale(3.4333333333333)"><rect width="6" height="6"/></g>
<g transform="translate(932.5,732.5) scale(3.4333333333333)"><rect width="6" height="6"/></g>
<g transform="translate(952.5,732.5) scale(3.4333333333333)"><rect width="6" height="6"/></g>
<g transform="translate(992.5,732.5) scale(3.4333333333333)"><rect width="6" height="6"/></g>
<g transform="translate(112.5,752.5) scale(3.4333333333333)"><rect width="6" height="6"/></g>
<g transform="translate(152.5,752.5) scale(3.4333333333333)"><rect width="6" height="6"/></g>
<g transform="translate(192.5,752.5) scale(3.4333333333333)"><rect width="6" height="6"/></g>
<g transform="translate(212.5,752.5) scale(3.4333333333333)"><rect width="6" height="6"/></g>
<g transform="translate(232.5,752.5) scale(3.4333333333333)"><rect width="6" height="6"/></g>
<g transform="translate(312.5,752.5) scale(3.4333333333333)"><rect width="6" height="6"/></g>
<g transform="translate(332.5,752.5) scale(3.4333333333333)"><rect width="6" height="6"/></g>
<g transform="translate(352.5,752.5) scale(3.4333333333333)"><rect width="6" height="6"/></g>
<g transform="translate(392.5,752.5) scale(3.4333333333333)"><rect width="6" height="6"/></g>
<g transform="translate(412.5,752.5) scale(3.4333333333333)"><rect width="6" height="6"/></g>
<g transform="translate(432.5,752.5) scale(3.4333333333333)"><rect width="6" height="6"/></g>
<g transform="translate(472.5,752.5) scale(3.4333333333333)"><rect width="6" height="6"/></g>
<g transform="translate(532.5,752.5) scale(3.4333333333333)"><rect width="6" height="6"/></g>
<g transform="translate(552.5,752.5) scale(3.4333333333333)"><rect width="6" height="6"/></g>
<g transform="translate(572.5,752.5) scale(3.4333333333333)"><rect width="6" height="6"/></g>
<g transform="translate(592.5,752.5) scale(3.4333333333333)"><rect width="6" height="6"/></g>
<g transform="translate(632.5,752.5) scale(3.4333333333333)"><rect width="6" height="6"/></g>
<g transform="translate(712.5,752.5) scale(3.4333333333333)"><rect width="6" height="6"/></g>
<g transform="translate(772.5,752.5) scale(3.4333333333333)"><rect width="6" height="6"/></g>
<g transform="translate(892.5,752.5) scale(3.4333333333333)"><rect width="6" height="6"/></g>
<g transform="translate(912.5,752.5) scale(3.4333333333333)"><rect width="6" height="6"/></g>
<g transform="translate(972.5,752.5) scale(3.4333333333333)"><rect width="6" height="6"/></g>
<g transform="translate(992.5,752.5) scale(3.4333333333333)"><rect width="6" height="6"/></g>
<g transform="translate(112.5,772.5) scale(3.4333333333333)"><rect width="6" height="6"/></g>
<g transform="translate(132.5,772.5) scale(3.4333333333333)"><rect width="6" height="6"/></g>
<g transform="translate(152.5,772.5) scale(3.4333333333333)"><rect width="6" height="6"/></g>
<g transform="translate(172.5,772.5) scale(3.4333333333333)"><rect width="6" height="6"/></g>
<g transform="translate(192.5,772.5) scale(3.4333333333333)"><rect width="6" height="6"/></g>
<g transform="translate(212.5,772.5) scale(3.4333333333333)"><rect width="6" height="6"/></g>
<g transform="translate(252.5,772.5) scale(3.4333333333333)"><rect width="6" height="6"/></g>
<g transform="translate(312.5,772.5) scale(3.4333333333333)"><rect width="6" height="6"/></g>
<g transform="translate(352.5,772.5) scale(3.4333333333333)"><rect width="6" height="6"/></g>
<g transform="translate(372.5,772.5) scale(3.4333333333333)"><rect width="6" height="6"/></g>
<g transform="translate(432.5,772.5) scale(3.4333333333333)"><rect width="6" height="6"/></g>
<g transform="translate(492.5,772.5) scale(3.4333333333333)"><rect width="6" height="6"/></g>
<g transform="translate(512.5,772.5) scale(3.4333333333333)"><rect width="6" height="6"/></g>
<g transform="translate(552.5,772.5) scale(3.4333333333333)"><rect width="6" height="6"/></g>
<g transform="translate(632.5,772.5) scale(3.4333333333333)"><rect width="6" height="6"/></g>
<g transform="translate(692.5,772.5) scale(3.4333333333333)"><rect width="6" height="6"/></g>
<g transform="translate(732.5,772.5) scale(3.4333333333333)"><rect width="6" height="6"/></g>
<g transform="translate(752.5,772.5) scale(3.4333333333333)"><rect width="6" height="6"/></g>
<g transform="translate(932.5,772.5) scale(3.4333333333333)"><rect width="6" height="6"/></g>
<g transform="translate(952.5,772.5) scale(3.4333333333333)"><rect width="6" height="6"/></g>
<g transform="translate(992.5,772.5) scale(3.4333333333333)"><rect width="6" height="6"/></g>
<g transform="translate(192.5,792.5) scale(3.4333333333333)"><rect width="6" height="6"/></g>
<g transform="translate(232.5,792.5) scale(3.4333333333333)"><rect width="6" height="6"/></g>
<g transform="translate(252.5,792.5) scale(3.4333333333333)"><rect width="6" height="6"/></g>
<g transform="translate(292.5,792.5) scale(3.4333333333333)"><rect width="6" height="6"/></g>
<g transform="translate(332.5,792.5) scale(3.4333333333333)"><rect width="6" height="6"/></g>
<g transform="translate(372.5,792.5) scale(3.4333333333333)"><rect width="6" height="6"/></g>
<g transform="translate(392.5,792.5) scale(3.4333333333333)"><rect width="6" height="6"/></g>
<g transform="translate(412.5,792.5) scale(3.4333333333333)"><rect width="6" height="6"/></g>
<g transform="translate(472.5,792.5) scale(3.4333333333333)"><rect width="6" height="6"/></g>
<g transform="translate(512.5,792.5) scale(3.4333333333333)"><rect width="6" height="6"/></g>
<g transform="translate(532.5,792.5) scale(3.4333333333333)"><rect width="6" height="6"/></g>
<g transform="translate(552.5,792.5) scale(3.4333333333333)"><rect width="6" height="6"/></g>
<g transform="translate(592.5,792.5) scale(3.4333333333333)"><rect width="6" height="6"/></g>
<g transform="translate(612.5,792.5) scale(3.4333333333333)"><rect width="6" height="6"/></g>
<g transform="translate(632.5,792.5) scale(3.4333333333333)"><rect width="6" height="6"/></g>
<g transform="translate(692.5,792.5) scale(3.4333333333333)"><rect width="6" height="6"/></g>
<g transform="translate(792.5,792.5) scale(3.4333333333333)"><rect width="6" height="6"/></g>
<g transform="translate(832.5,792.5) scale(3.4333333333333)"><rect width="6" height="6"/></g>
<g transform="translate(852.5,792.5) scale(3.4333333333333)"><rect width="6" height="6"/></g>
<g transform="translate(952.5,792.5) scale(3.4333333333333)"><rect width="6" height="6"/></g>
<g transform="translate(972.5,792.5) scale(3.4333333333333)"><rect width="6" height="6"/></g>
<g transform="translate(132.5,812.5) scale(3.4333333333333)"><rect width="6" height="6"/></g>
<g transform="translate(152.5,812.5) scale(3.4333333333333)"><rect width="6" height="6"/></g>
<g transform="translate(172.5,812.5) scale(3.4333333333333)"><rect width="6" height="6"/></g>
<g transform="translate(192.5,812.5) scale(3.4333333333333)"><rect width="6" height="6"/></g>
<g transform="translate(292.5,812.5) scale(3.4333333333333)"><rect width="6" height="6"/></g>
<g transform="translate(412.5,812.5) scale(3.4333333333333)"><rect width="6" height="6"/></g>
<g transform="translate(432.5,812.5) scale(3.4333333333333)"><rect width="6" height="6"/></g>
<g transform="translate(452.5,812.5) scale(3.4333333333333)"><rect width="6" height="6"/></g>
<g transform="translate(472.5,812.5) scale(3.4333333333333)"><rect width="6" height="6"/></g>
<g transform="translate(492.5,812.5) scale(3.4333333333333)"><rect width="6" height="6"/></g>
<g transform="translate(512.5,812.5) scale(3.4333333333333)"><rect width="6" height="6"/></g>
<g transform="translate(592.5,812.5) scale(3.4333333333333)"><rect width="6" height="6"/></g>
<g transform="translate(672.5,812.5) scale(3.4333333333333)"><rect width="6" height="6"/></g>
<g transform="translate(692.5,812.5) scale(3.4333333333333)"><rect width="6" height="6"/></g>
<g transform="translate(752.5,812.5) scale(3.4333333333333)"><rect width="6" height="6"/></g>
<g transform="translate(772.5,812.5) scale(3.4333333333333)"><rect width="6" height="6"/></g>
<g transform="translate(792.5,812.5) scale(3.4333333333333)"><rect width="6" height="6"/></g>
<g transform="translate(812.5,812.5) scale(3.4333333333333)"><rect width="6" height="6"/></g>
<g transform="translate(852.5,812.5) scale(3.4333333333333)"><rect width="6" height="6"/></g>
<g transform="translate(872.5,812.5) scale(3.4333333333333)"><rect width="6" height="6"/></g>
<g transform="translate(912.5,812.5) scale(3.4333333333333)"><rect width="6" height="6"/></g>
<g transform="translate(932.5,812.5) scale(3.4333333333333)"><rect width="6" height="6"/></g>
<g transform="translate(952.5,812.5) scale(3.4333333333333)"><rect width="6" height="6"/></g>
<g transform="translate(992.5,812.5) scale(3.4333333333333)"><rect width="6" height="6"/></g>
<g transform="translate(112.5,832.5) scale(3.4333333333333)"><rect width="6" height="6"/></g>
<g transform="translate(172.5,832.5) scale(3.4333333333333)"><rect width="6" height="6"/></g>
<g transform="translate(192.5,832.5) scale(3.4333333333333)"><rect width="6" height="6"/></g>
<g transform="translate(232.5,832.5) scale(3.4333333333333)"><rect width="6" height="6"/></g>
<g transform="translate(252.5,832.5) scale(3.4333333333333)"><rect width="6" height="6"/></g>
<g transform="translate(312.5,832.5) scale(3.4333333333333)"><rect width="6" height="6"/></g>
<g transform="translate(352.5,832.5) scale(3.4333333333333)"><rect width="6" height="6"/></g>
<g transform="translate(392.5,832.5) scale(3.4333333333333)"><rect width="6" height="6"/></g>
<g transform="translate(432.5,832.5) scale(3.4333333333333)"><rect width="6" height="6"/></g>
<g transform="translate(472.5,832.5) scale(3.4333333333333)"><rect width="6" height="6"/></g>
<g transform="translate(512.5,832.5) scale(3.4333333333333)"><rect width="6" height="6"/></g>
<g transform="translate(532.5,832.5) scale(3.4333333333333)"><rect width="6" height="6"/></g>
<g transform="translate(552.5,832.5) scale(3.4333333333333)"><rect width="6" height="6"/></g>
<g transform="translate(572.5,832.5) scale(3.4333333333333)"><rect width="6" height="6"/></g>
<g transform="translate(592.5,832.5) scale(3.4333333333333)"><rect width="6" height="6"/></g>
<g transform="translate(632.5,832.5) scale(3.4333333333333)"><rect width="6" height="6"/></g>
<g transform="translate(672.5,832.5) scale(3.4333333333333)"><rect width="6" height="6"/></g>
<g transform="translate(712.5,832.5) scale(3.4333333333333)"><rect width="6" height="6"/></g>
<g transform="translate(732.5,832.5) scale(3.4333333333333)"><rect width="6" height="6"/></g>
<g transform="translate(832.5,832.5) scale(3.4333333333333)"><rect width="6" height="6"/></g>
<g transform="translate(852.5,832.5) scale(3.4333333333333)"><rect width="6" height="6"/></g>
<g transform="translate(872.5,832.5) scale(3.4333333333333)"><rect width="6" height="6"/></g>
<g transform="translate(892.5,832.5) scale(3.4333333333333)"><rect width="6" height="6"/></g>
<g transform="translate(912.5,832.5) scale(3.4333333333333)"><rect width="6" height="6"/></g>
<g transform="translate(932.5,832.5) scale(3.4333333333333)"><rect width="6" height="6"/></g>
<g transform="translate(272.5,852.5) scale(3.4333333333333)"><rect width="6" height="6"/></g>
<g transform="translate(292.5,852.5) scale(3.4333333333333)"><rect width="6" height="6"/></g>
<g transform="translate(312.5,852.5) scale(3.4333333333333)"><rect width="6" height="6"/></g>
<g transform="translate(372.5,852.5) scale(3.4333333333333)"><rect width="6" height="6"/></g>
<g transform="translate(452.5,852.5) scale(3.4333333333333)"><rect width="6" height="6"/></g>
<g transform="translate(512.5,852.5) scale(3.4333333333333)"><rect width="6" height="6"/></g>
<g transform="translate(592.5,852.5) scale(3.4333333333333)"><rect width="6" height="6"/></g>
<g transform="translate(612.5,852.5) scale(3.4333333333333)"><rect width="6" height="6"/></g>
<g transform="translate(632.5,852.5) scale(3.4333333333333)"><rect width="6" height="6"/></g>
<g transform="translate(672.5,852.5) scale(3.4333333333333)"><rect width="6" height="6"/></g>
<g transform="translate(692.5,852.5) scale(3.4333333333333)"><rect width="6" height="6"/></g>
<g transform="translate(812.5,852.5) scale(3.4333333333333)"><rect width="6" height="6"/></g>
<g transform="translate(832.5,852.5) scale(3.4333333333333)"><rect width="6" height="6"/></g>
<g transform="translate(912.5,852.5) scale(3.4333333333333)"><rect width="6" height="6"/></g>
<g transform="translate(952.5,852.5) scale(3.4333333333333)"><rect width="6" height="6"/></g>
<g transform="translate(992.5,852.5) scale(3.4333333333333)"><rect width="6" height="6"/></g>
<g transform="translate(412.5,872.5) scale(3.4333333333333)"><rect width="6" height="6"/></g>
<g transform="translate(432.5,872.5) scale(3.4333333333333)"><rect width="6" height="6"/></g>
<g transform="translate(472.5,872.5) scale(3.4333333333333)"><rect width="6" height="6"/></g>
<g transform="translate(512.5,872.5) scale(3.4333333333333)"><rect width="6" height="6"/></g>
<g transform="translate(552.5,872.5) scale(3.4333333333333)"><rect width="6" height="6"/></g>
<g transform="translate(592.5,872.5) scale(3.4333333333333)"><rect width="6" height="6"/></g>
<g transform="translate(612.5,872.5) scale(3.4333333333333)"><rect width="6" height="6"/></g>
<g transform="translate(632.5,872.5) scale(3.4333333333333)"><rect width="6" height="6"/></g>
<g transform="translate(652.5,872.5) scale(3.4333333333333)"><rect width="6" height="6"/></g>
<g transform="translate(712.5,872.5) scale(3.4333333333333)"><rect width="6" height="6"/></g>
<g transform="translate(732.5,872.5) scale(3.4333333333333)"><rect width="6" height="6"/></g>
<g transform="translate(772.5,872.5) scale(3.4333333333333)"><rect width="6" height="6"/></g>
<g transform="translate(792.5,872.5) scale(3.4333333333333)"><rect width="6" height="6"/></g>
<g transform="translate(832.5,872.5) scale(3.4333333333333)"><rect width="6" height="6"/></g>
<g transform="translate(872.5,872.5) scale(3.4333333333333)"><rect width="6" height="6"/></g>
<g transform="translate(912.5,872.5) scale(3.4333333333333)"><rect width="6" height="6"/></g>
<g transform="translate(312.5,892.5) scale(3.4333333333333)"><rect width="6" height="6"/></g>
<g transform="translate(332.5,892.5) scale(3.4333333333333)"><rect width="6" height="6"/></g>
<g transform="translate(372.5,892.5) scale(3.4333333333333)"><rect width="6" height="6"/></g>
<g transform="translate(472.5,892.5) scale(3.4333333333333)"><rect width="6" height="6"/></g>
<g transform="translate(492.5,892.5) scale(3.4333333333333)"><rect width="6" height="6"/></g>
<g transform="translate(512.5,892.5) scale(3.4333333333333)"><rect width="6" height="6"/></g>
<g transform="translate(592.5,892.5) scale(3.4333333333333)"><rect width="6" height="6"/></g>
<g transform="translate(632.5,892.5) scale(3.4333333333333)"><rect width="6" height="6"/></g>
<g transform="translate(652.5,892.5) scale(3.4333333333333)"><rect width="6" height="6"/></g>
<g transform="translate(692.5,892.5) scale(3.4333333333333)"><rect width="6" height="6"/></g>
<g transform="translate(732.5,892.5) scale(3.4333333333333)"><rect width="6" height="6"/></g>
<g transform="translate(752.5,892.5) scale(3.4333333333333)"><rect width="6" height="6"/></g>
<g transform="translate(772.5,892.5) scale(3.4333333333333)"><rect width="6" height="6"/></g>
<g transform="translate(832.5,892.5) scale(3.4333333333333)"><rect width="6" height="6"/></g>
<g transform="translate(912.5,892.5) scale(3.4333333333333)"><rect width="6" height="6"/></g>
<g transform="translate(932.5,892.5) scale(3.4333333333333)"><rect width="6" height="6"/></g>
<g transform="translate(952.5,892.5) scale(3.4333333333333)"><rect width="6" height="6"/></g>
<g transform="translate(272.5,912.5) scale(3.4333333333333)"><rect width="6" height="6"/></g>
<g transform="translate(292.5,912.5) scale(3.4333333333333)"><rect width="6" height="6"/></g>
<g transform="translate(312.5,912.5) scale(3.4333333333333)"><rect width="6" height="6"/></g>
<g transform="translate(332.5,912.5) scale(3.4333333333333)"><rect width="6" height="6"/></g>
<g transform="translate(352.5,912.5) scale(3.4333333333333)"><rect width="6" height="6"/></g>
<g transform="translate(372.5,912.5) scale(3.4333333333333)"><rect width="6" height="6"/></g>
<g transform="translate(392.5,912.5) scale(3.4333333333333)"><rect width="6" height="6"/></g>
<g transform="translate(452.5,912.5) scale(3.4333333333333)"><rect width="6" height="6"/></g>
<g transform="translate(492.5,912.5) scale(3.4333333333333)"><rect width="6" height="6"/></g>
<g transform="translate(512.5,912.5) scale(3.4333333333333)"><rect width="6" height="6"/></g>
<g transform="translate(532.5,912.5) scale(3.4333333333333)"><rect width="6" height="6"/></g>
<g transform="translate(552.5,912.5) scale(3.4333333333333)"><rect width="6" height="6"/></g>
<g transform="translate(572.5,912.5) scale(3.4333333333333)"><rect width="6" height="6"/></g>
<g transform="translate(592.5,912.5) scale(3.4333333333333)"><rect width="6" height="6"/></g>
<g transform="translate(632.5,912.5) scale(3.4333333333333)"><rect width="6" height="6"/></g>
<g transform="translate(672.5,912.5) scale(3.4333333333333)"><rect width="6" height="6"/></g>
<g transform="translate(692.5,912.5) scale(3.4333333333333)"><rect width="6" height="6"/></g>
<g transform="translate(712.5,912.5) scale(3.4333333333333)"><rect width="6" height="6"/></g>
<g transform="translate(772.5,912.5) scale(3.4333333333333)"><rect width="6" height="6"/></g>
<g transform="translate(792.5,912.5) scale(3.4333333333333)"><rect width="6" height="6"/></g>
<g transform="translate(832.5,912.5) scale(3.4333333333333)"><rect width="6" height="6"/></g>
<g transform="translate(852.5,912.5) scale(3.4333333333333)"><rect width="6" height="6"/></g>
<g transform="translate(872.5,912.5) scale(3.4333333333333)"><rect width="6" height="6"/></g>
<g transform="translate(892.5,912.5) scale(3.4333333333333)"><rect width="6" height="6"/></g>
<g transform="translate(912.5,912.5) scale(3.4333333333333)"><rect width="6" height="6"/></g>
<g transform="translate(972.5,912.5) scale(3.4333333333333)"><rect width="6" height="6"/></g>
<g transform="translate(272.5,932.5) scale(3.4333333333333)"><rect width="6" height="6"/></g>
<g transform="translate(332.5,932.5) scale(3.4333333333333)"><rect width="6" height="6"/></g>
<g transform="translate(352.5,932.5) scale(3.4333333333333)"><rect width="6" height="6"/></g>
<g transform="translate(392.5,932.5) scale(3.4333333333333)"><rect width="6" height="6"/></g>
<g transform="translate(452.5,932.5) scale(3.4333333333333)"><rect width="6" height="6"/></g>
<g transform="translate(532.5,932.5) scale(3.4333333333333)"><rect width="6" height="6"/></g>
<g transform="translate(612.5,932.5) scale(3.4333333333333)"><rect width="6" height="6"/></g>
<g transform="translate(652.5,932.5) scale(3.4333333333333)"><rect width="6" height="6"/></g>
<g transform="translate(672.5,932.5) scale(3.4333333333333)"><rect width="6" height="6"/></g>
<g transform="translate(712.5,932.5) scale(3.4333333333333)"><rect width="6" height="6"/></g>
<g transform="translate(732.5,932.5) scale(3.4333333333333)"><rect width="6" height="6"/></g>
<g transform="translate(752.5,932.5) scale(3.4333333333333)"><rect width="6" height="6"/></g>
<g transform="translate(892.5,932.5) scale(3.4333333333333)"><rect width="6" height="6"/></g>
<g transform="translate(912.5,932.5) scale(3.4333333333333)"><rect width="6" height="6"/></g>
<g transform="translate(952.5,932.5) scale(3.4333333333333)"><rect width="6" height="6"/></g>
<g transform="translate(972.5,932.5) scale(3.4333333333333)"><rect width="6" height="6"/></g>
<g transform="translate(992.5,932.5) scale(3.4333333333333)"><rect width="6" height="6"/></g>
<g transform="translate(272.5,952.5) scale(3.4333333333333)"><rect width="6" height="6"/></g>
<g transform="translate(312.5,952.5) scale(3.4333333333333)"><rect width="6" height="6"/></g>
<g transform="translate(332.5,952.5) scale(3.4333333333333)"><rect width="6" height="6"/></g>
<g transform="translate(372.5,952.5) scale(3.4333333333333)"><rect width="6" height="6"/></g>
<g transform="translate(432.5,952.5) scale(3.4333333333333)"><rect width="6" height="6"/></g>
<g transform="translate(512.5,952.5) scale(3.4333333333333)"><rect width="6" height="6"/></g>
<g transform="translate(572.5,952.5) scale(3.4333333333333)"><rect width="6" height="6"/></g>
<g transform="translate(632.5,952.5) scale(3.4333333333333)"><rect width="6" height="6"/></g>
<g transform="translate(692.5,952.5) scale(3.4333333333333)"><rect width="6" height="6"/></g>
<g transform="translate(712.5,952.5) scale(3.4333333333333)"><rect width="6" height="6"/></g>
<g transform="translate(732.5,952.5) scale(3.4333333333333)"><rect width="6" height="6"/></g>
<g transform="translate(772.5,952.5) scale(3.4333333333333)"><rect width="6" height="6"/></g>
<g transform="translate(792.5,952.5) scale(3.4333333333333)"><rect width="6" height="6"/></g>
<g transform="translate(812.5,952.5) scale(3.4333333333333)"><rect width="6" height="6"/></g>
<g transform="translate(832.5,952.5) scale(3.4333333333333)"><rect width="6" height="6"/></g>
<g transform="translate(852.5,952.5) scale(3.4333333333333)"><rect width="6" height="6"/></g>
<g transform="translate(872.5,952.5) scale(3.4333333333333)"><rect width="6" height="6"/></g>
<g transform="translate(932.5,952.5) scale(3.4333333333333)"><rect width="6" height="6"/></g>
<g transform="translate(312.5,972.5) scale(3.4333333333333)"><rect width="6" height="6"/></g>
<g transform="translate(332.5,972.5) scale(3.4333333333333)"><rect width="6" height="6"/></g>
<g transform="translate(352.5,972.5) scale(3.4333333333333)"><rect width="6" height="6"/></g>
<g transform="translate(372.5,972.5) scale(3.4333333333333)"><rect width="6" height="6"/></g>
<g transform="translate(432.5,972.5) scale(3.4333333333333)"><rect width="6" height="6"/></g>
<g transform="translate(592.5,972.5) scale(3.4333333333333)"><rect width="6" height="6"/></g>
<g transform="translate(612.5,972.5) scale(3.4333333333333)"><rect width="6" height="6"/></g>
<g transform="translate(632.5,972.5) scale(3.4333333333333)"><rect width="6" height="6"/></g>
<g transform="translate(692.5,972.5) scale(3.4333333333333)"><rect width="6" height="6"/></g>
<g transform="translate(712.5,972.5) scale(3.4333333333333)"><rect width="6" height="6"/></g>
<g transform="translate(732.5,972.5) scale(3.4333333333333)"><rect width="6" height="6"/></g>
<g transform="translate(752.5,972.5) scale(3.4333333333333)"><rect width="6" height="6"/></g>
<g transform="translate(832.5,972.5) scale(3.4333333333333)"><rect width="6" height="6"/></g>
<g transform="translate(892.5,972.5) scale(3.4333333333333)"><rect width="6" height="6"/></g>
<g transform="translate(912.5,972.5) scale(3.4333333333333)"><rect width="6" height="6"/></g>
<g transform="translate(932.5,972.5) scale(3.4333333333333)"><rect width="6" height="6"/></g>
<g transform="translate(952.5,972.5) scale(3.4333333333333)"><rect width="6" height="6"/></g>
<g transform="translate(292.5,992.5) scale(3.4333333333333)"><rect width="6" height="6"/></g>
<g transform="translate(332.5,992.5) scale(3.4333333333333)"><rect width="6" height="6"/></g>
<g transform="translate(392.5,992.5) scale(3.4333333333333)"><rect width="6" height="6"/></g>
<g transform="translate(472.5,992.5) scale(3.4333333333333)"><rect width="6" height="6"/></g>
<g transform="translate(492.5,992.5) scale(3.4333333333333)"><rect width="6" height="6"/></g>
<g transform="translate(512.5,992.5) scale(3.4333333333333)"><rect width="6" height="6"/></g>
<g transform="translate(532.5,992.5) scale(3.4333333333333)"><rect width="6" height="6"/></g>
<g transform="translate(552.5,992.5) scale(3.4333333333333)"><rect width="6" height="6"/></g>
<g transform="translate(572.5,992.5) scale(3.4333333333333)"><rect width="6" height="6"/></g>
<g transform="translate(592.5,992.5) scale(3.4333333333333)"><rect width="6" height="6"/></g>
<g transform="translate(612.5,992.5) scale(3.4333333333333)"><rect width="6" height="6"/></g>
<g transform="translate(652.5,992.5) scale(3.4333333333333)"><rect width="6" height="6"/></g>
<g transform="translate(672.5,992.5) scale(3.4333333333333)"><rect width="6" height="6"/></g>
<g transform="translate(732.5,992.5) scale(3.4333333333333)"><rect width="6" height="6"/></g>
<g transform="translate(792.5,992.5) scale(3.4333333333333)"><rect width="6" height="6"/></g>
<g transform="translate(852.5,992.5) scale(3.4333333333333)"><rect width="6" height="6"/></g>
<g transform="translate(872.5,992.5) scale(3.4333333333333)"><rect width="6" height="6"/></g>
<g transform="translate(892.5,992.5) scale(3.4333333333333)"><rect width="6" height="6"/></g>
<g transform="translate(972.5,992.5) scale(3.4333333333333)"><rect width="6" height="6"/></g>
<g transform="translate(112.5,112.5)"><g transform="scale(10)"><path d="M0,0v14h14V0H0z M12,12H2V2h10V12z"/></g></g>
<g transform="translate(872.5,112.5)"><g transform="scale(10)"><path d="M0,0v14h14V0H0z M12,12H2V2h10V12z"/></g></g>
<g transform="translate(112.5,872.5)"><g transform="scale(10)"><path d="M0,0v14h14V0H0z M12,12H2V2h10V12z"/></g></g>
<g transform="translate(152.5,152.5)"><g transform="scale(10)"><rect width="6" height="6"/></g></g>
<g transform="translate(912.5,152.5)"><g transform="scale(10)"><rect width="6" height="6"/></g></g>
<g transform="translate(152.5,912.5)"><g transform="scale(10)"><rect width="6" height="6"/></g></g>
</g><g transform="translate(112.5,56.260413773952) scale(0.62482643710081)"><path fill="#FFFFFF" d="M52,47.3q1.9-0.6,4.8-0.6t4.6,0.5t2.6,1.2t1.4,2q0.5,1.7,0.5,5.2l0,55.5q0,2.3-0.15,3.45t-0.95,2.65q-1.4,2.7-7.8,2.7q-7,0-8.2-3.7q-0.6-1.7-0.6-5.2l0-20.3l-26.5,0l0,20.4q0,2.3-0.15,3.45t-0.95,2.65q-1.4,2.7-7.8,2.7q-7,0-8.2-3.7q-0.6-1.7-0.6-5.2l0-55.5q0-2.3,0.15-3.45t0.95-2.65q1.4-2.7,7.8-2.7q7,0,8.3,3.7q0.5,1.7,0.5,5.2l0,20.4l26.5,0l0-20.5q0-2.3,0.15-3.45t0.95-2.65t2.7-2.1z M121.65,96.45q-3.05,2.95-6.75,2.95l-23.7,0q0,2.8,3.3,4.7t6.6,1.9q5.8,0,9.1-1.2l1.1-0.4q2.4-1.1,4-1.1q3.2,0,5.5,4.5q1.3,2.7,1.3,4.6q0,8.9-21.3,8.9q-7.4,0-13.15-2.55t-8.95-6.75q-6.3-8.1-6.3-18.1q0-12.6,8.15-20.15t20.35-7.55q13.9,0,20.4,9.8q3.4,5.2,3.4,11.35t-3.05,9.1z M103.6,90.3q3.8,0,3.8-3.2q0-2.3-1.75-3.7t-5-1.4t-6.45,2.65t-3.2,5.65l12.6,0z M165.4,72.9q0.6-5.6,7.9-5.6q3.9,0,5.8,0.6t2.65,2.1t0.9,2.65t0.15,3.45l0,35q0,2.3-0.15,3.45t-0.85,2.65q-1.4,2.6-6.85,2.6t-7.3-1.35t-2.15-3.95q-3.7,5.3-12.35,5.3t-16.05-7.9t-7.4-18.35t7.45-18.3t16.35-7.85q3.4,0,6.2,1.2t3.9,2.25t1.8,2.05z M149.8,99.65q2.6,2.65,6.3,2.65t6.15-2.7t2.45-5.95t-2.35-6.05t-6.3-2.8t-6.4,2.8t-2.45,6.1t2.6,5.95z M190.8,51.3q0-2.3,0.15-3.45t0.85-2.65q1.4-2.7,7.8-2.7q6.1,0,7.6,2.7q0.8,1.5,0.95,2.7t0.15,3.5l0,46.3q0,3.6,0.6,4.55t2.65,0.95t2.75,0.15t1.7,0.85q2,1.3,2,7.1q0,6.3-2,7.7q-2.6,1.8-12.4,0.6q-7.7-1-10-5.1q-2.8-4.9-2.8-15.6l0-47.6z M254.1,85l-6.5-0.4l0,13.8q0,2.7,0.85,3.9t3.2,1.2t3.6,0.15t2.65,0.95q2.3,1.3,2.3,6.7q0,6.3-2.8,7.7q-1.5,0.7-2.65,0.85t-3.35,0.15q-10.4,0-15.8-4.7t-5.4-15.9l0-14.8q-1.9,0.3-4.1,0.3t-3.65-1.7t-1.45-5.8t0.5-5.95t1.4-2.65q1.6-1.3,4-1.3l3.3,0.4l0-10.3q0-2.3,0.15-3.4t0.95-2.4q1.3-2.5,7.7-2.5q6.8,0,8.1,3.7q0.5,1.6,0.5,5.1l0,9.8q4.4-0.4,6.65-0.4t3.4,0.15t2.65,0.95q2.6,1.3,2.6,7.7q0,6.3-2.7,7.7q-1.5,0.7-2.65,0.85t-3.45,0.15z M297.6,67.5q10,0,16.65,7.6t6.65,18.6l0,17.6q0,2.3-0.15,3.45t-0.95,2.65q-1.3,2.6-7.7,2.6q-6.1,0-7.6-2.6q-0.8-1.5-0.95-2.7t-0.15-3.6l0-17.5q0-4.1-2.3-6.4t-5.85-2.3t-6.25,2.15t-3.1,4.85l0,19.4q0,2.3-0.15,3.45t-0.95,2.65q-1.3,2.6-7.7,2.6q-6.3,0-7.7-2.7q-0.7-1.5-0.85-2.6t-0.15-3.5l0-59.8q0-2.3,0.15-3.45t0.85-2.55q1.4-2.7,7.8-2.7q6.3,0,7.6,2.7q0.8,1.5,0.95,2.65t0.15,3.45l0,22.1q5-6.1,11.7-6.1z M358.4,106.1l-23.8,0q-5.6,0-6.7-3.4q-0.5-1.8-0.5-4.6t0.6-4.5t1.9-2.4q1.8-0.9,4.8-0.9l23.8,0q5.6,0,6.6,3.3q0.6,1.8,0.6,4.6t-0.55,4.55t-1.75,2.45q-1.8,0.9-5,0.9z M428.3,107.6q1.5,3.6,1.5,5.2q0,3.8-6.2,6.4q-3.2,1.4-5.15,1.4t-3.2-0.95t-1.85-1.95q-1-1.9-7.8-18.1l-3.1,0.2l-12.6,0l0,11.3q0,2.3-0.15,3.45t-0.95,2.65q-1.4,2.7-7.8,2.7q-7,0-8.2-3.7q-0.6-1.7-0.6-5.2l0-55.5q0-2.3,0.15-3.45t0.95-2.65q1.4-2.7,7.8-2.7l21.6,0q8.8,0,17.1,6.4q4,3.1,6.6,8.4t2.6,11.8q0,11.3-7.5,18.6q2.2,5.3,6.8,15.7z M389.9,82.1l12.8,0q2.9,0,5.8-2.2t2.9-6.6t-2.9-6.65t-6-2.25l-12.6,0l0,17.7z M435.3,55.5q0-2.3,0.15-3.45t0.95-2.65q1.4-2.7,7.8-2.7q7,0,8.3,3.7q0.5,1.7,0.5,5.2l0,55.6q0,2.4-0.15,3.5t-0.95,2.6q-1.4,2.7-7.8,2.7q-7,0-8.2-3.8q-0.6-1.6-0.6-5.1l0-55.6z  M487.4,109.7q-2.6-3.2-2.6-5.75t4.3-6.75q2.5-2.4,5.3-2.4t7.8,5q1.4,1.7,4,3.25t4.8,1.55q9.3,0,9.3-7.6q0-2.3-2.55-3.85t-6.35-2.25t-8.2-2.25t-8.2-3.65t-6.35-6.65t-2.55-10.95q0-8.8,6.55-15.35t17.85-6.55q6,0,10.95,1.55t6.85,3.15l2.5,1.9q3.1,2.9,3.1,4.9t-2.4,5.5q-3.4,5-7,5q-2.1,0-5.2-2q-0.3-0.2-1.15-1t-1.55-1.3q-2.1-1.3-5.35-1.3t-5.4,1.55t-2.15,4.3t2.55,4.45t6.35,2.3t8.3,1.85t8.3,3.05t6.35,6.25t2.55,10.95t-2.6,11.45t-6.8,7.65q-8.1,5.3-17.3,5.3q-4.7,0-8.9-1.15t-6.8-2.85q-5.3-3.2-7.4-6.2z M545.7,109.7q-2.6-3.2-2.6-5.75t4.3-6.75q2.5-2.4,5.3-2.4t7.8,5q1.4,1.7,4,3.25t4.8,1.55q9.3,0,9.3-7.6q0-2.3-2.55-3.85t-6.35-2.25t-8.2-2.25t-8.2-3.65t-6.35-6.65t-2.55-10.95q0-8.8,6.55-15.35t17.85-6.55q6,0,10.95,1.55t6.85,3.15l2.5,1.9q3.1,2.9,3.1,4.9t-2.4,5.5q-3.4,5-7,5q-2.1,0-5.2-2q-0.3-0.2-1.15-1t-1.55-1.3q-2.1-1.3-5.35-1.3t-5.4,1.55t-2.15,4.3t2.55,4.45t6.35,2.3t8.3,1.85t8.3,3.05t6.35,6.25t2.55,10.95t-2.6,11.45t-6.8,7.65q-8.1,5.3-17.3,5.3q-4.7,0-8.9-1.15t-6.8-2.85q-5.3-3.2-7.4-6.2z M604,109.7q-2.6-3.2-2.6-5.75t4.3-6.75q2.5-2.4,5.3-2.4t7.8,5q1.4,1.7,4,3.25t4.8,1.55q9.3,0,9.3-7.6q0-2.3-2.55-3.85t-6.35-2.25t-8.2-2.25t-8.2-3.65t-6.35-6.65t-2.55-10.95q0-8.8,6.55-15.35t17.85-6.55q6,0,10.95,1.55t6.85,3.15l2.5,1.9q3.1,2.9,3.1,4.9t-2.4,5.5q-3.4,5-7,5q-2.1,0-5.2-2q-0.3-0.2-1.15-1t-1.55-1.3q-2.1-1.3-5.35-1.3t-5.4,1.55t-2.15,4.3t2.55,4.45t6.35,2.3t8.3,1.85t8.3,3.05t6.35,6.25t2.55,10.95t-2.6,11.45t-6.8,7.65q-8.1,5.3-17.3,5.3q-4.7,0-8.9-1.15t-6.8-2.85q-5.3-3.2-7.4-6.2z M695.6,45.8q14.8,0,25.7,10.7t10.9,26.55t-10.4,27t-25.6,11.15t-25.85-11t-10.65-26.2q0-8.3,3-15.55t8-12.15t11.5-7.7t13.4-2.8z M683.15,97.95q5.75,5.55,12.85,5.55t12.8-5.4t5.7-14.5t-5.75-14.6t-12.85-5.5t-12.8,5.55t-5.7,14.45t5.75,14.45z M816.6,49.5q0.8,1.5,0.95,2.7t0.15,3.5l0,55.5q0,6.9-3.8,8.1q-1.9,0.6-4.8,0.6t-4.6-0.5t-2.6-1.2t-1.4-2q-0.5-1.7-0.5-5.2l0-33.5q-2.5,3.1-7.3,9.85t-6.1,8.45t-1.8,2.35t-2.45,1.8t-4.2,1.15t-4.1-1.05t-2.65-2.05l-0.8-1.1q-2-2.5-7.9-10.65t-6.4-8.75l0,33.7q0,2.3-0.15,3.45t-0.95,2.55q-1.5,2.7-7.8,2.7q-6.1,0-7.6-2.7q-0.8-1.4-0.95-2.6t-0.15-3.6l0-55.5q0-2.3,0.15-3.45t0.95-2.65q1.5-2.6,7.8-2.6q2.7,0,4.65,0.65t2.55,1.35l0.6,0.6l22.7,29.8q17-22.5,22.7-29.7q1.7-2.7,8.05-2.7t7.75,2.7z  M928.9,49.5q0.8,1.5,0.95,2.7t0.15,3.5l0,55.5q0,6.9-3.8,8.1q-1.9,0.6-4.8,0.6t-4.6-0.5t-2.6-1.2t-1.4-2q-0.5-1.7-0.5-5.2l0-33.5q-2.5,3.1-7.3,9.85t-6.1,8.45t-1.8,2.35t-2.45,1.8t-4.2,1.15t-4.1-1.05t-2.65-2.05l-0.8-1.1q-2-2.5-7.9-10.65t-6.4-8.75l0,33.7q0,2.3-0.15,3.45t-0.95,2.55q-1.5,2.7-7.8,2.7q-6.1,0-7.6-2.7q-0.8-1.4-0.95-2.6t-0.15-3.6l0-55.5q0-2.3,0.15-3.45t0.95-2.65q1.5-2.6,7.8-2.6q2.7,0,4.65,0.65t2.55,1.35l0.6,0.6l22.7,29.8q17-22.5,22.7-29.7q1.7-2.7,8.05-2.7t7.75,2.7z M972.2,72.9q0.6-5.6,7.9-5.6q3.9,0,5.8,0.6t2.65,2.1t0.9,2.65t0.15,3.45l0,35q0,2.3-0.15,3.45t-0.85,2.65q-1.4,2.6-6.85,2.6t-7.3-1.35t-2.15-3.95q-3.7,5.3-12.35,5.3t-16.05-7.9t-7.4-18.35t7.45-18.3t16.35-7.85q3.4,0,6.2,1.2t3.9,2.25t1.8,2.05z M956.6,99.65q2.6,2.65,6.3,2.65t6.15-2.7t2.45-5.95t-2.35-6.05t-6.3-2.8t-6.4,2.8t-2.45,6.1t2.6,5.95z M997.6,134.3l0-58.4q0-2.3,0.15-3.4t0.85-2.5q1.4-2.7,6.7-2.7t7.15,1.35t2.15,3.95q3.8-5.2,11.95-5.2t15.45,7.7t7.3,17.9t-7.25,17.9t-15.45,7.7t-11.9-4.6l0,20.2q0,2.3-0.15,3.4t-0.9,2.55t-2.55,2.05t-4.9,0.6t-4.95-0.6t-2.6-2t-0.9-2.5t-0.15-3.4z M1015.1,93.1q0,3.2,2.35,5.85t6,2.65t6.2-2.6t2.55-5.9t-2.4-5.95t-6.25-2.65t-6.15,2.7t-2.3,5.9z M1055.8,134.3l0-58.4q0-2.3,0.15-3.4t0.85-2.5q1.4-2.7,6.7-2.7t7.15,1.35t2.15,3.95q3.8-5.2,11.95-5.2t15.45,7.7t7.3,17.9t-7.25,17.9t-15.45,7.7t-11.9-4.6l0,20.2q0,2.3-0.15,3.4t-0.9,2.55t-2.55,2.05t-4.9,0.6t-4.95-0.6t-2.6-2t-0.9-2.5t-0.15-3.4z M1073.3,93.1q0,3.2,2.35,5.85t6,2.65t6.2-2.6t2.55-5.9t-2.4-5.95t-6.25-2.65t-6.15,2.7t-2.3,5.9z M1114,76.1q0-2.3,0.15-3.45t0.85-2.65q1.4-2.6,7.8-2.6q4.8,0,6.8,1.7q1.7,1.4,1.8,4.3q0.1,1,0.1,2.9l0,35q0,2.3-0.15,3.45t-0.95,2.65q-1.3,2.6-7.7,2.6q-6.3,0-7.7-2.7q-0.7-1.5-0.85-2.6t-0.15-3.5l0-35.1z M1127.8,59.6q-1.9,0.6-5.05,0.6t-5.05-0.6t-2.65-2.1t-0.9-2.65t-0.15-3.45t0.15-3.45t0.85-2.55q1.4-2.7,7.8-2.7q6.3,0,7.6,2.7q0.8,1.5,0.95,2.65t0.15,3.45t-0.15,3.45t-0.9,2.6t-2.65,2.05z M1168.8,67.3q10,0,16.65,7.65t6.65,18.65l0,17.6q0,2.3-0.15,3.45t-0.85,2.55q-1.4,2.7-7.8,2.7q-7.1,0-8.2-3.7q-0.6-1.7-0.6-5.1l0-17.6q0-4.1-2.35-6.4t-6.3-2.3t-6.4,2.4t-2.45,6.3l0,17.7q0,2.3-0.15,3.45t-0.95,2.55q-1.3,2.7-7.7,2.7q-6.3,0-7.7-2.7q-0.7-1.5-0.85-2.65t-0.15-3.45l0-35.4q0-2.2,0.15-3.35t0.95-2.55q1.4-2.5,7.7-2.5q6.1,0,7.5,2.3q1,1.7,1,4.1q0.4-0.7,1.8-2t2.7-2.1q3.4-2.3,7.5-2.3z M1233.5,113.4q-3.8,5-12.1,5t-15.55-7.65t-7.25-17.85t7.3-17.9t16-7.7q3.4,0,6.2,1.25t3.85,2.3t1.65,1.95q0.3-2.8,2.05-4.25t5.65-1.45t5.7,0.6t2.55,2.05t0.9,2.55t0.15,3.4l0,41.4q0,11.5-8,18.55t-18,7.05q-7.6,0-14.5-3.7t-6.9-6.7q0-3.9,3-6.9q1.9-2.1,2.95-2.9t2.45-0.8t2.9,1.2q4.8,3.7,10.4,3.7q3.8,0,6.2-3t2.4-7.2l0-3z M1218.25,98.8q2.55,2.6,6.2,2.6t6.05-2.65t2.4-5.8t-2.3-5.9t-6.2-2.75t-6.3,2.7t-2.4,5.95t2.55,5.85z  M1285,109.7q-2.6-3.2-2.6-5.75t4.3-6.75q2.5-2.4,5.3-2.4t7.8,5q1.4,1.7,4,3.25t4.8,1.55q9.3,0,9.3-7.6q0-2.3-2.55-3.85t-6.35-2.25t-8.2-2.25t-8.2-3.65t-6.35-6.65t-2.55-10.95q0-8.8,6.55-15.35t17.85-6.55q6,0,10.95,1.55t6.85,3.15l2.5,1.9q3.1,2.9,3.1,4.9t-2.4,5.5q-3.4,5-7,5q-2.1,0-5.2-2q-0.3-0.2-1.15-1t-1.55-1.3q-2.1-1.3-5.35-1.3t-5.4,1.55t-2.15,4.3t2.55,4.45t6.35,2.3t8.3,1.85t8.3,3.05t6.35,6.25t2.55,10.95t-2.6,11.45t-6.8,7.65q-8.1,5.3-17.3,5.3q-4.7,0-8.9-1.15t-6.8-2.85q-5.3-3.2-7.4-6.2z M1389.95,96.45q-3.05,2.95-6.75,2.95l-23.7,0q0,2.8,3.3,4.7t6.6,1.9q5.8,0,9.1-1.2l1.1-0.4q2.4-1.1,4-1.1q3.2,0,5.5,4.5q1.3,2.7,1.3,4.6q0,8.9-21.3,8.9q-7.4,0-13.15-2.55t-8.95-6.75q-6.3-8.1-6.3-18.1q0-12.6,8.15-20.15t20.35-7.55q13.9,0,20.4,9.8q3.4,5.2,3.4,11.35t-3.05,9.1z M1371.9,90.3q3.8,0,3.8-3.2q0-2.3-1.75-3.7t-5-1.4t-6.45,2.65t-3.2,5.65l12.6,0z M1430.1,85l-6.5-0.4l0,13.8q0,2.7,0.85,3.9t3.2,1.2t3.6,0.15t2.65,0.95q2.3,1.3,2.3,6.7q0,6.3-2.8,7.7q-1.5,0.7-2.65,0.85t-3.35,0.15q-10.4,0-15.8-4.7t-5.4-15.9l0-14.8q-1.9,0.3-4.1,0.3t-3.65-1.7t-1.45-5.8t0.5-5.95t1.4-2.65q1.6-1.3,4-1.3l3.3,0.4l0-10.3q0-2.3,0.15-3.4t0.95-2.4q1.3-2.5,7.7-2.5q6.8,0,8.1,3.7q0.5,1.6,0.5,5.1l0,9.8q4.4-0.4,6.65-0.4t3.4,0.15t2.65,0.95q2.6,1.3,2.6,7.7q0,6.3-2.7,7.7q-1.5,0.7-2.65,0.85t-3.45,0.15z"/></g></svg>
